<?xml version="1.0" encoding="UTF-8" standalone="no"?>
<!-- Created with Inkscape (http://www.inkscape.org/) -->

<svg
   xmlns:dc="http://purl.org/dc/elements/1.1/"
   xmlns:cc="http://creativecommons.org/ns#"
   xmlns:rdf="http://www.w3.org/1999/02/22-rdf-syntax-ns#"
   xmlns:svg="http://www.w3.org/2000/svg"
   xmlns="http://www.w3.org/2000/svg"
   xmlns:sodipodi="http://sodipodi.sourceforge.net/DTD/sodipodi-0.dtd"
   xmlns:inkscape="http://www.inkscape.org/namespaces/inkscape"
   id="svg4136"
   version="1.1"
   inkscape:version="0.91 r13725"
   width="750"
   height="562.5"
   viewBox="0 0 750 562.5"
   sodipodi:docname="bg.svg">
  <metadata
     id="metadata4142">
    <rdf:RDF>
      <cc:Work
         rdf:about="">
        <dc:format>image/svg+xml</dc:format>
        <dc:type
           rdf:resource="http://purl.org/dc/dcmitype/StillImage" />
        <dc:title></dc:title>
      </cc:Work>
    </rdf:RDF>
  </metadata>
  <defs
     id="defs4140" />
  <sodipodi:namedview
     pagecolor="#ffffff"
     bordercolor="#666666"
     borderopacity="1"
     objecttolerance="10"
     gridtolerance="10"
     guidetolerance="10"
     inkscape:pageopacity="0"
     inkscape:pageshadow="2"
     inkscape:window-width="2560"
     inkscape:window-height="1061"
     id="namedview4138"
     showgrid="false"
     inkscape:zoom="1.5875556"
     inkscape:cx="375"
     inkscape:cy="281.25"
     inkscape:window-x="-4"
     inkscape:window-y="-4"
     inkscape:window-maximized="1"
     inkscape:current-layer="svg4136" />
  <g
     id="g4246">
    <path
       style="fill:#fafafb"
       d="M 0,281.25 0,0 l 375,0 375,0 0,281.25 0,281.25 -375,0 -375,0 0,-281.25 z"
       id="path4270"
       inkscape:connector-curvature="0" />
    <path
       style="fill:#b6b6c7"
       d="M 0,281.25 0,0 l 375,0 375,0 0,281.25 0,281.25 -375,0 -375,0 0,-281.25 z M 225.4985,52.079242 c 9.1906,-3.840081 12.44747,-9.075321 10.7038,-17.205769 -1.38787,-6.471428 -4.28291,-10.542476 -9.29914,-13.076598 -5.29152,-2.673196 -9.7648,-2.673196 -15.05632,0 -4.97612,2.513858 -7.91022,6.600297 -9.26082,12.897894 -0.87944,4.100707 -0.76264,5.02866 1.02821,8.168856 3.04031,5.33108 4.61661,6.922034 8.72952,8.81069 4.54533,2.087223 8.81396,2.21862 13.15475,0.404927 z"
       id="path4268"
       inkscape:connector-curvature="0" />
    <path
       style="fill:#9191a0"
       d="M 0,281.25 0,0 l 375,0 375,0 0,281.25 0,281.25 -375,0 -375,0 0,-281.25 z M 228.71467,50.799363 c 1.61456,-1.193699 4.14874,-2.049363 6.0695,-2.049363 3.54866,0 5.39738,-1.920347 6.52314,-6.775855 0.50542,-2.179954 0.24412,-2.644633 -1.77164,-3.150555 -1.55462,-0.390188 -2.55109,-1.440976 -2.90928,-3.067896 -1.77458,-8.060195 -5.33233,-12.94232 -10.9843,-15.073193 -3.62865,-1.368055 -9.47434,-1.246935 -13.10872,0.271603 -4.35642,1.820229 -8.97157,7.469607 -9.66993,11.836921 -0.55778,3.488217 -0.73243,3.650802 -3.35759,3.125771 -2.67176,-0.534353 -2.75851,-0.442032 -2.46564,2.624058 0.28238,2.956415 0.51589,3.161313 3.35041,2.939953 2.16275,-0.168898 3.04688,0.161684 3.04688,1.139254 0,2.029422 5.62532,8.081077 8.88882,9.562491 4.17653,1.895867 12.95536,1.154927 16.38835,-1.383189 z"
       id="path4266"
       inkscape:connector-curvature="0" />
    <path
       style="fill:#797985"
       d="M 0,281.25 0,0 l 375,0 375,0 0,281.25 0,281.25 -375,0 -375,0 0,-281.25 z M 229.38445,50.840787 c 1.71094,-1.218295 4.32452,-2.090787 6.26304,-2.090787 7.36598,0 11.5909,-5.04215 7.20248,-8.595673 -1.16611,-0.944255 -2.90916,-1.716827 -3.87347,-1.716827 -1.1154,0 -1.93032,-0.852703 -2.23989,-2.34375 -0.26764,-1.289063 -0.6888,-3.292969 -0.93593,-4.453125 -2.91963,-13.706706 -24.11197,-16.403815 -31.15678,-3.965267 -1.16218,2.051991 -2.11999,4.851552 -2.12848,6.221248 -0.013,2.110958 -0.33678,2.410113 -2.1248,1.963639 -1.16015,-0.289695 -2.94152,-1.093949 -3.9586,-1.787232 -2.8275,-1.927353 -3.30702,-1.571161 -3.30702,2.456502 0,4.307817 2.21483,6.096111 6.7295,5.433499 2.41758,-0.354826 2.98918,0.03534 4.55861,3.111694 1.66212,3.258013 5.01651,6.34702 8.39939,7.734869 0.77344,0.317308 4.15788,0.474564 7.52098,0.34946 4.56704,-0.16989 6.85793,-0.756662 9.05097,-2.31825 z"
       id="path4264"
       inkscape:connector-curvature="0" />
    <path
       style="fill:#636379"
       d="M 0,281.25 0,0 l 375,0 375,0 0,281.25 0,281.25 -375,0 -375,0 0,-281.25 z M 227.34375,54.486815 c 2.0625,-0.947104 4.55366,-2.625339 5.53593,-3.729411 1.14118,-1.282704 2.89917,-2.007404 4.86959,-2.007404 3.83928,0 8.47245,-3.655247 7.58025,-5.980279 -0.3352,-0.873535 -1.87975,-2.311109 -3.43232,-3.194609 C 240.24568,38.6353 239.06973,37.19073 239.0632,36.09375 239.0055,26.396336 229.25159,16.875 219.375,16.875 c -7.97865,0 -16.89837,6.789364 -18.79017,14.302398 -0.61596,2.446181 -1.35302,4.447602 -1.63793,4.447602 -0.2849,0 -1.27251,-0.682814 -2.19468,-1.517363 -1.10546,-1.000424 -2.48802,-1.31373 -4.0582,-0.919639 -2.11408,0.530602 -2.38152,1.077004 -2.38152,4.865706 0,3.851682 0.20575,4.251315 2.10937,4.097116 5.74291,-0.465193 8.08635,0.06685 8.69143,1.973279 1.02939,3.243311 6.31048,8.571935 10.28491,10.37748 4.80624,2.18343 11.17139,2.177536 15.94554,-0.01476 z"
       id="path4262"
       inkscape:connector-curvature="0" />
    <path
       style="fill:#585867"
       d="M 0,281.25 0,0 l 375,0 375,0 -0.0594,13.359375 c -0.0406,9.126041 -0.33297,12.677755 -0.92269,11.208347 -1.06621,-2.656696 -6.65186,-5.117616 -9.81418,-4.323925 -1.40295,0.352119 -3.68851,-0.05043 -5.69656,-1.00331 -2.11532,-1.003789 -4.27613,-1.36116 -5.85222,-0.967885 -2.90197,0.724119 -5.77991,3.076422 -5.77991,4.724262 0,0.629068 -1.34341,1.412443 -2.98536,1.740833 -3.13506,0.627012 -6.38964,2.997581 -6.38964,4.654088 0,0.5369 -1.12695,2.602375 -2.50433,4.589944 l -2.50435,3.613761 2.01524,2.015242 c 1.90154,1.901539 4.29867,2.287194 10.96219,1.763617 1.03125,-0.08103 4.40625,0.06316 7.5,0.320419 3.09375,0.25726 9.31641,0.553804 13.82812,0.658987 L 750,42.544999 750,302.5225 750,562.5 l -375,0 -375,0 0,-281.25 z M 228.50226,56.55104 c 1.84133,-0.873768 4.67988,-2.920681 6.3079,-4.548695 1.62801,-1.628015 4.06505,-3.237368 5.41563,-3.576343 2.9099,-0.730341 5.39921,-3.009761 5.39921,-4.94398 0,-0.761229 -1.05469,-2.361503 -2.34375,-3.556166 -1.59746,-1.480475 -2.3503,-3.182688 -2.36434,-5.34586 -0.0443,-6.830747 -6.14347,-15.137717 -13.30867,-18.126233 -4.70231,-1.961268 -12.52911,-1.811785 -17.13949,0.327346 -4.92231,2.283858 -9.51547,7.213137 -11.51492,12.357532 -1.46429,3.767511 -1.89793,4.142609 -4.78915,4.142609 -2.19114,0 -3.50217,0.575973 -4.21875,1.853402 -0.57183,1.019371 -1.67249,2.390465 -2.44593,3.046875 -1.23675,1.049616 -1.18689,1.362977 0.41356,2.599723 1.00089,0.773437 3.59734,1.40625 5.76988,1.40625 3.79189,0 4.06231,0.19887 6.75264,4.96587 5.83114,10.332224 17.71279,14.310671 28.06618,9.39767 z m 171.64233,-6.007988 c 2.13389,-0.743874 3.80199,-0.729816 6.17093,0.052 2.7616,0.911411 3.87837,0.783617 7.47657,-0.855552 2.32652,-1.059851 4.66534,-1.927003 5.19736,-1.927003 0.53203,0 1.65838,-1.054688 2.50301,-2.34375 1.40396,-2.142701 1.40853,-2.537811 0.0534,-4.606033 -0.81526,-1.244257 -2.86769,-2.563672 -4.56095,-2.932034 -1.69325,-0.368363 -4.4004,-1.825379 -6.01588,-3.237814 -5.12024,-4.476692 -14.57448,-4.481425 -18.62168,-0.0093 -0.93521,1.033383 -2.15427,1.878912 -2.709,1.878912 -0.55472,0 -2.80702,1.9311 -5.00508,4.291334 -4.73175,5.080829 -4.33991,7.442737 1.3938,8.401347 1.92733,0.322228 4.55892,0.939889 5.84798,1.372581 3.28474,1.102566 4.91158,1.085902 8.26959,-0.08471 z M 94.100363,42.858747 c 1.541915,-1.127475 1.4967,-1.365102 -0.713551,-3.75 -1.297881,-1.400436 -2.90727,-2.54467 -3.576422,-2.542743 -2.117009,0.0061 -7.429683,3.732522 -6.792112,4.764133 1.58079,2.557774 8.390123,3.49702 11.082085,1.52861 z M 552.96836,41.563196 c 1.02942,-1.839471 -0.18873,-6.856405 -1.93561,-7.971808 -0.65395,-0.417556 -1.74691,-0.554199 -2.42879,-0.303652 -0.68189,0.250547 -2.02368,0.03602 -2.98177,-0.47674 -2.1084,-1.128382 -4.90406,1.151491 -4.07172,3.320516 0.36068,0.939916 0.093,1.220776 -0.82714,0.867706 -0.74824,-0.287127 -1.87038,0.09241 -2.49365,0.843404 -1.30226,1.569124 -0.0419,2.799971 3.17657,3.102255 1.03125,0.09686 3.35156,0.583822 5.15625,1.082148 4.76651,1.316172 5.43689,1.267632 6.40586,-0.463829 z M 323.00975,31.860894 c 5.67922,-1.95394 7.14929,-3.1681 6.35186,-5.246158 -0.55946,-1.457943 -5.16705,-2.956784 -9.67411,-3.146974 -8.09197,-0.341466 -8.77633,-0.239473 -9.95494,1.48362 -0.66488,0.972052 -1.94031,2.510793 -2.83429,3.419423 -2.08474,2.118921 -0.8003,3.530881 4.06968,4.473714 5.5627,1.076943 6.20519,1.024461 12.0418,-0.983625 z"
       id="path4260"
       inkscape:connector-curvature="0" />
    <path
       style="fill:#445656"
       d="M 0,281.25 0,0 l 375,0 375,0 0,12.584135 0,12.584134 -2.85727,-2.857263 c -2.51698,-2.516979 -3.33851,-2.803019 -6.89815,-2.401796 -2.43309,0.274244 -4.93313,-0.03905 -6.28336,-0.7874 -4.31509,-2.391602 -9.98082,-1.024543 -12.09039,2.917241 -0.63122,1.179443 -2.3328,2.381468 -3.78129,2.671165 -2.98222,0.596446 -6.52704,3.961314 -6.52704,6.19571 0,0.819429 -0.84375,2.212313 -1.875,3.095298 -2.84524,2.436168 -2.31961,5.057864 1.40668,7.01621 1.03149,0.542097 6.30492,1.055698 11.71875,1.141336 5.41383,0.08564 11.95269,0.27206 14.53082,0.414269 2.57812,0.14221 6.48047,0.324577 8.67187,0.405262 L 750,43.125 l 0,259.6875 0,259.6875 -375,0 -375,0 0,-281.25 z M 229.21875,59.620577 c 2.74579,-1.309838 7.11465,-4.794707 10.54687,-8.412826 5.52187,-5.820928 7.06941,-9.099251 4.92188,-10.426501 -0.51563,-0.318674 -0.94676,-2.769352 -0.95809,-5.445953 -0.0274,-6.463978 -2.44753,-11.429249 -8.16381,-16.748983 C 231.16023,14.486567 224.01742,11.25 219.375,11.25 c -8.45563,0 -20.22339,8.634247 -23.20347,17.024872 -1.0426,2.935483 -2.15667,4.537628 -3.15531,4.537628 -0.84903,0 -2.68436,1.495516 -4.07854,3.323369 -3.04298,3.989558 -2.07118,6.051631 2.85199,6.051631 2.82414,0 3.31059,0.42562 5.08948,4.453125 5.71094,12.92981 20.22935,18.756977 32.3396,12.979952 z m 173.4375,-9.075227 c 1.03125,-0.01684 3.25986,0.255034 4.95247,0.604162 4.27778,0.882365 14.0922,-3.723284 14.91434,-6.998906 C 423.22033,41.372443 419.28355,37.5 415.76196,37.5 c -1.32958,0 -2.68869,-0.803833 -3.30444,-1.954367 -2.30987,-4.316038 -12.05285,-5.976873 -17.39977,-2.966051 -5.78012,3.254743 -9.74525,6.059853 -9.74525,6.89422 0,0.468104 -1.05469,1.768137 -2.34375,2.888963 -1.28906,1.120825 -2.34375,2.570675 -2.34375,3.221889 0,1.833909 3.85796,4.101282 7.00548,4.117202 1.56105,0.0079 3.47108,0.443074 4.24452,0.967063 0.77344,0.523989 3.09375,0.717435 5.15625,0.429878 2.0625,-0.287557 4.59375,-0.536609 5.625,-0.553447 z M 94.142072,43.493448 C 94.957688,43.180469 95.625,42.550866 95.625,42.094328 95.625,40.553213 91.549016,36.5625 89.974972,36.5625 87.422136,36.5625 82.5,39.405578 82.5,40.880124 c 0,2.420724 7.661984,4.140628 11.642072,2.613324 z M 553.05057,41.808425 c 1.16012,-1.397856 0.52606,-5.752405 -1.14609,-7.870994 -0.52909,-0.670351 -1.84201,-1.134968 -2.9176,-1.032482 -1.0756,0.102485 -2.69928,-0.134525 -3.60819,-0.52669 -1.81334,-0.782394 -4.44119,0.864567 -4.44119,2.783441 0,0.650164 -0.88044,1.412357 -1.95653,1.693762 -1.26757,0.331474 -1.84083,1.11251 -1.62794,2.217956 0.25026,1.299483 1.77848,1.958607 6.40966,2.764491 8.31716,1.44729 8.0616,1.448102 9.28788,-0.02948 z M 321.49594,32.6926 c 6.27075,-1.980603 7.6189,-2.675643 8.21795,-4.236762 1.03422,-2.695096 -2.72622,-4.68455 -10.00866,-5.295083 -7.99432,-0.670215 -8.59008,-0.483821 -11.76716,3.681554 -3.61101,4.734273 -2.00432,6.102935 7.93287,6.757656 1.25245,0.08252 3.7837,-0.325795 5.625,-0.907365 z"
       id="path4258"
       inkscape:connector-curvature="0" />
    <path
       style="fill:#474854"
       d="M 741.46145,80.211449 C 741.234,79.983996 731.98791,79.355548 720.91458,78.814898 709.84125,78.274249 694.67338,77.214321 687.2082,76.459503 654.28113,73.130183 637.3589,72.974222 358.125,73.426559 183.18908,73.709942 79.493679,74.219461 71.71875,74.833849 65.015625,75.363541 50.460937,76.045585 39.375,76.349504 28.289062,76.653423 14.894531,77.102912 9.609375,77.348368 L 0,77.794654 0,38.897327 0,0 l 375,0 375,0 0,12.584135 0,12.584134 -2.85727,-2.857263 c -2.51698,-2.516979 -3.33851,-2.803019 -6.89815,-2.401796 -2.43309,0.274244 -4.93313,-0.03905 -6.28336,-0.7874 -4.31509,-2.391602 -9.98082,-1.024543 -12.09039,2.917241 -0.63122,1.179443 -2.3328,2.381468 -3.78129,2.671165 -2.98222,0.596446 -6.52704,3.961314 -6.52704,6.19571 0,0.819429 -0.84375,2.212313 -1.875,3.095298 -2.84524,2.436168 -2.31961,5.057864 1.40668,7.01621 1.03149,0.542097 6.30492,1.055698 11.71875,1.141336 5.41383,0.08564 11.95269,0.27206 14.53082,0.414269 2.57812,0.14221 6.48047,0.324577 8.67187,0.405262 L 750,43.125 l 0,18.75 0,18.75 -4.0625,0 c -2.23438,0 -4.2486,-0.186098 -4.47605,-0.413551 z M 229.21875,59.620577 c 2.74579,-1.309838 7.11465,-4.794707 10.54687,-8.412826 5.52187,-5.820928 7.06941,-9.099251 4.92188,-10.426501 -0.51563,-0.318674 -0.94676,-2.769352 -0.95809,-5.445953 -0.0274,-6.463978 -2.44753,-11.429249 -8.16381,-16.748983 C 231.16023,14.486567 224.01742,11.25 219.375,11.25 c -8.45563,0 -20.22339,8.634247 -23.20347,17.024872 -1.0426,2.935483 -2.15667,4.537628 -3.15531,4.537628 -0.84903,0 -2.68436,1.495516 -4.07854,3.323369 -3.04298,3.989558 -2.07118,6.051631 2.85199,6.051631 2.82414,0 3.31059,0.42562 5.08948,4.453125 5.71094,12.92981 20.22935,18.756977 32.3396,12.979952 z m 173.4375,-9.075227 c 1.03125,-0.01684 3.25986,0.255034 4.95247,0.604162 4.27778,0.882365 14.0922,-3.723284 14.91434,-6.998906 C 423.22033,41.372443 419.28355,37.5 415.76196,37.5 c -1.32958,0 -2.68869,-0.803833 -3.30444,-1.954367 -2.30987,-4.316038 -12.05285,-5.976873 -17.39977,-2.966051 -5.78012,3.254743 -9.74525,6.059853 -9.74525,6.89422 0,0.468104 -1.05469,1.768137 -2.34375,2.888963 -1.28906,1.120825 -2.34375,2.570675 -2.34375,3.221889 0,1.833909 3.85796,4.101282 7.00548,4.117202 1.56105,0.0079 3.47108,0.443074 4.24452,0.967063 0.77344,0.523989 3.09375,0.717435 5.15625,0.429878 2.0625,-0.287557 4.59375,-0.536609 5.625,-0.553447 z M 94.142072,43.493448 C 94.957688,43.180469 95.625,42.550866 95.625,42.094328 95.625,40.553213 91.549016,36.5625 89.974972,36.5625 87.422136,36.5625 82.5,39.405578 82.5,40.880124 c 0,2.420724 7.661984,4.140628 11.642072,2.613324 z M 553.05057,41.808425 c 1.16012,-1.397856 0.52606,-5.752405 -1.14609,-7.870994 -0.52909,-0.670351 -1.84201,-1.134968 -2.9176,-1.032482 -1.0756,0.102485 -2.69928,-0.134525 -3.60819,-0.52669 -1.81334,-0.782394 -4.44119,0.864567 -4.44119,2.783441 0,0.650164 -0.88044,1.412357 -1.95653,1.693762 -1.26757,0.331474 -1.84083,1.11251 -1.62794,2.217956 0.25026,1.299483 1.77848,1.958607 6.40966,2.764491 8.31716,1.44729 8.0616,1.448102 9.28788,-0.02948 z M 321.49594,32.6926 c 6.27075,-1.980603 7.6189,-2.675643 8.21795,-4.236762 1.03422,-2.695096 -2.72622,-4.68455 -10.00866,-5.295083 -7.99432,-0.670215 -8.59008,-0.483821 -11.76716,3.681554 -3.61101,4.734273 -2.00432,6.102935 7.93287,6.757656 1.25245,0.08252 3.7837,-0.325795 5.625,-0.907365 z"
       id="path4256"
       inkscape:connector-curvature="0" />
    <path
       style="fill:#42424d"
       d="M 725.625,77.649632 C 715.57031,77.213828 697.00781,76.130074 684.375,75.24129 663.59178,73.779082 635.35832,73.59722 387.65625,73.330015 202.75455,73.130555 106.14724,73.362405 90,74.044366 c -13.148438,0.55531 -37.40625,1.408628 -53.90625,1.896262 -16.5,0.487634 -31.3710938,1.127408 -33.046875,1.42172 L 0,77.897462 0,38.948731 0,0 l 375,0 375,0 0,12.1875 c 0,12.135168 -0.008,12.179551 -1.85115,10.336346 -2.25015,-2.250141 -5.78525,-3.230214 -9.19897,-2.550322 -1.47897,0.294558 -3.30533,-0.05167 -4.36344,-0.827212 -2.97127,-2.177765 -8.69021,-1.690264 -11.3478,0.967324 -1.26562,1.265625 -2.30114,2.742187 -2.30114,3.28125 0,0.539062 -1.07386,0.980114 -2.38636,0.980114 -2.75618,0 -6.98864,3.811999 -6.98864,6.294374 0,0.930655 -0.84375,2.219032 -1.875,2.863058 -2.57197,1.606216 -2.40958,5.449072 0.30542,7.228009 1.67333,1.096408 4.41524,1.367046 11.78987,1.163704 5.28519,-0.14573 9.83511,0.100176 10.11093,0.546457 0.27582,0.44628 2.45866,0.721649 4.85075,0.611927 2.39211,-0.10972 6.35319,-0.14505 8.8024,-0.07852 L 750,43.125 l 0,17.8125 0,17.8125 -3.04688,-0.153998 c -1.67578,-0.0847 -11.27343,-0.510566 -21.32812,-0.94637 z m -495,-14.943722 c 17.66692,-7.781258 21.88579,-32.320123 7.95221,-46.2537 C 227.85866,5.7336596 210.89784,5.7271607 200.1875,16.4375 c -3.55731,3.557311 -7.97391,11.701111 -7.99084,14.734375 -0.005,0.902344 -0.44148,1.640625 -0.96986,1.640625 -0.52839,0 -1.3617,1.054687 -1.8518,2.34375 -0.4901,1.289062 -1.32341,2.34375 -1.8518,2.34375 -0.52838,0 -0.9607,0.854297 -0.9607,1.898437 0,1.328453 0.78676,2.055789 2.62042,2.422524 2.13308,0.426613 2.93161,1.400232 4.29359,5.234932 0.92022,2.590966 3.41347,6.598889 5.54055,8.906495 8.44601,9.162835 20.34917,11.702362 31.60794,6.743522 z m 172.5,-12.106412 c 0.77344,-0.02801 2.84746,0.235382 4.60895,0.585313 2.20867,0.43877 4.24548,0.133302 6.5625,-0.984197 1.84788,-0.891241 4.41449,-2.122877 5.70355,-2.736972 4.83509,-2.30338 2.34892,-9.963642 -3.23373,-9.963642 -1.38151,0 -3.43058,-1.21375 -5.14379,-3.046875 -2.70976,-2.899437 -3.17886,-3.046875 -9.69436,-3.046875 -7.5077,0 -8.57488,0.532943 -17.15776,8.568545 -5.99224,5.610162 -5.10305,9.687774 2.12113,9.727061 1.45187,0.0079 3.27257,0.442752 4.04601,0.966348 0.77344,0.523596 3.51562,0.733794 6.09375,0.467106 2.57812,-0.266688 5.32031,-0.507803 6.09375,-0.535812 z M 95.211497,43.035607 C 96.215738,41.410706 93.630081,37.505625 91.135366,36.879491 88.316281,36.171946 82.5,38.810076 82.5,40.796293 c 0,0.798395 0.949219,1.833167 2.109375,2.299493 2.987462,1.200812 9.846853,1.161878 10.602122,-0.06018 z M 553.47967,39.060025 c -0.15063,-4.748412 -1.77505,-6.167164 -7.40485,-6.467346 -4.15474,-0.221532 -4.70016,-0.02728 -4.95562,1.76488 -0.15789,1.107595 -1.1438,2.237851 -2.19092,2.51168 -1.21981,0.318989 -1.78644,1.111206 -1.57705,2.20494 0.24235,1.265886 1.77776,1.988577 5.94091,2.7963 3.08776,0.599074 6.6688,1.020949 7.95786,0.9375 2.08826,-0.135189 2.33131,-0.543753 2.22967,-3.747954 z m -229.66914,-6.96467 c 9.8188,-3.522027 7.52137,-7.938723 -4.70585,-9.046724 l -7.27104,-0.658886 -3.10431,3.38855 c -3.77974,4.125805 -3.91908,5.881286 -0.52621,6.629598 1.41797,0.312739 3,0.709345 3.51563,0.881348 2.48908,0.830311 7.95252,0.290876 12.09178,-1.193886 z"
       id="path4254"
       inkscape:connector-curvature="0" />
    <path
       style="fill:#3b3b48"
       d="M 0,37.532415 0,0 l 375,0 375,0 0,12.144886 0,12.144887 -2.36929,-2.369287 c -1.96041,-1.960419 -3.13335,-2.329369 -6.79687,-2.137981 -2.43518,0.127218 -5.34908,-0.263989 -6.47533,-0.869349 -3.52862,-1.896623 -8.56667,-1.352725 -11.11987,1.20048 -1.26562,1.265625 -2.30114,2.742187 -2.30114,3.28125 0,0.539062 -1.07386,0.980114 -2.38636,0.980114 -2.75618,0 -6.98864,3.811999 -6.98864,6.294374 0,0.930655 -0.84375,2.219032 -1.875,2.863058 -2.55415,1.595094 -2.41097,5.448166 0.26768,7.203285 1.58288,1.037136 4.60447,1.370929 11.56513,1.277588 5.18235,-0.0695 9.93209,0.188628 10.55499,0.573605 0.62291,0.384976 2.90689,0.606881 5.0755,0.493121 2.16863,-0.11376 5.94686,-0.15018 8.39607,-0.08093 L 750,43.125 l 0,15.94569 0,15.945689 -5.39063,-0.711314 C 737.45198,73.360618 40.172463,73.383851 17.578125,74.32929 L 0,75.064829 0,37.532415 Z m 228.13075,29.920608 c 3.01098,-0.582055 6.18074,-1.764518 7.04392,-2.627694 0.86317,-0.863176 2.93683,-2.543099 4.60812,-3.733163 1.91412,-1.362973 4.2991,-4.748522 6.44436,-9.147954 3.31233,-6.792849 3.39269,-7.21148 2.93267,-15.279509 C 248.19286,19.705663 239.70423,9.2880337 224.57321,6.4909141 207.80225,3.3906325 192.3587,14.748259 189.82424,32.046291 c -0.35377,2.414522 -1.23238,4.616125 -1.95247,4.892451 -1.7463,0.670119 -1.676,4.229378 0.097,4.909734 0.77344,0.296795 1.40625,1.258094 1.40625,2.136218 0,3.232528 6.5867,14.967356 9.60907,17.119474 1.66201,1.183462 3.72809,2.857985 4.59126,3.721161 0.86318,0.863176 3.822,2.007331 6.57517,2.542567 2.75316,0.535236 5.8495,1.146231 6.88075,1.357767 2.02997,0.416398 2.84626,0.322805 11.0995,-1.27264 z M 401.41228,50.538149 c 1.3842,-0.7408 2.19757,-0.7408 2.93837,0 1.53626,1.536262 8.65758,1.26496 10.02435,-0.381899 0.6419,-0.773438 1.86531,-1.40625 2.71869,-1.40625 2.88774,0 5.71881,-2.78463 5.71881,-5.625 0,-3.035441 -2.87951,-5.625 -6.25483,-5.625 -1.1482,0 -3.36903,-1.371094 -4.93519,-3.046875 -2.70976,-2.899437 -3.17886,-3.046875 -9.69436,-3.046875 -7.5077,0 -8.57488,0.532943 -17.15776,8.568545 -5.99224,5.610162 -5.10305,9.687774 2.12113,9.727061 1.45187,0.0079 3.27257,0.42331 4.04601,0.923144 1.9001,1.227938 8.11435,1.176414 10.47478,-0.08685 z M 95.256909,42.731989 C 96.172837,40.345121 92.863403,36.5625 89.859194,36.5625 86.647349,36.5625 82.5,39.017809 82.5,40.919282 c 0,2.85655 11.717428,4.521551 12.756909,1.812707 z M 553.40186,38.526862 c -0.10554,-2.271165 -0.52742,-4.463754 -0.9375,-4.87242 -0.41009,-0.408668 -3.06592,-0.870755 -5.90186,-1.026862 -4.66605,-0.256847 -5.18354,-0.09238 -5.4433,1.729979 -0.15789,1.107595 -1.1438,2.237851 -2.19092,2.51168 -1.21981,0.318989 -1.78644,1.111206 -1.57705,2.20494 0.24235,1.265886 1.77776,1.988577 5.94091,2.7963 3.08776,0.599074 6.6688,1.020949 7.95786,0.9375 2.15426,-0.139462 2.32823,-0.485582 2.15186,-4.281117 z M 322.43344,32.6926 C 329.31781,30.518184 330,30.08021 330,27.834767 c 0,-2.941643 -2.69257,-4.131876 -10.9781,-4.852786 -6.9835,-0.607623 -10.5844,0.32181 -10.5844,2.731952 0,0.700129 -0.6624,1.527151 -1.47201,1.837823 -0.88293,0.338816 -1.35189,1.410666 -1.17187,2.678427 0.22609,1.59216 1.1096,2.256579 3.58138,2.693279 5.42218,0.957958 9.52415,0.885438 13.05844,-0.230862 z"
       id="path4252"
       inkscape:connector-curvature="0" />
    <path
       style="fill:#383846"
       d="M 0,26.813823 0,0 l 375,0 375,0 0,11.786794 0,11.786794 -2.54497,-2.00187 c -1.89029,-1.486905 -3.63873,-1.944766 -6.79687,-1.779888 -2.33855,0.122089 -5.1734,-0.273314 -6.29965,-0.878674 -4.66073,-2.505125 -13.42101,0.186495 -13.42101,4.123638 0,0.782073 -0.92148,1.338206 -2.21732,1.338206 -3.02181,0 -7.15768,3.430117 -7.15768,5.936281 0,1.127607 -0.84375,2.577125 -1.875,3.221151 -2.33232,1.456558 -2.42702,5.052392 -0.18647,7.080067 1.28258,1.160716 3.70555,1.543442 10.07813,1.59191 4.61428,0.03509 11.55365,0.232637 15.42084,0.438981 3.86719,0.206346 8.82422,0.399121 11.01562,0.428392 L 750,43.125 l 0,5.212323 0,5.212323 -39.60938,-0.522021 C 688.60547,52.740514 612.84953,52.26656 542.0441,51.974393 430.29367,51.513276 413.4544,51.265502 414.42451,50.096591 415.03917,49.355966 416.47973,48.75 417.62574,48.75 c 5.14954,0 6.98233,-7.725592 2.37426,-10.00796 -1.28906,-0.638468 -3.50391,-1.398094 -4.92188,-1.688057 C 413.66016,36.76402 412.5,35.912836 412.5,35.162464 c 0,-3.487331 -13.09493,-5.770764 -18.10851,-3.157677 -2.17842,1.135395 -2.42221,1.332622 -9.31337,7.53462 -6.39603,5.75639 -5.8317,10.148093 1.30405,10.148093 1.92894,0 3.76791,0.421875 4.08658,0.9375 0.38431,0.621822 -23.13632,0.9375 -69.8516,0.9375 l -70.43101,0 0.73637,-2.109375 c 0.40499,-1.160156 0.62511,-6.75 0.48913,-12.421875 C 251.1954,28.011103 250.84669,26.072573 248.62908,21.5625 242.70602,9.51642 233.90258,4.3309228 219.375,4.3309228 c -13.80975,0 -21.25673,3.884327 -27.66191,14.4283932 -2.95768,4.868871 -3.513,6.759092 -4.33072,14.740984 -0.84868,8.284122 -0.64363,13.112533 0.70623,16.63021 0.39325,1.024813 -8.77418,1.346407 -51.3831,1.802522 -28.52396,0.305339 -70.951594,0.811539 -94.283625,1.124888 L 0,53.627647 0,26.813823 Z M 95.256909,42.731989 C 96.131953,40.451678 92.867903,36.5625 90.079083,36.5625 c -3.985635,0 -7.563479,2.071728 -7.571769,4.384384 -0.0083,2.323835 1.352845,2.851505 7.756484,3.006865 3.084258,0.07482 4.641811,-0.30629 4.993111,-1.22176 z M 553.40186,38.526862 c -0.10554,-2.271165 -0.52742,-4.463754 -0.9375,-4.87242 -0.41009,-0.408668 -3.06592,-0.870755 -5.90186,-1.026862 -4.73429,-0.260602 -5.18077,-0.111211 -5.45583,1.825545 -0.19252,1.355585 -0.94631,2.109375 -2.10937,2.109375 -1.27693,0 -1.8098,0.651576 -1.8098,2.212925 0,1.987427 0.59707,2.310454 5.85937,3.170045 3.22266,0.526418 6.91407,0.901695 8.20313,0.833952 2.15802,-0.113412 2.32854,-0.450394 2.15186,-4.25256 z M 322.43344,32.6926 C 329.40037,30.492111 330,30.097195 330,27.709334 c 0,-3.079261 -1.85227,-3.897329 -10.53712,-4.653772 -7.47656,-0.651205 -11.02538,0.204464 -11.02538,2.658371 0,0.700129 -0.6624,1.527151 -1.47201,1.837823 -0.88293,0.338816 -1.35189,1.410666 -1.17187,2.678427 0.22609,1.59216 1.1096,2.256579 3.58138,2.693279 5.42218,0.957958 9.52415,0.885438 13.05844,-0.230862 z M 402,50.4375 c 0.875,-0.875 1.375,-0.875 2.25,0 0.875,0.875 0.625,1.125 -1.125,1.125 -1.75,0 -2,-0.25 -1.125,-1.125 z"
       id="path4250"
       inkscape:connector-curvature="0" />
    <path
       style="fill:#373746"
       d="M 62.34375,20.603304 C 51.515625,20.245896 40.125,19.397401 37.03125,18.71776 30.443348,17.270518 9.73299,17.154685 3.984375,18.532929 L 0,19.488192 0,9.7440966 0,0 l 375,0 375,0 0,9.4496194 0,9.4496196 -6.32813,-0.777745 c -8.56877,-1.053127 -24.864,-0.796477 -31.17187,0.490958 -11.57325,2.362095 -62.17433,2.93743 -258.89488,2.943638 L 250.49149,21.5625 247.6227,16.479287 C 242.03667,6.5813996 235.2241,3.4356272 219.375,3.4356272 c -15.8491,0 -22.66167,3.1457724 -28.2477,13.0436598 l -2.86879,5.083213 -53.11363,-0.154681 c -29.2125,-0.08507 -61.973005,-0.447106 -72.80113,-0.804515 z"
       id="path4248"
       inkscape:connector-curvature="0" />
  </g>
</svg>
