<?xml version="1.0" encoding="UTF-8" standalone="no"?>
<!-- Created with Inkscape (http://www.inkscape.org/) -->

<svg
   xmlns:dc="http://purl.org/dc/elements/1.1/"
   xmlns:cc="http://creativecommons.org/ns#"
   xmlns:rdf="http://www.w3.org/1999/02/22-rdf-syntax-ns#"
   xmlns:svg="http://www.w3.org/2000/svg"
   xmlns="http://www.w3.org/2000/svg"
   xmlns:sodipodi="http://sodipodi.sourceforge.net/DTD/sodipodi-0.dtd"
   xmlns:inkscape="http://www.inkscape.org/namespaces/inkscape"
   id="svg4136"
   version="1.1"
   inkscape:version="0.91 r13725"
   width="197.53558"
   height="350.63562"
   viewBox="0 0 197.53558 350.63562"
   sodipodi:docname="girl.svg">
  <metadata
     id="metadata4142">
    <rdf:RDF>
      <cc:Work
         rdf:about="">
        <dc:format>image/svg+xml</dc:format>
        <dc:type
           rdf:resource="http://purl.org/dc/dcmitype/StillImage" />
        <dc:title></dc:title>
      </cc:Work>
    </rdf:RDF>
  </metadata>
  <defs
     id="defs4140" />
  <sodipodi:namedview
     pagecolor="#ffffff"
     bordercolor="#666666"
     borderopacity="1"
     objecttolerance="10"
     gridtolerance="10"
     guidetolerance="10"
     inkscape:pageopacity="0"
     inkscape:pageshadow="2"
     inkscape:window-width="2560"
     inkscape:window-height="1061"
     id="namedview4138"
     showgrid="false"
     fit-margin-top="0"
     fit-margin-left="0"
     fit-margin-right="0"
     fit-margin-bottom="0"
     inkscape:zoom="1.5875556"
     inkscape:cx="102.08828"
     inkscape:cy="165.93274"
     inkscape:window-x="-4"
     inkscape:window-y="-4"
     inkscape:window-maximized="1"
     inkscape:current-layer="svg4136" />
  <g
     id="g4146"
     transform="translate(-272.91172,-96.547124)">
    <path
       style="fill:#fdd2eb"
       d="m 347.30785,444.89308 c -2.16849,-2.16849 -2.26997,-2.74731 -1.84899,-10.54687 0.24499,-4.53885 0.656,-14.15871 0.91336,-21.37746 0.25736,-7.21875 0.96966,-20.50781 1.5829,-29.53125 l 1.11498,-16.40625 -3.91281,-20.15625 c -6.96537,-35.88112 -8.95331,-53.70113 -6.73914,-60.41012 0.64896,-1.96634 3.87191,-6.50859 7.16213,-10.09388 6.87108,-7.48729 7.22941,-9.12508 3.59302,-16.42236 -2.70901,-5.43627 -4.75833,-7.55111 -6.05786,-6.25158 -0.47719,0.47719 -2.06922,6.13353 -3.53787,12.56965 l -2.67026,11.70204 -5.56303,3.01952 c -7.99973,4.34212 -17.94812,7.41417 -31.25068,9.65016 -6.39383,1.07473 -13.08988,2.56604 -14.88011,3.31406 -4.66412,1.94879 -7.47154,1.68719 -10.09985,-0.94113 -2.76575,-2.76574 -2.91577,-5.17001 -0.50803,-8.14188 1.60881,-1.98575 2.54957,-2.21323 9.15273,-2.21323 7.11678,0 7.59121,-0.14317 14.37876,-4.33925 10.0814,-6.23233 12.64204,-7.40147 19.08342,-8.71306 l 5.74823,-1.17046 0.64116,-18.20112 c 0.8186,-23.23878 2.33719,-33.10622 5.7921,-37.63583 3.93838,-5.16349 8.6348,-6.62185 18.85674,-5.85547 8.37066,0.62757 8.51761,0.6019 11.04986,-1.93036 2.97616,-2.97616 3.1145,-3.67303 1.05622,-5.32061 -7.9543,-6.36712 -12.54746,-11.64422 -15.26306,-17.53578 -5.23695,-11.36172 -7.02705,-25.51356 -4.77101,-37.71767 0.76558,-4.14139 0.67231,-5.84865 -0.46875,-8.57956 -1.77079,-4.2381 -1.83999,-11.9265 -0.14331,-15.92157 0.70466,-1.65921 3.13044,-4.77853 5.39062,-6.9318 2.26019,-2.15327 5.54618,-5.68356 7.3022,-7.84509 10.66877,-13.132469 34.36979,-10.382007 40.74929,4.72888 0.7619,1.80469 3.15502,4.96875 5.31804,7.03125 7.39,7.04655 10.47555,18.59898 7.35701,27.54484 -0.98714,2.8317 -0.81872,3.21654 3.36514,7.68942 4.30497,4.60237 4.39347,4.8184 3.92453,9.58089 -0.26387,2.67979 -0.75942,6.16197 -1.10124,7.73817 -0.44495,2.0519 -0.19939,3.21612 0.86462,4.09918 2.24103,1.85987 1.87126,6.87756 -0.68371,9.27783 -4.63612,4.35541 -11.43118,1.28176 -12.0572,-5.4539 -0.20057,-2.15808 -0.83914,-3.37482 -1.87396,-3.57071 -1.15361,-0.21838 -2.54978,1.76776 -5.2668,7.49232 -2.25518,4.75147 -5.20793,9.2348 -7.57092,11.49535 -6.99338,6.69021 -4.29692,10.48917 8.06238,11.35886 15.2173,1.0708 19.63725,3.63049 24.60691,14.2504 4.19967,8.9745 6.35354,16.80512 7.98566,29.03271 2.21733,16.61205 2.06987,16.17344 5.95544,17.71437 8.47125,3.35953 10.90194,4.73104 19.0881,10.77045 7.09465,5.23414 9.3606,6.42728 12.22456,6.43683 6.58763,0.022 9.34433,5.51827 4.96449,9.8981 -2.84551,2.84552 -3.24924,2.8456 -8.86109,0.002 -2.49557,-1.26459 -9.3865,-3.97131 -15.3132,-6.01492 -12.35496,-4.26017 -18.98405,-7.42809 -22.13343,-10.57716 -1.21143,-1.21131 -4.32294,-5.99927 -6.91447,-10.63989 -2.59154,-4.64063 -5.14804,-8.71488 -5.68113,-9.05389 -1.9345,-1.23022 -3.38067,0.39473 -4.34243,4.87928 -1.50974,7.0397 -0.50823,9.81197 5.66959,15.69394 7.91548,7.53642 8.84141,10.51663 7.40696,23.84023 -1.74424,16.20104 -6.54889,72.65762 -7.4831,87.92945 -0.74722,12.21489 -3.41925,35.98481 -5.57879,49.62798 -0.55094,3.48059 -1.47288,5.6429 -2.89799,6.79687 -2.89441,2.34375 -7.1388,2.1461 -9.73839,-0.45349 -2.06292,-2.06292 -2.16993,-2.94191 -2.76759,-22.73438 -0.34194,-11.32368 -0.62294,-28.39319 -0.62445,-37.93225 -0.003,-14.82865 -0.48518,-20.74238 -3.32945,-40.78028 -1.82969,-12.89009 -3.67927,-23.78909 -4.11018,-24.22 -0.4309,-0.4309 -1.78134,-0.64228 -3.00096,-0.46971 -1.9166,0.27117 -2.24722,0.88621 -2.43645,4.53249 -0.54363,10.4753 -2.37682,28.35203 -3.6532,35.625 -0.76916,4.38281 -1.79342,13.875 -2.27612,21.09375 -0.48271,7.21875 -1.53306,16.07812 -2.33415,19.6875 -3.58106,16.13507 -5.94178,28.62447 -6.55654,34.6875 -0.36598,3.60937 -1.24958,7.71015 -1.96356,9.11284 -2.50998,4.93108 -8.30395,5.97843 -12.09589,2.18649 z m 40.57088,-251.38935 c -0.30732,-0.30732 0.85033,-2.52216 2.57255,-4.92187 1.72223,-2.39971 3.86525,-6.26155 4.76226,-8.58186 2.16381,-5.59717 3.21624,-6.64223 3.25719,-3.23438 0.042,3.49368 1.92089,6.92776 4.56458,8.34263 l 2.04768,1.09588 -1.99927,2.54167 c -1.0996,1.39791 -3.2067,3.16605 -4.68245,3.92918 -2.65512,1.37302 -9.44361,1.90768 -10.52254,0.82875 z M 332.74039,179.13461 C 330.55065,176.94488 330,175.57394 330,172.31197 c 0,-2.24525 0.64048,-4.99668 1.42328,-6.1143 1.32238,-1.88794 1.20914,-2.33584 -1.59713,-6.31712 -5.82889,-8.2695 -4.37326,-20.88774 3.13877,-27.20869 1.55036,-1.30454 3.15051,-2.16692 3.55587,-1.91639 1.57301,0.97218 2.19736,7.21633 2.29922,22.99453 0.091,14.09875 0.38035,17.1633 2.05723,21.78884 1.07323,2.96043 1.73678,5.59715 1.47455,5.85938 -0.26224,0.26222 -1.91549,0.47678 -3.67391,0.47678 -2.28365,0 -3.98008,-0.78296 -5.93749,-2.74039 z"
       id="path4160"
       inkscape:connector-curvature="0" />
    <path
       style="fill:#e2bac2"
       d="m 388.125,193.21921 c 0,-0.46381 1.46893,-3.02612 3.26429,-5.69401 1.79537,-2.6679 3.76058,-6.50717 4.36715,-8.53171 1.29941,-4.33706 2.68106,-4.82179 2.68106,-0.9406 0,1.79487 0.9704,3.71077 2.8125,5.55288 1.54688,1.54687 2.8125,3.26418 2.8125,3.81623 0,0.55206 -1.7508,2.27201 -3.89066,3.82212 -2.90535,2.10462 -4.92343,2.81838 -7.96875,2.81838 -2.24295,0 -4.07809,-0.37948 -4.07809,-0.84329 z m 14.22592,-10.70151 c -1.12129,-1.19356 -2.0469,-3.40802 -2.05725,-4.92187 -0.0137,-1.99841 -1.16445,-3.88977 -4.20217,-6.90648 -2.30082,-2.28492 -4.63306,-5.51715 -5.18275,-7.18272 -0.96496,-2.92387 -3.10254,-4.62467 -4.62766,-3.6821 -0.40546,0.2506 -2.83504,-0.16737 -5.39906,-0.9288 -3.49558,-1.03807 -5.86991,-2.66176 -9.49069,-6.49021 -2.65587,-2.80818 -4.82884,-5.69846 -4.82884,-6.42285 0,-0.72439 -0.80539,-2.04593 -1.78975,-2.93677 -1.64859,-1.49195 -2.01466,-1.50341 -4.64095,-0.14531 -4.62467,2.39151 -9.64878,1.90171 -13.72555,-1.33809 -1.94649,-1.54688 -3.92446,-2.8125 -4.3955,-2.8125 -1.54057,0 -3.57325,-6.39966 -3.57325,-11.25 0,-6.24497 1.67602,-9.9368 6.67182,-14.69629 2.26019,-2.15327 5.54618,-5.68356 7.3022,-7.84509 10.66877,-13.132469 34.36979,-10.382008 40.74929,4.72888 0.7619,1.80469 3.15502,4.96875 5.31804,7.03125 7.39,7.04655 10.47555,18.59898 7.35701,27.54484 -0.98714,2.8317 -0.81872,3.21654 3.36514,7.68942 4.30497,4.60237 4.39347,4.8184 3.92453,9.58089 -0.26387,2.67979 -0.75942,6.16197 -1.10124,7.73817 -0.44495,2.0519 -0.19939,3.21612 0.86462,4.09918 0.81735,0.67833 1.48609,2.5847 1.48609,4.23637 0,6.24161 -7.78617,9.42113 -12.02408,4.91008 z m -69.07536,-2.75354 c -3.17955,-2.73493 -4.09227,-8.59042 -1.97673,-12.68144 1.46259,-2.82835 1.42158,-3.04378 -1.46316,-7.68434 -4.24959,-6.83617 -4.6644,-13.26826 -1.29925,-20.1464 1.38427,-2.82932 3.70942,-5.99342 5.167,-7.03131 l 2.65016,-1.88708 1.40255,4.44258 c 1.07525,3.40583 1.2914,7.40561 0.92624,17.13944 -0.4086,10.89159 -0.19327,13.81617 1.5144,20.56912 1.0949,4.32974 1.99073,8.21381 1.99073,8.63126 0,1.68328 -6.53602,0.69185 -8.91194,-1.35183 z"
       id="path4158"
       inkscape:connector-curvature="0" />
    <path
       style="fill:#d1c2b6"
       d="m 388.125,193.5424 c 0,-0.28606 1.66201,-3.27575 3.69337,-6.64378 2.03134,-3.36802 3.9633,-7.35273 4.29323,-8.8549 0.77671,-3.53633 2.3259,-3.53022 2.3259,0.009 0,1.8048 0.97613,3.71651 2.85912,5.59951 3.36771,3.36771 2.85377,5.29406 -2.25479,8.45131 -2.85362,1.76343 -10.91683,2.82605 -10.91683,1.43849 z m 14.22592,-11.0247 c -1.12471,-1.1972 -2.03842,-3.38748 -2.03842,-4.88639 0,-1.90381 -1.11283,-3.85048 -3.71944,-6.50642 -2.04569,-2.08441 -4.3025,-5.47537 -5.01514,-7.53548 -0.82755,-2.39227 -1.93949,-3.83368 -3.07744,-3.98926 -8.29069,-1.13353 -12.08296,-2.51833 -15.6015,-5.69713 -2.08195,-1.88091 -4.55915,-5.22502 -5.50489,-7.43134 -0.94574,-2.20633 -2.32422,-4.24355 -3.06328,-4.52715 -0.73906,-0.28361 -3.32181,0.15592 -5.73942,0.97673 -5.23857,1.77854 -9.31713,0.9754 -13.67706,-2.69324 -1.57888,-1.32854 -3.21892,-2.41552 -3.64455,-2.41552 -1.30464,0 -2.83228,-5.65391 -2.83228,-10.48251 0,-6.07542 1.71052,-9.79966 6.67182,-14.52628 2.26019,-2.15327 5.54618,-5.68356 7.3022,-7.84509 10.66877,-13.132469 34.36979,-10.382008 40.74929,4.72888 0.7619,1.80469 3.15502,4.96875 5.31804,7.03125 7.39,7.04655 10.47555,18.59898 7.35701,27.54484 -0.98714,2.8317 -0.81872,3.21654 3.36514,7.68942 4.30497,4.60237 4.39347,4.8184 3.92453,9.58089 -0.26387,2.67979 -0.75942,6.16197 -1.10124,7.73817 -0.44495,2.0519 -0.19939,3.21612 0.86462,4.09918 0.81735,0.67833 1.48609,2.5847 1.48609,4.23637 0,6.24161 -7.78617,9.42113 -12.02408,4.91008 z m -67.89781,-1.6553 C 332.28233,179.59804 330,175.07184 330,172.03125 c 0,-1.34028 0.63082,-3.65672 1.40181,-5.14766 1.33101,-2.57389 1.25191,-2.95192 -1.56614,-7.48521 -4.20811,-6.76945 -4.65926,-13.27878 -1.38424,-19.97266 1.33751,-2.73379 3.66724,-5.88389 5.17716,-7.00023 l 2.74533,-2.0297 1.39239,4.41148 c 1.06351,3.36954 1.27988,7.41033 0.91606,17.10834 -0.4086,10.89159 -0.19327,13.81617 1.5144,20.56912 1.0949,4.32974 1.99073,8.21381 1.99073,8.63126 0,1.07787 -5.77342,0.88857 -7.73439,-0.25359 z"
       id="path4156"
       inkscape:connector-curvature="0" />
    <path
       style="fill:#c7b5a7"
       d="m 388.69173,193.28353 c -0.26479,-0.42844 0.89672,-2.85422 2.58111,-5.39062 1.6844,-2.53642 3.63126,-6.08822 4.32636,-7.89291 1.85089,-4.80547 2.8383,-5.4979 2.8383,-1.99039 0,2.15788 0.83018,3.90231 2.78966,5.86179 2.35201,2.352 2.61772,3.065 1.69365,4.54468 -2.43072,3.8922 -12.66759,7.394 -14.22908,4.86745 z m 13.65919,-10.76583 c -1.12471,-1.1972 -2.03842,-3.38748 -2.03842,-4.88639 0,-1.90381 -1.11283,-3.85048 -3.71944,-6.50642 -2.04569,-2.08441 -4.3025,-5.47537 -5.01514,-7.53548 -0.82755,-2.39227 -1.93949,-3.83368 -3.07744,-3.98926 -8.29069,-1.13353 -12.08296,-2.51833 -15.6015,-5.69713 -2.08195,-1.88091 -4.55915,-5.22502 -5.50489,-7.43134 -0.94574,-2.20633 -2.32422,-4.24355 -3.06328,-4.52715 -0.73906,-0.28361 -3.32181,0.15592 -5.73942,0.97673 -5.23857,1.77854 -9.31713,0.9754 -13.67706,-2.69324 -1.57888,-1.32854 -3.21892,-2.41552 -3.64455,-2.41552 -1.30464,0 -2.83228,-5.65391 -2.83228,-10.48251 0,-6.07542 1.71052,-9.79966 6.67182,-14.52628 2.26019,-2.15327 5.54618,-5.68356 7.3022,-7.84509 10.66877,-13.132469 34.36979,-10.382008 40.74929,4.72888 0.7619,1.80469 3.15502,4.96875 5.31804,7.03125 7.39,7.04655 10.47555,18.59898 7.35701,27.54484 -0.98714,2.8317 -0.81872,3.21654 3.36514,7.68942 4.30497,4.60237 4.39347,4.8184 3.92453,9.58089 -0.26387,2.67979 -0.75942,6.16197 -1.10124,7.73817 -0.44495,2.0519 -0.19939,3.21612 0.86462,4.09918 0.81735,0.67833 1.48609,2.5847 1.48609,4.23637 0,6.24161 -7.78617,9.42113 -12.02408,4.91008 z m -67.56023,-1.95099 c -4.76219,-2.63948 -6.15436,-9.26055 -2.96457,-14.09941 l 1.81375,-2.75145 -2.70629,-3.08229 c -6.56386,-7.47584 -6.07482,-18.382 1.17703,-26.24933 l 3.84327,-4.16946 1.65948,4.37175 c 1.39603,3.67771 1.50186,5.21098 0.66657,9.65823 -1.39156,7.40904 -0.42138,23.70192 1.83339,30.78918 1.01753,3.19836 1.61924,6.04601 1.33712,6.32813 -0.89931,0.89931 -4.34457,0.48785 -6.65975,-0.79535 z"
       id="path4154"
       inkscape:connector-curvature="0" />
    <path
       style="fill:#b89989"
       d="m 388.78701,193.47451 c -0.3234,-0.3234 0.69092,-2.44684 2.25404,-4.71876 1.56312,-2.27192 3.75972,-6.1206 4.88133,-8.55263 l 2.03931,-4.42187 0.29543,3.02169 c 0.18114,1.85281 1.35008,4.01713 3.02183,5.59499 l 2.72641,2.5733 -2.08081,2.22846 c -3.71676,3.98051 -11.04675,6.3656 -13.13754,4.27482 z m 13.56391,-10.95681 c -1.12471,-1.1972 -2.03842,-3.38748 -2.03842,-4.88639 0,-1.90381 -1.11283,-3.85048 -3.71944,-6.50642 -2.04569,-2.08441 -4.3025,-5.47537 -5.01514,-7.53548 -0.82755,-2.39227 -1.93949,-3.83368 -3.07744,-3.98926 -8.29069,-1.13353 -12.08296,-2.51833 -15.6015,-5.69713 -2.08195,-1.88091 -4.55915,-5.22502 -5.50489,-7.43134 -0.94574,-2.20633 -2.32422,-4.24355 -3.06328,-4.52715 -0.73906,-0.28361 -3.3164,0.15408 -5.7274,0.97264 -5.65042,1.91837 -9.78143,0.84111 -15.36503,-4.00678 -3.63862,-3.15919 -4.1579,-4.11106 -4.56734,-8.37224 -0.77536,-8.06925 0.32797,-11.2815 5.85429,-17.04439 2.7492,-2.86688 6.40339,-6.86139 8.12041,-8.87669 10.88134,-12.771612 34.2154,-9.851373 40.51507,5.07043 0.7619,1.80469 3.15502,4.96875 5.31804,7.03125 7.39,7.04655 10.47555,18.59898 7.35701,27.54484 -0.98714,2.8317 -0.81872,3.21654 3.36514,7.68942 4.30497,4.60237 4.39347,4.8184 3.92453,9.58089 -0.26387,2.67979 -0.75942,6.16197 -1.10124,7.73817 -0.44495,2.0519 -0.19939,3.21612 0.86462,4.09918 0.81735,0.67833 1.48609,2.5847 1.48609,4.23637 0,6.24161 -7.78617,9.42113 -12.02408,4.91008 z m -68.8205,-3.3783 c -2.59397,-2.3177 -3.06167,-3.37677 -3.06167,-6.93282 0,-2.76642 0.59055,-4.84978 1.73237,-6.11147 1.6957,-1.87374 1.6721,-1.98988 -1.11549,-5.48905 -6.11251,-7.67285 -5.92234,-18.05846 0.46735,-25.52338 1.80434,-2.10797 3.56749,-3.83268 3.91809,-3.83268 0.3506,0 1.31661,1.88863 2.14667,4.19695 1.20059,3.33868 1.32167,5.20793 0.59211,9.14063 -1.32519,7.14335 -0.30164,23.51517 1.90347,30.44635 1.01753,3.19836 1.61924,6.04601 1.33712,6.32813 -1.32574,1.32574 -5.14976,0.25258 -7.92002,-2.22266 z"
       id="path4152"
       inkscape:connector-curvature="0" />
    <path
       style="fill:#a7876e"
       d="m 389.30396,193.44397 c -0.80883,-0.3267 -0.28711,-1.74615 1.70717,-4.64474 1.57958,-2.29583 3.78964,-6.16408 4.91125,-8.59611 l 2.03931,-4.42187 0.29543,3.02169 c 0.18114,1.85281 1.35008,4.01713 3.02183,5.59499 l 2.72641,2.5733 -2.08081,2.26021 c -3.38736,3.67942 -9.16565,5.60811 -12.62059,4.21253 z m 13.04696,-10.92627 c -1.21834,-1.29686 -2.03842,-3.37971 -2.03842,-5.17719 0,-2.20649 -1.00047,-4.09279 -3.75678,-7.08302 -2.06622,-2.24159 -4.32454,-5.71264 -5.01847,-7.71343 -1.12288,-3.23753 -1.61213,-3.6456 -4.44636,-3.70863 -5.97141,-0.13278 -9.54241,-1.54018 -13.76133,-5.42363 -2.31866,-2.13431 -4.98958,-5.68248 -5.93538,-7.88484 -2.06519,-4.80897 -3.49654,-5.51126 -7.263,-3.56354 -4.46734,2.31014 -9.63985,1.88946 -13.57476,-1.10405 -1.86389,-1.41796 -4.29558,-3.22728 -5.40375,-4.02071 -1.47064,-1.05294 -2.14028,-2.74793 -2.47923,-6.27545 -0.77786,-8.09544 0.32157,-11.30239 5.85189,-17.06945 2.7492,-2.86688 6.40339,-6.86139 8.12041,-8.87669 10.88134,-12.771612 34.2154,-9.851373 40.51507,5.07043 0.7619,1.80469 3.15502,4.96875 5.31804,7.03125 7.39,7.04655 10.47555,18.59898 7.35701,27.54484 -0.98714,2.8317 -0.81872,3.21654 3.36514,7.68942 4.30497,4.60237 4.39347,4.8184 3.92453,9.58089 -0.26387,2.67979 -0.75942,6.16197 -1.10124,7.73817 -0.44495,2.0519 -0.19939,3.21612 0.86462,4.09918 0.81735,0.67833 1.48609,2.5847 1.48609,4.23637 0,6.24161 -7.78617,9.42113 -12.02408,4.91008 z m -66.43689,-1.57801 c -4.81402,-1.96532 -6.73992,-8.36059 -4.07871,-13.54406 1.85785,-3.61866 1.86088,-3.73951 0.14132,-5.625 -7.33143,-8.03886 -6.59252,-22.26626 1.48648,-28.6212 l 2.57794,-2.02781 1.10699,3.11106 c 0.74724,2.10004 0.95201,7.3764 0.63012,16.23607 -0.37526,10.32807 -0.13617,14.62335 1.12195,20.15625 0.87935,3.86719 1.66235,7.86184 1.73998,8.87699 0.16049,2.09867 -1.71186,2.66826 -4.72607,1.4377 z"
       id="path4150"
       inkscape:connector-curvature="0" />
    <path
       style="fill:#957962"
       d="m 390.25283,193.32479 c -0.86008,-0.56403 -0.53969,-1.65955 1.25988,-4.30785 1.32731,-1.95331 3.29547,-5.51948 4.37369,-7.92483 l 1.96042,-4.37336 0.68901,3.25869 c 0.37895,1.79228 1.65073,4.03745 2.82616,4.98926 1.67764,1.35847 1.92448,2.06883 1.14798,3.30381 -2.05978,3.27599 -9.98526,6.5441 -12.25714,5.05428 z"
       id="path4148"
       inkscape:connector-curvature="0" />
  </g>
</svg>
