<?xml version="1.0" encoding="UTF-8" standalone="no"?>
<!-- Created with Inkscape (http://www.inkscape.org/) -->

<svg
   xmlns:dc="http://purl.org/dc/elements/1.1/"
   xmlns:cc="http://creativecommons.org/ns#"
   xmlns:rdf="http://www.w3.org/1999/02/22-rdf-syntax-ns#"
   xmlns:svg="http://www.w3.org/2000/svg"
   xmlns="http://www.w3.org/2000/svg"
   xmlns:sodipodi="http://sodipodi.sourceforge.net/DTD/sodipodi-0.dtd"
   xmlns:inkscape="http://www.inkscape.org/namespaces/inkscape"
   id="svg3336"
   version="1.1"
   inkscape:version="0.91 r13725"
   width="84.575134"
   height="84.32547"
   viewBox="0 0 84.575134 84.32547"
   sodipodi:docname="option.svg">
  <metadata
     id="metadata3342">
    <rdf:RDF>
      <cc:Work
         rdf:about="">
        <dc:format>image/svg+xml</dc:format>
        <dc:type
           rdf:resource="http://purl.org/dc/dcmitype/StillImage" />
        <dc:title></dc:title>
      </cc:Work>
    </rdf:RDF>
  </metadata>
  <defs
     id="defs3340" />
  <sodipodi:namedview
     pagecolor="#ffffff"
     bordercolor="#666666"
     borderopacity="1"
     objecttolerance="10"
     gridtolerance="10"
     guidetolerance="10"
     inkscape:pageopacity="0"
     inkscape:pageshadow="2"
     inkscape:window-width="2560"
     inkscape:window-height="1061"
     id="namedview3338"
     showgrid="false"
     fit-margin-top="0"
     fit-margin-left="0"
     fit-margin-right="0"
     fit-margin-bottom="0"
     inkscape:zoom="9.5253333"
     inkscape:cx="42.387636"
     inkscape:cy="42.137972"
     inkscape:window-x="-4"
     inkscape:window-y="-4"
     inkscape:window-maximized="1"
     inkscape:current-layer="svg3336" />
  <g
     id="g3364"
     transform="translate(-4.4873636,-4.6875)">
    <path
       style="fill:#d0d0d0"
       d="M 40.927783,88.000748 C 39.977127,87.448145 38.60346,85.569927 37.87519,83.826933 36.275256,79.997751 32.948736,78.829106 29.842348,81.004905 26.317962,83.473481 22.903604,82.859323 18.609384,78.984375 12.20245,73.202989 11.275461,69.039622 15.181417,63.58843 c 1.74599,-2.436721 -0.412444,-6.40093 -3.485182,-6.40093 -1.323554,0 -3.4419736,-1.035511 -4.7075986,-2.301136 -3.3308515,-3.330852 -3.3308515,-11.754376 0,-15.085228 C 8.2542614,38.535511 10.279261,37.5 11.488636,37.5 c 4.65852,0 5.706679,-3.837249 2.476019,-9.064566 -2.631154,-4.257298 -1.825231,-8.362363 2.456476,-12.512357 3.690169,-3.576653 7.935417,-4.153131 13.368342,-1.815339 3.803376,1.636597 5.908731,0.55251 6.983732,-3.596056 1.118297,-4.3156504 3.92126,-5.824182 10.821758,-5.824182 5.043675,0 6.270964,0.3432 8.228901,2.3011364 1.265625,1.265625 2.301136,3.3840446 2.301136,4.7075986 0,3.939858 3.590083,4.939777 8.756333,2.438838 3.89818,-1.887076 4.456186,-1.936167 7.508999,-0.660621 3.941463,1.646848 8.422168,7.96387 8.422168,11.873804 0,1.513901 -0.737026,3.566951 -1.637835,4.562334 -2.46033,2.718634 -1.55498,5.920331 2.170253,7.674917 4.505968,2.122315 5.717582,4.237186 5.717582,9.98004 0,4.079537 -0.430983,5.450664 -2.301136,7.320817 -1.265625,1.265625 -3.154338,2.301136 -4.197138,2.301136 -1.042801,0 -2.579797,1.043604 -3.415548,2.31912 -1.424841,2.174584 -1.396974,2.517446 0.447138,5.501282 3.073971,4.97379 2.581351,7.749141 -2.229348,12.55984 -3.992102,3.992102 -4.39078,4.167066 -8.203125,3.600023 -9.029634,-1.343057 -9.472967,-1.256161 -11.107579,2.177153 -0.834975,1.753767 -2.296298,3.757674 -3.247384,4.453125 -2.057899,1.504772 -11.40578,1.641284 -13.880597,0.202705 z M 53.749756,56.735079 c 3.34147,-2.189416 5.620142,-7.458815 4.895592,-11.320997 -0.758728,-4.044368 -5.327562,-8.613202 -9.371931,-9.37193 -8.921923,-1.673764 -16.338846,8.465571 -11.985929,16.385412 3.398379,6.183122 10.688477,8.090648 16.462268,4.307515 z"
       id="path3378"
       inkscape:connector-curvature="0" />
    <path
       style="fill:#afafaf"
       d="m 41.701281,88.015073 c -1.040858,-0.506291 -2.728358,-2.476665 -3.75,-4.378611 -2.179049,-4.05664 -4.097547,-4.6567 -8.384419,-2.622446 -5.004757,2.374912 -6.946941,1.873762 -11.88829,-3.067588 -5.07679,-5.076788 -5.833312,-8.459453 -2.974349,-13.299293 1.286539,-2.177936 1.37714,-3.116938 0.48885,-5.066524 C 14.593366,58.264401 13.480691,57.1875 12.720461,57.1875 8.0020837,57.1875 4.6875,53.125744 4.6875,47.34375 4.6875,41.583145 8.0022364,37.5 12.67875,37.5 c 0.737289,0 2.046063,-1.076786 2.908386,-2.392857 1.491779,-2.276742 1.469027,-2.526536 -0.468859,-5.147668 -1.120195,-1.515146 -2.291872,-4.030575 -2.603725,-5.589843 -0.497125,-2.485623 0.009,-3.411037 4.106542,-7.508583 5.240947,-5.240946 7.888298,-5.843811 11.878598,-2.705041 2.860926,2.250404 6.874537,1.821828 7.722078,-0.82457 C 38.545575,6.0754948 40.33148,4.6875 47.34375,4.6875 c 6.716712,0 10.78125,3.0284312 10.78125,8.032961 0,0.76023 1.076901,1.872905 2.393111,2.472612 1.949586,0.88829 2.888588,0.797689 5.066524,-0.48885 1.470377,-0.868573 4.136622,-1.579223 5.924989,-1.579223 2.650211,0 3.967204,0.776365 7.120976,4.197803 4.277917,4.640992 5.056392,8.690329 2.399844,12.483083 -2.244473,3.204434 -1.344328,6.036135 2.588104,8.141723 3.910613,2.093907 5.443952,4.740417 5.443952,9.396141 0,4.870951 -1.74368,7.712619 -5.70517,9.297694 -5.151282,2.061134 -6.027111,4.250542 -3.579117,8.947122 2.433675,4.669107 1.867076,7.747427 -2.205017,11.979805 -3.643931,3.787363 -8.207387,4.818024 -11.571885,2.613521 -3.591188,-2.353037 -6.671924,-1.199351 -8.412297,3.150269 -0.816042,2.039488 -2.454019,4.062404 -3.777729,4.665527 -2.813342,1.281843 -9.490753,1.291429 -12.110004,0.01738 z M 54.083715,56.68868 c 5.500801,-3.604263 6.167839,-12.518857 1.3009,-17.385795 -5.417062,-5.417064 -14.285894,-3.979138 -18.083664,2.931948 -5.696186,10.365779 6.71224,21.052307 16.782764,14.453847 z"
       id="path3376"
       inkscape:connector-curvature="0" />
    <path
       style="fill:#919191"
       d="m 41.925838,88.034637 c -0.917351,-0.533966 -2.715612,-2.630512 -3.996135,-4.658992 -2.557428,-4.051228 -4.203795,-4.467791 -8.731275,-2.209186 -4.23106,2.11073 -7.786565,0.990619 -12.25981,-3.862279 -4.279472,-4.642678 -4.898204,-8.147574 -2.234395,-12.657045 1.969769,-3.334553 0.549289,-7.459635 -2.568739,-7.459635 -1.081968,0 -3.2003879,-1.233173 -4.7075994,-2.740385 -3.9206946,-3.920694 -3.9206946,-10.286036 0,-14.20673 C 8.9350961,38.733173 11.034745,37.5 12.093773,37.5 c 1.059026,0 2.578209,-0.996156 3.37596,-2.213678 1.34684,-2.055538 1.278346,-2.545419 -0.958785,-6.857391 -2.921494,-5.631053 -2.403083,-7.694856 3.205733,-12.762084 4.473579,-4.041611 5.596446,-4.196125 10.493285,-1.443947 3.025658,1.700515 4.010702,1.858068 5.987019,0.957599 1.435051,-0.653853 2.365515,-1.851596 2.365515,-3.045015 0,-1.081968 1.233173,-3.2003879 2.740385,-4.7075994 C 41.685472,5.045297 42.735323,4.6875 47.34375,4.6875 c 4.608427,0 5.658278,0.357797 8.040865,2.7403846 1.507212,1.5072115 2.740385,3.6256314 2.740385,4.7075994 0,3.118028 4.125082,4.538508 7.459635,2.568739 4.693222,-2.772353 8.224535,-2.079264 12.81997,2.516172 C 81.652976,20.468766 82.5,21.982882 82.5,24.54121 c 0,1.773983 -0.619395,4.044336 -1.376435,5.045231 -2.450003,3.239194 -1.748437,5.817846 2.273626,8.356863 4.402703,2.779304 5.665309,4.85078 5.665309,9.294702 0,4.975611 -1.718654,7.80835 -5.70517,9.403438 -5.151282,2.061134 -6.027111,4.250542 -3.579117,8.947122 2.386019,4.577678 1.931363,7.173427 -2.050874,11.708945 -3.560886,4.055625 -8.197741,5.196203 -11.726028,2.884381 -3.591188,-2.353037 -6.671924,-1.199351 -8.412297,3.150269 -0.816042,2.039488 -2.454019,4.062404 -3.777729,4.665527 -2.893975,1.318583 -9.647533,1.339578 -11.885447,0.03695 z M 55.660915,55.396778 c 2.56945,-2.56945 2.932835,-3.567241 2.932835,-8.053028 0,-4.532805 -0.351605,-5.471798 -3.064904,-8.185096 -2.713299,-2.713299 -3.652291,-3.064904 -8.185096,-3.064904 -4.532805,0 -5.471798,0.351605 -8.185096,3.064904 -2.704801,2.704801 -3.064904,3.659732 -3.064904,8.127596 0,4.102724 0.444412,5.540867 2.34375,7.584495 3.178864,3.420358 5.360174,4.237052 10.192165,3.815998 3.0551,-0.266218 4.845014,-1.10373 7.03125,-3.289966 z"
       id="path3374"
       inkscape:connector-curvature="0" />
    <path
       style="fill:#717171"
       d="m 41.925838,88.034637 c -0.917351,-0.533966 -2.715612,-2.630512 -3.996135,-4.658992 -2.579198,-4.085713 -4.479775,-4.550722 -9.014732,-2.205605 -1.582549,0.818368 -3.8393,1.238487 -5.037439,0.937774 C 19.295462,80.957787 13.125,73.893442 13.125,69.797615 c 0,-0.850024 0.690906,-3.001473 1.535345,-4.780997 1.871199,-3.94326 0.618025,-7.829118 -2.524861,-7.829118 -1.081968,0 -3.2003879,-1.233173 -4.7075994,-2.740385 -3.9206946,-3.920694 -3.9206946,-10.286036 0,-14.20673 C 8.9350961,38.733173 11.034745,37.5 12.093773,37.5 c 1.059026,0 2.583224,-1.003809 3.387105,-2.230687 1.361282,-2.077579 1.297608,-2.539116 -0.927698,-6.724341 -2.757158,-5.185502 -2.489891,-7.052309 1.631242,-11.393911 4.270701,-4.499172 7.213125,-5.211928 11.914192,-2.886025 3.154973,1.560957 4.317824,1.726734 6.175388,0.880371 1.367979,-0.623293 2.288498,-1.833996 2.288498,-3.009923 0,-1.081968 1.233173,-3.2003879 2.740385,-4.7075994 C 41.685472,5.045297 42.735323,4.6875 47.34375,4.6875 c 4.608427,0 5.658278,0.357797 8.040865,2.7403846 1.507212,1.5072115 2.740385,3.6256314 2.740385,4.7075994 0,3.118028 4.125082,4.538508 7.459635,2.568739 4.330409,-2.558035 7.981036,-2.023199 12.198655,1.787168 4.562816,4.12223 5.581077,8.122475 3.294269,12.941563 C 79.2783,33.224611 79.831425,37.5 82.121227,37.5 c 0.803277,0 2.693677,1.233173 4.200888,2.740385 2.243723,2.243722 2.740385,3.531123 2.740385,7.103365 0,3.572242 -0.496662,4.859643 -2.740385,7.103365 -1.507211,1.507212 -3.395923,2.740385 -4.197138,2.740385 -0.801213,0 -2.125351,1.020411 -2.942528,2.267579 -1.380542,2.106975 -1.343603,2.546259 0.521541,6.202243 2.46213,4.826174 1.931967,7.581721 -2.26649,11.780178 -3.974935,3.974935 -7.011473,4.711715 -11.20918,2.719772 -4.234859,-2.009572 -6.852528,-1.159363 -8.488966,2.757185 -0.71021,1.699772 -2.273475,3.778443 -3.473922,4.619268 -2.450439,1.716355 -9.742891,2.012383 -12.339594,0.500912 z M 55.660915,55.396778 c 2.56945,-2.56945 2.932835,-3.567241 2.932835,-8.053028 0,-4.532805 -0.351605,-5.471798 -3.064904,-8.185096 -2.713299,-2.713299 -3.652291,-3.064904 -8.185096,-3.064904 -4.532805,0 -5.471798,0.351605 -8.185096,3.064904 -2.704801,2.704801 -3.064904,3.659732 -3.064904,8.127596 0,4.102724 0.444412,5.540867 2.34375,7.584495 3.178864,3.420358 5.360174,4.237052 10.192165,3.815998 3.0551,-0.266218 4.845014,-1.10373 7.03125,-3.289966 z"
       id="path3372"
       inkscape:connector-curvature="0" />
    <path
       style="fill:#535353"
       d="m 41.925838,88.034637 c -0.917351,-0.533966 -2.715612,-2.630512 -3.996135,-4.658992 -2.602863,-4.1232 -4.281248,-4.503511 -9.304146,-2.108259 -3.089654,1.473354 -3.532577,1.475205 -6.568538,0.02746 C 18.432396,79.56638 13.125,72.902027 13.125,70.079148 c 0,-1.004867 0.690906,-3.283006 1.535345,-5.06253 1.871199,-3.94326 0.618025,-7.829118 -2.524861,-7.829118 -1.081968,0 -3.2003879,-1.233173 -4.7075994,-2.740385 -3.9206946,-3.920694 -3.9206946,-10.286036 0,-14.20673 C 8.9350961,38.733173 11.034745,37.5 12.093773,37.5 c 1.059026,0 2.609298,-1.043604 3.445049,-2.31912 1.424841,-2.174584 1.396974,-2.517446 -0.447138,-5.501282 -3.077114,-4.978876 -2.60299,-8.638881 1.673022,-12.914892 4.118961,-4.118961 7.809953,-4.735359 12.338159,-2.060483 3.334553,1.969769 7.459635,0.549289 7.459635,-2.568739 0,-1.081968 1.233173,-3.2003879 2.740385,-4.7075994 C 41.685472,5.045297 42.735323,4.6875 47.34375,4.6875 c 4.608427,0 5.658278,0.357797 8.040865,2.7403846 1.507212,1.5072115 2.740385,3.5322114 2.740385,4.5000004 0,3.961941 4.696935,5.275204 8.935098,2.498253 3.403576,-2.230108 8.096816,-1.031454 11.604741,2.963851 4.095668,4.664708 4.543459,7.412309 1.974461,12.115084 -1.766297,3.23336 -1.946292,4.261701 -1.041773,5.951812 C 80.19892,36.580598 81.341391,37.5 82.13635,37.5 c 0.794959,0 2.678554,1.233173 4.185765,2.740385 2.189734,2.189733 2.740385,3.560672 2.740385,6.82265 0,4.920573 -1.960228,7.989038 -6.24818,9.780658 -4.23872,1.771051 -5.759359,5.039061 -3.707696,7.968222 3.603978,5.145398 0.592841,13.089852 -5.995751,15.818937 -2.435824,1.008951 -3.405499,0.942636 -6.478392,-0.443045 -4.580062,-2.065321 -7.230446,-1.252708 -8.893127,2.72665 -0.71021,1.699772 -2.273475,3.778443 -3.473922,4.619268 -2.450439,1.716355 -9.742891,2.012383 -12.339594,0.500912 z M 55.422794,55.422794 C 58.62589,52.219698 59.0625,51.250557 59.0625,47.34375 c 0,-3.906807 -0.43661,-4.875948 -3.639706,-8.079044 C 52.219698,36.06161 51.250557,35.625 47.34375,35.625 c -6.491247,0 -11.71875,5.227503 -11.71875,11.71875 0,3.906807 0.43661,4.875948 3.639706,8.079044 3.203096,3.203096 4.172237,3.639706 8.079044,3.639706 3.906807,0 4.875948,-0.43661 8.079044,-3.639706 z"
       id="path3370"
       inkscape:connector-curvature="0" />
    <path
       style="fill:#303030"
       d="m 42.1875,87.865706 c -1.289063,-0.643034 -2.952561,-2.547662 -3.696662,-4.232506 -1.547789,-3.504603 -4.671581,-4.705375 -8.135333,-3.127184 -5.003764,2.279868 -8.234328,1.379452 -12.883466,-3.590853 -4.58813,-4.905082 -5.357256,-7.721168 -2.970604,-10.876604 1.699393,-2.2468 1.839043,-6.412034 0.258946,-7.723397 C 14.112965,57.777854 12.456513,57.055443 11.079377,56.709803 6.9034619,55.661716 5.15625,52.898904 5.15625,47.34375 c 0,-5.886134 1.6058099,-8.107487 7.037249,-9.734785 4.710749,-1.411375 5.801055,-4.48369 2.900009,-8.171773 -3.193557,-4.059949 -2.624234,-8.377054 1.671198,-12.672486 4.004678,-4.004678 8.460072,-4.853178 11.884235,-2.263271 3.793254,2.869072 7.156528,1.497488 8.391256,-3.422058 1.104594,-4.4010556 3.752308,-5.923127 10.303553,-5.923127 6.889286,0 8.973371,1.3667796 10.658049,6.989734 1.407215,4.696863 3.77898,5.519579 8.140753,2.823856 4.143805,-2.561013 8.475656,-1.946493 11.859935,1.68246 4.93566,5.292495 5.636326,8.834573 2.529005,12.784892 -2.738217,3.48108 -1.767803,6.674288 2.664321,8.767104 4.385236,2.070676 6.05658,5.188653 5.547626,10.349373 -0.464039,4.705275 -2.527737,7.348976 -6.400698,8.199621 -3.925925,0.862277 -5.385826,4.357685 -3.296964,7.893845 2.725588,4.614053 2.07475,8.550969 -2.085136,12.612989 -3.423036,3.342504 -3.9324,3.538505 -7.734375,2.976141 -9.286835,-1.373649 -9.492142,-1.32533 -11.610312,2.732485 -1.07662,2.0625 -2.984552,4.271124 -4.239847,4.908054 -2.932502,1.487935 -8.194024,1.482716 -11.188607,-0.0111 z M 55.422794,55.422794 C 58.62589,52.219698 59.0625,51.250557 59.0625,47.34375 c 0,-3.906807 -0.43661,-4.875948 -3.639706,-8.079044 C 52.219698,36.06161 51.250557,35.625 47.34375,35.625 c -6.491247,0 -11.71875,5.227503 -11.71875,11.71875 0,3.906807 0.43661,4.875948 3.639706,8.079044 3.203096,3.203096 4.172237,3.639706 8.079044,3.639706 3.906807,0 4.875948,-0.43661 8.079044,-3.639706 z"
       id="path3368"
       inkscape:connector-curvature="0" />
    <path
       style="fill:#000000"
       d="m 42.511357,87.702435 c -1.626568,-0.70767 -3.258498,-2.273188 -3.626514,-3.478929 -1.564449,-5.125653 -5.563757,-6.862184 -9.298402,-4.037441 -3.241882,2.452036 -6.795468,1.68326 -11.265621,-2.437183 -5.210731,-4.803084 -6.074725,-8.13672 -3.280571,-12.657755 2.696109,-4.362397 1.668438,-6.725951 -3.803264,-8.74718 C 5.8452665,54.352264 3.7786767,49.855287 5.5453353,43.958707 6.4619419,40.899346 7.3487152,39.905274 10.137526,38.810864 12.03845,38.064887 14.226563,37.105812 15,36.679588 c 2.237686,-1.233141 2.207996,-5.36761 -0.06058,-8.436022 -2.617968,-3.540991 -1.929647,-8.134195 1.746794,-11.656449 3.817493,-3.65739 8.058095,-4.234807 11.641875,-1.585205 4.105741,3.035505 7.167577,1.802937 8.970221,-3.61104 C 38.739792,7.0615915 42.297523,4.6875 47.34375,4.6875 c 5.046227,0 8.603958,2.3740915 10.045439,6.703373 1.644399,4.938707 5.200924,6.824413 8.034563,4.260004 0.951792,-0.86136 3.08022,-1.836047 4.72984,-2.165971 2.696705,-0.539341 3.482936,-0.116235 7.792836,4.193666 4.309901,4.3099 4.733007,5.096131 4.193666,7.792836 -0.329924,1.64962 -1.227665,3.693024 -1.994979,4.540895 -2.924575,3.23162 -1.247334,6.730776 4.37088,9.118774 3.476767,1.477786 5.145011,6.736884 3.683936,11.613517 -0.893368,2.981795 -1.875001,4.005555 -5.503004,5.739164 -4.961506,2.370812 -6.175719,5.574459 -3.539345,9.338409 2.533446,3.617001 1.847176,7.143663 -2.172288,11.163127 -3.890698,3.890698 -7.230157,4.627017 -11.715799,2.583222 -3.733106,-1.700917 -6.83963,-0.364167 -8.111798,3.490539 -1.752984,5.311591 -8.322962,7.394493 -14.64634,4.64338 z m 11.75697,-30.438977 c 3.730107,-2.65607 6.059135,-7.880243 5.305085,-11.899678 -0.779246,-4.153737 -6.095955,-9.470446 -10.249692,-10.249692 -6.814314,-1.278372 -14.164561,5.06782 -14.164561,12.229662 0,9.821697 11.131637,15.600211 19.109168,9.919708 z"
       id="path3366"
       inkscape:connector-curvature="0" />
  </g>
</svg>
