<?xml version="1.0" encoding="UTF-8" standalone="no"?>
<!-- Created with Inkscape (http://www.inkscape.org/) -->

<svg
   xmlns:dc="http://purl.org/dc/elements/1.1/"
   xmlns:cc="http://creativecommons.org/ns#"
   xmlns:rdf="http://www.w3.org/1999/02/22-rdf-syntax-ns#"
   xmlns:svg="http://www.w3.org/2000/svg"
   xmlns="http://www.w3.org/2000/svg"
   xmlns:sodipodi="http://sodipodi.sourceforge.net/DTD/sodipodi-0.dtd"
   xmlns:inkscape="http://www.inkscape.org/namespaces/inkscape"
   id="svg3336"
   version="1.1"
   inkscape:version="0.91 r13725"
   width="101.62164"
   height="102.04849"
   viewBox="0 0 101.62164 102.04849"
   sodipodi:docname="option.svg">
  <metadata
     id="metadata3342">
    <rdf:RDF>
      <cc:Work
         rdf:about="">
        <dc:format>image/svg+xml</dc:format>
        <dc:type
           rdf:resource="http://purl.org/dc/dcmitype/StillImage" />
        <dc:title />
      </cc:Work>
    </rdf:RDF>
  </metadata>
  <defs
     id="defs3340">
    <filter
       inkscape:label="Eroded Metal"
       inkscape:menu="Materials"
       inkscape:menu-tooltip="Eroded metal texture with ridges, grooves, holes and bumps"
       style="color-interpolation-filters:sRGB"
       id="filter7240">
      <feGaussianBlur
         result="result0"
         in="SourceGraphic"
         stdDeviation="1"
         id="feGaussianBlur7242" />
      <feTurbulence
         type="turbulence"
         baseFrequency="0.057"
         seed="4"
         numOctaves="4"
         result="result1"
         id="feTurbulence7244" />
      <feDisplacementMap
         xChannelSelector="R"
         in2="result1"
         result="result91"
         id="feDisplacementMap7246"
         scale="0"
         yChannelSelector="A" />
      <feComposite
         result="result2"
         operator="out"
         in="result0"
         in2="result91"
         id="feComposite7248" />
      <feComposite
         k1="0.1"
         k3="1.2"
         in2="result2"
         in="SourceAlpha"
         operator="arithmetic"
         result="result5"
         id="feComposite7250"
         k2="0"
         k4="0" />
      <feBlend
         result="fbSourceGraphic"
         mode="multiply"
         in2="result5"
         id="feBlend7252" />
      <feGaussianBlur
         stdDeviation="3"
         in="fbSourceGraphic"
         result="result0"
         id="feGaussianBlur7254" />
      <feSpecularLighting
         in="result0"
         result="result1"
         lighting-color="#fee65d"
         surfaceScale="3"
         specularConstant="0.40000001"
         specularExponent="15"
         id="feSpecularLighting7256">
        <fePointLight
           x="-5000"
           y="-10000"
           z="20000"
           id="fePointLight7258" />
      </feSpecularLighting>
      <feComposite
         in2="fbSourceGraphic"
         in="result1"
         result="result2"
         operator="in"
         id="feComposite7260" />
      <feComposite
         k1="-1"
         in="fbSourceGraphic"
         result="result4"
         operator="arithmetic"
         k2="2.5"
         k3="3.5"
         in2="result2"
         id="feComposite7262"
         k4="0" />
      <feBlend
         mode="multiply"
         in2="result4"
         id="feBlend7264" />
    </filter>
  </defs>
  <sodipodi:namedview
     pagecolor="#ffffff"
     bordercolor="#666666"
     borderopacity="1"
     objecttolerance="10"
     gridtolerance="10"
     guidetolerance="10"
     inkscape:pageopacity="0"
     inkscape:pageshadow="2"
     inkscape:window-width="2560"
     inkscape:window-height="1061"
     id="namedview3338"
     showgrid="false"
     fit-margin-top="0"
     fit-margin-left="0"
     fit-margin-right="0"
     fit-margin-bottom="0"
     inkscape:zoom="4.7626667"
     inkscape:cx="4.7096978"
     inkscape:cy="63.01201"
     inkscape:window-x="-4"
     inkscape:window-y="-4"
     inkscape:window-maximized="1"
     inkscape:current-layer="svg3336" />
  <g
     id="g3364"
     transform="translate(3.9437096,4.2162985)"
     style="fill:#724929;fill-opacity:0.53892213;filter:url(#filter7240)">
    <path
       style="fill:#724929;fill-opacity:0.53892213"
       d="M 40.927783,88.000748 C 39.463995,82.568146 32.661936,79.414536 27.569923,81.807704 21.191465,82.634125 14.614654,78.046913 13.186705,71.775656 16.297442,65.833047 13.47276,57.62706 7.3633533,54.858228 2.56086,50.48812 4.194069,41.380575 10.21582,38.951522 c 4.103326,-3.313143 5.411715,-9.592001 2.973236,-14.268327 -1.21093,-6.906433 6.606148,-13.430039 13.184436,-11.002841 5.910951,0.446524 11.947377,-2.503418 15.227041,-7.4412828 4.899695,-3.5866177 12.780874,-1.5361153 15.311294,3.9836508 3.591718,3.716148 9.409108,5.064791 14.269586,3.308098 7.079711,-0.394842 12.929578,7.835796 10.229112,14.392144 -0.492592,5.600866 2.064989,11.366503 6.54757,14.760438 2.799386,4.690352 0.621556,11.533527 -4.37376,13.743229 -3.612035,4.493265 -4.892455,10.75368 -3.335021,16.304372 -1.106163,5.752086 -7.745656,9.667274 -13.314541,7.85134 -8.213085,1.757169 -15.031149,7.651407 -23.512622,8.462044 -0.878995,-0.214261 -1.729027,-0.558964 -2.494368,-1.043639 z M 53.749756,56.735079 c 7.391761,-5.843945 3.433921,-19.826283 -5.924167,-20.929016 -9.746552,0.330919 -14.476537,14.937169 -6.774142,20.918631 3.681,2.582183 9.062457,2.794678 12.698309,0.01038 z"
       id="path3378"
       inkscape:connector-curvature="0" />
    <path
       style="fill:#724929;fill-opacity:0.53892213"
       d="M 41.701281,88.015073 C 39.550552,82.493294 32.529939,79.536043 27.076587,81.854798 20.059805,82.800957 13.14402,76.2574 13.70092,69.19905 16.839295,64.264089 13.978223,56.772833 8.3491642,55.186345 2.7829796,51.305123 4.1224022,41.321551 10.514768,39.04472 14.922758,35.802283 16.238395,29.090948 13.38086,24.42423 12.45777,17.205354 21.04897,10.908526 27.655,13.962153 c 5.42965,0.71379 11.125392,-2.39034 13.468416,-7.3401724 4.753915,-4.3219397 13.46692,-2.3629215 15.913366,3.5779344 3.779411,4.134546 10.107254,5.68747 15.371328,3.772271 6.476715,0.215033 11.313479,7.903315 8.703601,13.834807 -0.752904,5.702051 1.944933,11.708556 6.70735,14.933398 3.025384,4.438247 0.833845,11.368612 -4.193262,13.26048 -4.08025,3.841989 -5.42074,10.283802 -3.211822,15.434527 0.06421,6.18801 -7.234685,11.027407 -12.90963,8.559504 -5.740825,0.01508 -11.399301,2.856695 -14.840001,7.452191 -3.222577,2.038655 -7.573711,2.447324 -10.963065,0.56798 z M 54.083715,56.68868 c 7.214481,-6.136964 2.744129,-20.038764 -6.695153,-20.820438 -9.600941,0.774534 -13.813564,15.222156 -6.133499,21.035467 3.81976,2.41567 9.128949,2.48094 12.828652,-0.215029 z"
       id="path3376"
       inkscape:connector-curvature="0" />
    <path
       style="fill:#724929;fill-opacity:0.53892213"
       d="M 41.925838,88.034637 C 39.713083,82.431498 32.598577,79.426661 27.039219,81.747219 20.000526,82.593051 13.109013,76.140728 13.490182,69.06165 16.858958,64.29111 14.19076,56.657669 8.5836517,55.024564 3.7059005,52.073723 3.0945478,44.211577 7.4575172,40.542188 13.44185,39.606046 16.982044,31.833738 13.76046,26.704411 c -2.072325,-6.002617 2.757068,-13.205559 9.096989,-13.567973 5.619753,3.224488 13.6875,0.530355 16.242125,-5.4238732 4.690298,-5.2677762 14.542261,-3.7971796 17.489742,2.6106842 3.582368,3.81275 9.508951,5.185519 14.402825,3.33606 7.131171,-0.157245 12.832212,8.145878 10.123846,14.744596 -0.302764,5.63661 2.353435,11.340471 6.862435,14.736337 2.452234,4.996156 -0.198715,11.754024 -5.393902,13.750283 -3.196599,4.474143 -4.09733,10.493503 -2.350639,15.70743 -0.78625,5.664711 -7.408351,9.606234 -12.762564,7.596373 -5.631005,0.207833 -11.109884,2.991718 -14.59839,7.416741 -3.246378,1.966783 -7.599565,2.392324 -10.947089,0.423568 z M 55.660915,55.396778 c 6.213151,-7.148834 -0.265454,-20.22433 -9.717102,-19.61162 -9.885107,1.805315 -12.425208,17.715927 -3.30407,22.228455 4.315933,1.87561 9.830897,0.92498 13.021172,-2.616835 z"
       id="path3374"
       inkscape:connector-curvature="0" />
    <path
       style="fill:#724929;fill-opacity:0.53892213"
       d="M 41.925838,88.034637 C 39.828715,82.519973 32.899929,79.487938 27.426152,81.689575 18.90687,82.780324 11.355615,72.868395 14.669156,64.944485 14.134477,59.580283 10.873848,54.56752 6.1869657,51.904143 2.6449136,47.194615 5.6039489,39.354254 11.374393,38.159362 c 4.124591,-3.262688 5.23275,-9.703216 2.435831,-14.156823 -1.00905,-6.790837 7.417802,-12.652199 13.433421,-9.34375 5.707548,0.573267 11.532523,-2.936601 13.773354,-8.2020149 5.031318,-4.0052552 13.552654,-1.7599487 15.957003,4.2045619 3.540237,4.051682 9.762726,5.452275 14.697183,3.306885 6.921637,-0.116777 12.143216,8.348949 9.004559,14.497927 -0.716689,5.712453 3.091396,10.886257 7.497514,14.087444 2.649259,4.718486 -0.05659,11.258803 -4.996805,13.183115 -3.785102,3.524988 -4.787107,9.676845 -2.262858,14.201441 0.48168,6.722972 -7.156271,12.457069 -13.477664,10.118191 -5.557697,-0.233985 -11.137368,2.59572 -14.232329,7.217833 -3.201984,2.344464 -7.810903,2.795992 -11.277764,0.760465 z M 55.660915,55.396778 c 6.213151,-7.148834 -0.265454,-20.22433 -9.717102,-19.61162 -9.885107,1.805315 -12.425208,17.715927 -3.30407,22.228455 4.315933,1.87561 9.830897,0.92498 13.021172,-2.616835 z"
       id="path3372"
       inkscape:connector-curvature="0" />
    <path
       style="fill:#724929;fill-opacity:0.53892213"
       d="M 41.925838,88.034637 C 39.744597,82.433422 32.608837,79.445876 27.08759,81.822271 18.801561,82.665468 11.636758,73.042935 14.819867,65.346373 14.749071,60.006162 11.331049,54.870409 6.4321941,52.743426 2.5348239,48.256453 5.078089,40.139804 10.839077,38.679174 c 4.728075,-2.900378 6.186404,-9.936058 3.000694,-14.476777 -0.849768,-6.964084 7.525987,-12.573552 13.737453,-9.540618 5.124795,0.681033 10.513288,-2.464284 12.379303,-7.2974661 4.883503,-5.2357757 14.970132,-3.0473863 17.244789,3.7414191 3.578242,3.996019 9.783862,5.335151 14.691573,3.170355 6.698924,-0.367798 11.832061,8.081151 8.418782,13.856996 -1.137026,5.119835 1.70436,10.81411 6.479015,12.984003 4.243636,4.118759 2.538626,12.349288 -2.992017,14.443237 -4.413477,3.536466 -5.962808,10.170312 -3.572331,15.295836 0.37866,6.235678 -6.932019,11.378912 -12.67313,8.915843 -5.534115,-0.04635 -10.996169,2.87337 -14.031913,7.500778 -3.346096,2.283178 -8.007895,2.79287 -11.595457,0.761857 z M 55.422794,55.422794 C 62.066417,48.45931 55.742908,34.881885 46.13756,35.486149 35.994309,37.221446 33.402576,53.410805 42.570758,58.154906 c 4.26199,1.931426 9.830703,0.9441 12.852036,-2.732112 z"
       id="path3370"
       inkscape:connector-curvature="0" />
    <path
       style="fill:#724929;fill-opacity:0.53892213"
       d="M 42.1875,87.865706 C 39.86576,82.337326 32.938135,79.309459 27.303685,81.360422 18.953014,82.214839 11.749553,72.47684 15.010476,64.741847 14.472665,59.524553 11.186292,54.678669 6.5381155,52.248902 3.1886187,47.553017 5.8557145,39.993114 11.410337,38.438559 15.629828,35.224871 16.80911,28.708712 13.983568,24.220035 12.90071,17.705769 20.646209,11.788941 26.6464,14.546829 c 5.467919,1.012176 11.401975,-2.063671 13.726873,-7.1151532 4.401899,-4.6928554 13.352414,-3.1151444 15.884444,2.7999572 3.639638,4.548244 10.427268,6.203976 15.752406,3.842534 6.397605,-0.243862 11.396967,7.534187 8.518223,13.252723 -1.030519,5.261478 1.503312,11.01681 6.079858,13.809725 3.602915,4.303445 1.976047,11.751087 -3.093163,14.160185 -3.781271,3.904361 -5.125323,9.974588 -3.345667,15.110235 -0.127744,6.134328 -6.914617,11.049243 -12.782663,9.256946 -6.671274,1.479441 -12.725919,4.923951 -18.167966,8.964661 -2.298908,0.733268 -5.004415,0.66836 -7.031245,-0.762936 z M 55.422794,55.422794 C 62.066417,48.45931 55.742908,34.881885 46.13756,35.486149 35.994309,37.221446 33.402576,53.410805 42.570758,58.154906 c 4.26199,1.931426 9.830703,0.9441 12.852036,-2.732112 z"
       id="path3368"
       inkscape:connector-curvature="0" />
    <path
       style="fill:#724929;fill-opacity:0.53892213"
       d="M 42.511357,87.702435 C 39.837949,81.998491 32.517676,79.042124 26.632937,81.289777 20.339644,81.772148 14.297559,76.269555 14.190924,69.958704 17.161557,64.293365 14.017342,56.418286 7.9616823,54.356801 3.1755959,50.473273 4.7803166,41.586178 10.622355,39.621744 15.437794,36.445176 17.041723,29.333326 14.0559,24.397347 12.976851,17.75067 21.106041,11.870342 27.085054,14.955539 32.478653,15.806039 38.233411,12.700781 40.468,7.7156359 44.686718,2.9476801 53.629406,4.3961208 56.12739,10.251979 c 3.529487,4.495801 10.069733,6.307763 15.409558,4.269195 6.748225,-0.111682 11.97009,7.99273 9.07952,14.091551 -0.304972,5.588624 2.376079,11.243432 6.895464,14.544972 2.302147,4.73438 -0.06019,11.101874 -4.893167,13.189124 -3.674851,3.978902 -4.948242,10.00415 -3.197578,15.129706 -0.353794,5.810749 -7.100708,10.138127 -12.529537,8.036273 -6.36455,1.515778 -12.118697,4.915254 -17.187943,8.972576 -2.347754,0.777724 -5.126391,0.694241 -7.19235,-0.782941 z m 11.75697,-30.438977 c 8.052853,-6.300151 3.40698,-21.554316 -6.790578,-22.296044 -10.170326,0.606558 -15.183907,15.575633 -7.430526,22.185363 4.055012,2.990994 10.216035,3.429657 14.221104,0.110681 z"
       id="path3366"
       inkscape:connector-curvature="0" />
  </g>
</svg>
