<?xml version="1.0" encoding="UTF-8" standalone="no"?>
<!-- Created with Inkscape (http://www.inkscape.org/) -->

<svg
   xmlns:dc="http://purl.org/dc/elements/1.1/"
   xmlns:cc="http://creativecommons.org/ns#"
   xmlns:rdf="http://www.w3.org/1999/02/22-rdf-syntax-ns#"
   xmlns:svg="http://www.w3.org/2000/svg"
   xmlns="http://www.w3.org/2000/svg"
   xmlns:sodipodi="http://sodipodi.sourceforge.net/DTD/sodipodi-0.dtd"
   xmlns:inkscape="http://www.inkscape.org/namespaces/inkscape"
   id="svg4730"
   version="1.1"
   inkscape:version="0.91 r13725"
   width="130.21683"
   height="350.76205"
   viewBox="0 0 130.21683 350.76205"
   sodipodi:docname="p_b.svg">
  <metadata
     id="metadata4736">
    <rdf:RDF>
      <cc:Work
         rdf:about="">
        <dc:format>image/svg+xml</dc:format>
        <dc:type
           rdf:resource="http://purl.org/dc/dcmitype/StillImage" />
        <dc:title></dc:title>
      </cc:Work>
    </rdf:RDF>
  </metadata>
  <defs
     id="defs4734" />
  <sodipodi:namedview
     pagecolor="#ffffff"
     bordercolor="#666666"
     borderopacity="1"
     objecttolerance="10"
     gridtolerance="10"
     guidetolerance="10"
     inkscape:pageopacity="0"
     inkscape:pageshadow="2"
     inkscape:window-width="2560"
     inkscape:window-height="1061"
     id="namedview4732"
     showgrid="false"
     inkscape:zoom="1.9017345"
     inkscape:cx="-226.03392"
     inkscape:cy="186.55979"
     inkscape:window-x="-4"
     inkscape:window-y="-4"
     inkscape:window-maximized="1"
     inkscape:current-layer="svg4730"
     fit-margin-top="0"
     fit-margin-left="0"
     fit-margin-right="0"
     fit-margin-bottom="0" />
  <g
     id="g5280"
     transform="translate(-38,-0.16276315)">
    <path
       style="fill:#e5e7db"
       d="M 75.463832,348.72255 C 72.335278,346.03148 72.403947,346.95074 73.411633,321.25 L 74.205605,301 59.102802,301 C 47.477934,301 44,300.70447 44,299.71665 c 0,-0.70584 3.792358,-20.21537 8.427461,-43.35452 l 8.427461,-42.07119 -2.036067,-7.39547 C 57.699018,202.82796 56.415556,198.6 55.966718,197.5 c -0.448837,-1.1 -1.048985,-3.125 -1.33366,-4.5 -0.284675,-1.375 -1.267904,-5.2 -2.184953,-8.5 -1.207263,-4.34434 -1.664303,-10.00118 -1.656277,-20.5 l 0.01108,-14.5 -6.401455,-5.36119 C 40.880655,141.19016 38,138.36108 38,137.85197 c 0,-0.50911 5.131562,-6.90731 11.403472,-14.21822 l 11.403472,-13.29256 11.219419,0.2055 c 10.993004,0.20136 11.282362,0.14927 14.338445,-2.58134 l 3.119027,-2.78685 -7.227811,-6.932922 C 70.538699,87.006309 66.655045,75.564941 67.067597,53.5 67.223216,45.176877 66.85309,38.978233 66.038781,36.270047 63.655,28.342194 65.144506,24.152808 73.858358,14.276695 82.777537,4.1678695 87.722416,1.0147896 95.793178,0.29005617 105.56537,-0.58746093 114.3868,3.1231058 118.5,9.841246 c 1.1,1.796643 3.9669,5.604853 6.37089,8.462689 8.07061,9.594257 10.86973,18.754406 8.8168,28.853052 -0.67613,3.325985 -0.37494,4.082729 3.32763,8.360713 l 4.07105,4.703727 -0.66958,8.252155 c -0.46267,5.702172 -0.32151,8.46727 0.45682,8.948303 1.37878,0.852136 1.47117,5.065367 0.16461,7.506706 -0.52898,0.98841 -2.28277,2.344279 -3.89731,3.013043 -2.43341,1.00795 -3.509,0.937424 -6.28822,-0.412313 L 127.5,85.901073 l 2.36355,2.051699 c 2.20586,1.914827 2.26089,2.208358 0.82488,4.399985 -0.84626,1.291557 -3.10286,3.090551 -5.01467,3.997764 C 121.8688,98.156093 115,98.583714 115,97.015023 c 0,-0.541738 1.33988,-3.162557 2.97751,-5.824044 1.63763,-2.661486 3.66867,-6.493246 4.51342,-8.515023 1.88385,-4.508696 3.06128,-4.66491 3.89101,-0.516234 0.34757,1.737847 0.83894,2.952727 1.09194,2.699733 C 128.43432,83.899011 126.29212,78.5 124.9506,78.5 c -0.77303,0 -3.08891,3.079691 -5.1464,6.843759 -2.05749,3.764067 -5.35732,8.632954 -7.33295,10.819748 -6.56994,7.272133 -3.93943,10.009153 11.41374,11.875913 8.84757,1.07576 9.41214,1.03007 11.49923,-0.93065 l 2.19486,-2.06196 13.1441,11.2266 c 7.22925,6.17462 13.16614,11.67659 13.19308,12.22659 0.0269,0.55 -2.65599,4.07804 -5.96205,7.8401 -5.2713,5.99834 -5.9459,7.22896 -5.48176,10 4.68911,27.99529 4.6248,29.72372 -1.61621,43.43494 -1.57093,3.45128 -2.85624,6.88184 -2.85624,7.62348 0,0.74164 4.5,23.75973 10,51.15132 5.5,27.39158 10,50.39852 10,51.12652 C 168,300.71732 164.70681,301 152.57959,301 l -15.4204,0 -0.66846,6.75 c -1.43984,14.53937 -4.68555,35.87192 -5.80843,38.17616 -1.79776,3.68913 -6.25832,4.78086 -9.53593,2.33393 -3.45318,-2.57799 -4.01754,-6.08185 -4.08874,-25.38509 -0.0317,-8.59375 -0.33888,-17.03125 -0.68263,-18.75 L 115.75,301 l -10.20361,0 -10.203603,0 -2.145565,10.25 c -1.18006,5.6375 -3.02973,15.51578 -4.110376,21.95173 -2.107019,12.54867 -3.053153,15.17469 -6.044023,16.77535 -2.887721,1.54546 -4.666013,1.25111 -7.578991,-1.25453 z M 69.655441,171.53893 c 0.766168,-4.22698 0.702532,-5.57132 -0.281601,-5.94897 -1.247183,-0.47859 -1.588673,0.20692 -2.780003,5.58058 C 65.9782,173.94745 66.682993,177 67.939782,177 c 0.399193,0 1.171239,-2.45748 1.715659,-5.46107 z M 62.019708,84.715551 c -4.529562,-2.291845 -6.303698,-8.803394 -3.859916,-14.166912 0.988122,-2.16869 0.778524,-3.248789 -1.416027,-7.297053 -5.227377,-9.642888 -4.47653,-17.942152 2.309526,-25.527647 5.750216,-6.427627 6.273618,-5.168861 7.091118,17.053903 0.435097,11.827606 1.254974,20.717948 2.226376,24.141725 0.845709,2.980762 1.306696,5.793262 1.024417,6.25 -0.753014,1.218402 -4.529622,0.985924 -7.375494,-0.454016 z"
       id="path5302"
       inkscape:connector-curvature="0" />
    <path
       style="fill:#bbc3ba"
       d="m 44,299.71457 c 0,-1.3876 15.528381,-79.5797 16.625104,-83.71457 0.60967,-2.29858 0.73414,-2.18176 1.544897,1.44988 1.11596,4.99875 3.408776,7.55012 6.784987,7.55012 5.769628,0 6.463043,-4.11594 2.142961,-12.72009 L 68.195898,206.5 68.542005,190 c 0.19036,-9.075 0.730188,-18.075 1.19962,-20 l 0.853512,-3.5 -16.297569,-13.8682 C 45.333906,145.00429 38,138.35021 38,137.84496 c 0,-0.50526 5.215707,-6.99838 11.590459,-14.42917 10.167451,-11.85179 11.791759,-13.35125 13.230054,-12.21316 0.901778,0.71355 7.905663,6.58487 15.564189,13.04737 7.658527,6.4625 14.229689,11.75 14.602582,11.75 0.372893,0 2.124506,-1.8 3.892475,-4 1.767968,-2.2 3.738751,-4 4.379511,-4 0.64077,0 2.98206,1.78193 5.20288,3.95985 l 4.03785,3.95985 13.32494,-15.47368 13.32494,-15.47368 2.84063,2.26383 c 8.93359,7.1196 23.87828,20.40853 23.91323,21.26383 0.0225,0.55 -5.34667,7.20894 -11.93144,14.79765 C 145.38754,150.88635 140,157.6738 140,158.38087 c 0,0.70706 0.50999,3.82499 1.13331,6.92872 1.01234,5.04083 0.90832,6.16615 -0.97458,10.54306 -1.15933,2.69495 -3.23013,10.19842 -4.60178,16.67438 -1.68222,7.94232 -3.31781,12.96339 -5.02542,15.42747 -1.39234,2.00915 -2.53153,4.34657 -2.53153,5.19426 0,2.52235 3.56214,5.03127 6.63922,4.6762 2.50603,-0.28918 3.25894,-1.33789 6.83843,-9.52509 2.21229,-5.06008 4.50749,-9.68522 5.10044,-10.27809 0.77078,-0.77068 3.9789,13.39669 11.25431,49.70013 5.59692,27.92795 10.17428,51.34059 10.17191,52.02809 C 168.00091,300.73651 154.93104,301 106,301 56.155342,301 44,300.74799 44,299.71457 Z M 115.79771,97.474188 c -0.38626,-0.391655 0.64761,-3.02107 2.29749,-5.843144 C 119.74508,88.80897 121.79747,84.8125 122.65607,82.75 124.4362,78.47383 126,77.853382 126,81.423275 c 0,1.332801 1.20512,3.855481 2.67805,5.605956 2.95502,3.511842 2.64649,4.892716 -1.84196,8.243821 -2.64518,1.974917 -9.84547,3.410708 -11.03838,2.201136 z M 90,89 c 0,-0.583333 3.333333,-1 8,-1 4.66667,0 8,0.416667 8,1 0,0.583333 -3.33333,1 -8,1 -4.666667,0 -8,-0.416667 -8,-1 z m 41.36408,-1.17938 C 129.2221,86.793275 127,83.089976 127,80.547561 127,79.800477 125.425,77.304075 123.5,75 121.575,72.695925 120,70.42156 120,69.945855 c 0,-0.475704 -1.2327,-2.007942 -2.73934,-3.404973 -3.5799,-3.319473 -8.28415,-4.174515 -12.20523,-2.218419 -3.33277,1.662601 -3.56811,1.504004 -2.03077,-1.368532 0.85618,-1.599792 0.35101,-2.523178 -3.072421,-5.616045 -2.25339,-2.035803 -4.973631,-5.419655 -6.04498,-7.519672 -2.136425,-4.187741 -2.798099,-4.374651 -9.31561,-2.631483 -3.808991,1.018749 -4.998374,0.93361 -8.402596,-0.60148 C 69.641582,43.632753 66.374328,39.981868 65.588216,34.739697 64.465768,27.254677 66.267676,22.923884 74.24807,13.926192 84.162871,2.7475047 88.235699,0.5 98.57842,0.5 c 7.2532,0 8.58117,0.31048811 13,3.0394807 2.70687,1.6717144 5.82158,4.5211221 6.92158,6.3320171 1.1,1.8108952 3.9208,5.6181282 6.26846,8.4605192 2.34765,2.842391 5.44493,7.589004 6.88284,10.548029 2.383,4.903887 2.56687,6.141628 2.07754,13.985055 l -0.53685,8.60501 3.37863,3.739733 c 4.2043,4.65366 4.8317,7.07503 3.59552,13.876388 -0.75959,4.179127 -0.66414,5.983858 0.42819,8.096188 1.93341,3.738788 1.77195,5.30315 -0.84433,8.181003 -2.73066,3.003665 -5.53395,3.825071 -8.38592,2.457197 z M 62.887226,84.883461 C 61.450201,84.356207 59.447063,82.388448 58.435809,80.510664 56.800324,77.473751 56.737117,76.55045 57.863764,72.154505 59.067021,67.459641 58.991341,66.94663 56.350415,61.895952 53.131827,55.74052 52.723283,48.369578 55.322145,43.343934 57.289496,39.539496 61.866101,34 63.04189,34 c 1.853159,0 2.947706,8.123064 2.964402,22 0.01153,9.583264 0.518024,16.364969 1.493708,20 2.656454,9.896952 1.935207,11.285958 -4.612774,8.883461 z M 75,64.829085 c 0,-0.505997 1.104545,-2.02454 2.454545,-3.37454 3.827919,-3.827918 11.081577,-3.058343 13.483975,1.430579 0.9417,1.759582 0.798001,1.772275 -3.316007,0.292886 -4.050997,-1.45673 -4.541654,-1.427021 -8.461439,0.512334 C 76.872483,64.822648 75,65.335082 75,64.829085 Z"
       id="path5300"
       inkscape:connector-curvature="0" />
    <path
       style="fill:#859588"
       d="m 43.993193,299.75 c -0.01474,-2.70629 16.255894,-82.30139 16.981921,-83.0747 0.425853,-0.45358 1.076695,0.78733 1.446315,2.75757 1.237508,6.59648 8.528335,8.71858 11.528753,3.3556 1.42787,-2.55219 1.330445,-3.08989 -1.65786,-9.14986 -3.16477,-6.41782 -3.175282,-6.49195 -3.302104,-23.28846 C 68.920244,181.08257 69.252725,171.925 69.729064,170 l 0.866073,-3.5 -16.297569,-13.8682 C 45.333906,145.00429 38,138.35021 38,137.84496 c 0,-0.50526 5.215707,-6.99838 11.590459,-14.42917 10.167451,-11.85179 11.791759,-13.35125 13.230054,-12.21316 0.901778,0.71355 7.905663,6.58487 15.564189,13.04737 7.658527,6.4625 14.229689,11.75 14.602582,11.75 0.372893,0 2.124506,-1.8 3.892475,-4 1.767968,-2.2 3.738751,-4 4.379511,-4 0.64077,0 2.98206,1.78193 5.20288,3.95985 l 4.03785,3.95985 13.32494,-15.47368 13.32494,-15.47368 2.84063,2.26383 c 8.93359,7.1196 23.87828,20.40853 23.91323,21.26383 0.0225,0.55 -5.34667,7.20894 -11.93144,14.79765 -6.58476,7.5887 -11.9613,14.5637 -11.94785,15.5 0.0134,0.93629 0.4821,3.68779 1.04145,6.11443 0.87864,3.81181 0.68608,5.24035 -1.41539,10.5 -1.33782,3.34836 -3.41721,11.03792 -4.62086,17.08792 -1.41572,7.11592 -3.06428,12.34844 -4.66883,14.81889 -3.16903,4.87917 -2.83921,8.69956 0.90527,10.486 1.52136,0.72582 3.54636,1.06334 4.5,0.75004 0.9865,-0.32408 3.64338,-4.76927 6.16365,-10.31228 2.43636,-5.35846 4.69959,-10.07088 5.0294,-10.47204 0.53447,-0.65012 21.08781,98.90221 21.05442,101.97939 C 168.00286,300.73641 154.9261,301 106,301 57.070297,301 43.998565,300.73649 43.993193,299.75 Z M 116.49325,96.989077 c -0.34363,-0.556008 0.92727,-3.593508 2.82423,-6.75 1.89696,-3.156493 3.75895,-6.758111 4.13776,-8.003598 C 124.20166,79.781346 126,80.119951 126,82.714626 c 0,0.878126 1.16332,3.121785 2.58516,4.98591 3.06417,4.017341 2.33972,5.513368 -4.08516,8.43598 -4.52499,2.058371 -7.09255,2.331766 -8.00675,0.852561 z M 92,89 c 0,-0.555556 2.666667,-1 6,-1 3.33333,0 6,0.444444 6,1 0,0.555556 -2.66667,1 -6,1 -3.333333,0 -6,-0.444444 -6,-1 z m 37.7329,-2.75 c -0.86739,-0.9625 -1.88986,-3.1 -2.27214,-4.75 -0.38229,-1.65 -1.93044,-4.584075 -3.44034,-6.520166 -1.5099,-1.936092 -3.73537,-5.46092 -4.94549,-7.832951 -1.57397,-3.085254 -2.6454,-4.141951 -3.76432,-3.712581 -0.86026,0.330112 -2.17267,0.09514 -2.91647,-0.522156 -0.99307,-0.824181 -2.19457,-0.828764 -4.52247,-0.01725 -4.35023,1.516496 -5.35034,1.386799 -3.79135,-0.49167 1.12523,-1.355823 1.03053,-1.760094 -0.62756,-2.679071 -3.02203,-1.674925 -7.394776,-6.69017 -9.597282,-11.007438 -1.661815,-3.257427 -2.36156,-3.800481 -4.175907,-3.240808 -8.736545,2.694965 -14.24275,1.536986 -20.504255,-4.312137 C 66.203657,38.387824 66,37.756553 66,31.321296 66,23.254025 66.45376,22.418024 76.392455,12.174358 84.371052,3.9509362 88.976482,1.1445693 95.818392,0.33695939 105.03818,-0.75133212 115.67648,4.4777367 119.96503,12.205819 c 1.31064,2.3618 4.29796,6.445073 6.63849,9.073942 5.88487,6.609834 7.8349,12.911143 7.01989,22.683905 -0.63451,7.60827 -0.61685,7.684303 2.69266,11.597407 4.37277,5.170284 4.57033,5.883497 3.58407,12.938927 -0.64161,4.589854 -0.49256,6.742387 0.63419,9.158767 C 142.92861,82.793461 139.89049,88 134.5,88 c -1.77066,0 -3.89173,-0.778642 -4.7671,-1.75 z M 60.454545,82.545455 c -2.714326,-2.714327 -3.326869,-8.536806 -1.353696,-12.867449 0.929127,-2.039213 0.676303,-3.057633 -1.620774,-6.528751 -2.90784,-4.394043 -4.1279,-10.882512 -3.0883,-16.424057 C 54.995048,43.509473 61.220278,35 62.969515,35 c 1.627852,0 2.283196,5.772508 2.1087,18.57419 -0.117192,8.597632 0.352223,15.616762 1.370969,20.5 0.852049,4.084196 1.549548,8.21331 1.549998,9.17581 0.0012,2.641571 -4.631104,2.208987 -7.544637,-0.704545 z M 76,64.129284 C 76,62.472328 81.130756,59 83.579095,59 c 1.270158,0 3.571971,1.152155 5.115141,2.560345 2.224885,2.030275 2.353556,2.340821 0.621505,1.5 C 86.144928,61.521078 80.786462,61.760839 78.222506,63.556704 77.000128,64.412891 76,64.670552 76,64.129284 Z"
       id="path5298"
       inkscape:connector-curvature="0" />
    <path
       style="fill:#a56198"
       d="m 43.998189,300.25 c -0.0034,-1.38669 16.09358,-81.73291 16.678687,-83.25 0.375243,-0.97295 0.902818,-0.27021 1.50149,2 1.720979,6.5261 8.134884,9.24626 11.26493,4.77749 2.205855,-3.1493 1.964183,-5.07647 -1.462197,-11.66005 -2.8979,-5.56813 -3.014658,-6.28614 -2.913014,-17.91378 0.05824,-6.66223 -0.159815,-12.54307 -0.484563,-13.06852 -0.324748,-0.52545 0.06531,-4.03332 0.866793,-7.79525 1.19132,-5.59172 1.220311,-7.02237 0.158872,-7.83989 C 64.634894,161.66882 38,138.44964 38,137.94443 c 0,-0.34602 5.22932,-6.7851 11.620712,-14.30905 10.097068,-11.88627 11.83172,-13.51309 13.230054,-12.40764 0.885138,0.69974 7.87541,6.55976 15.533936,13.02226 7.658527,6.4625 14.229689,11.75 14.602582,11.75 0.372893,0 2.124506,-1.8 3.892475,-4 1.767968,-2.2 3.738751,-4 4.379511,-4 0.64077,0 2.98336,1.78455 5.20576,3.96568 l 4.04073,3.96567 12.85773,-14.96567 C 130.43525,112.73455 136.6788,106 137.23805,106 c 0.94202,0 10.42653,7.79945 22.18911,18.2469 l 4.92716,4.37626 -12.17716,14.2514 C 145.47972,150.71283 140,157.7112 140,158.42649 c 0,0.71529 0.43442,3.5912 0.96537,6.3909 0.85012,4.48265 0.67187,5.75402 -1.49302,10.64922 -1.35212,3.05737 -3.43425,10.54749 -4.62697,16.64471 -1.39404,7.12638 -2.99929,12.30997 -4.49443,14.51319 -3.50704,5.1679 -3.88114,7.8453 -1.43761,10.28883 2.81433,2.81433 7.44646,2.73284 9.2849,-0.16334 0.78554,-1.2375 2.95791,-5.77004 4.8275,-10.07231 1.86959,-4.30228 3.68958,-8.00175 4.04441,-8.22105 0.5126,-0.3168 20.93121,98.98876 20.93014,101.79336 C 168.00013,300.6625 140.1,301 106,301 71.9,301 43.999185,300.6625 43.998189,300.25 Z M 117,95.90437 c 0,-0.602596 0.90737,-2.369908 2.01637,-3.92736 1.109,-1.557452 2.86134,-4.719039 3.89409,-7.025749 1.76332,-3.938506 1.92163,-4.049547 2.59856,-1.82264 0.39647,1.304259 1.62606,3.360983 2.73243,4.570498 2.47998,2.711192 1.814,4.686882 -2.45787,7.291419 C 122.2484,97.145924 117,97.69196 117,95.90437 Z M 95,89 c 0,-0.55 1.35,-1 3,-1 1.65,0 3,0.45 3,1 0,0.55 -1.35,1 -3,1 -1.65,0 -3,-0.45 -3,-1 z M 76,64.129284 C 76,62.472328 81.130756,59 83.579095,59 c 1.270158,0 3.571971,1.152155 5.115141,2.560345 2.224885,2.030275 2.353556,2.340821 0.621505,1.5 C 86.144928,61.521078 80.786462,61.760839 78.222506,63.556704 77.000128,64.412891 76,64.670552 76,64.129284 Z m 27.91432,-1.526049 c 0.67185,-0.809523 2.06721,-1.15932 3.3189,-0.831997 2.07178,0.541784 2.08046,0.595771 0.21323,1.326481 -3.35614,1.313371 -4.85802,1.103115 -3.53213,-0.494484 z"
       id="path5296"
       inkscape:connector-curvature="0" />
    <path
       style="fill:#7b8588"
       d="m 43.998189,300.25 c -0.0034,-1.38669 16.09358,-81.73291 16.678687,-83.25 0.375243,-0.97295 0.902818,-0.27021 1.50149,2 1.720979,6.5261 8.134884,9.24626 11.26493,4.77749 2.205855,-3.1493 1.964183,-5.07647 -1.462197,-11.66005 -2.8979,-5.56813 -3.014658,-6.28614 -2.913014,-17.91378 0.05824,-6.66223 -0.159815,-12.54307 -0.484563,-13.06852 -0.324748,-0.52545 0.06531,-4.03332 0.866793,-7.79525 1.19132,-5.59172 1.220311,-7.02237 0.158872,-7.83989 C 64.634894,161.66882 38,138.44964 38,137.94443 c 0,-0.34602 5.22932,-6.7851 11.620712,-14.30905 10.097068,-11.88627 11.83172,-13.51309 13.230054,-12.40764 0.885138,0.69974 7.87541,6.55976 15.533936,13.02226 7.658527,6.4625 14.229689,11.75 14.602582,11.75 0.372893,0 2.124506,-1.8 3.892475,-4 1.767968,-2.2 3.738751,-4 4.379511,-4 0.64077,0 2.98336,1.78455 5.20576,3.96568 l 4.04073,3.96567 12.85773,-14.96567 C 130.43525,112.73455 136.6788,106 137.23805,106 c 0.94202,0 10.42653,7.79945 22.18911,18.2469 l 4.92716,4.37626 -12.17716,14.2514 C 145.47972,150.71283 140,157.7112 140,158.42649 c 0,0.71529 0.43442,3.5912 0.96537,6.3909 0.85012,4.48265 0.67187,5.75402 -1.49302,10.64922 -1.35212,3.05737 -3.43425,10.54749 -4.62697,16.64471 -1.39404,7.12638 -2.99929,12.30997 -4.49443,14.51319 -3.50704,5.1679 -3.88114,7.8453 -1.43761,10.28883 2.81433,2.81433 7.44646,2.73284 9.2849,-0.16334 0.78554,-1.2375 2.95791,-5.77004 4.8275,-10.07231 1.86959,-4.30228 3.68958,-8.00175 4.04441,-8.22105 0.5126,-0.3168 20.93121,98.98876 20.93014,101.79336 C 168.00013,300.6625 140.1,301 106,301 71.9,301 43.999185,300.6625 43.998189,300.25 Z M 117,95.90437 c 0,-0.602596 0.90737,-2.369908 2.01637,-3.92736 1.109,-1.557452 2.86134,-4.719039 3.89409,-7.025749 1.76332,-3.938506 1.92163,-4.049547 2.59856,-1.82264 0.39647,1.304259 1.62606,3.360983 2.73243,4.570498 2.47998,2.711192 1.814,4.686882 -2.45787,7.291419 C 122.2484,97.145924 117,97.69196 117,95.90437 Z M 95,89 c 0,-0.55 1.35,-1 3,-1 1.65,0 3,0.45 3,1 0,0.55 -1.35,1 -3,1 -1.65,0 -3,-0.45 -3,-1 z"
       id="path5294"
       inkscape:connector-curvature="0" />
    <path
       style="fill:#758677"
       d="m 44,300.09154 c 0,-0.84461 15.313512,-76.71557 16.542408,-81.95954 0.668969,-2.85464 1.204363,-2.51201 1.685189,1.07844 0.776972,5.80184 7.489936,8.92917 11.200974,5.21813 2.336008,-2.33601 1.924532,-5.78611 -1.498908,-12.56791 -2.885752,-5.71664 -3.04766,-6.63174 -2.693139,-15.22148 0.207459,-5.02655 0.04763,-10.94501 -0.355173,-13.15213 -0.444482,-2.43549 -0.197297,-6.56295 0.628821,-10.5 0.748656,-3.56788 1.052636,-6.78009 0.67551,-7.13826 C 69.808557,165.49062 62.525,159.28358 54,152.05535 45.475,144.82713 38.5,138.49279 38.5,137.97904 c 0,-1.45287 21.671348,-26.97907 22.904619,-26.97883 0.60246,1.1e-4 7.729769,5.62511 15.838466,12.5 C 85.351782,130.37509 92.418077,136 92.945962,136 c 0.527886,0 2.406311,-1.8 4.174279,-4 1.767969,-2.2 3.525819,-4 3.906329,-4 0.38052,0 2.7134,1.77944 5.18418,3.9543 l 4.49232,3.95431 12.89847,-14.95277 c 7.09415,-8.22403 13.2786,-14.95346 13.74321,-14.95431 1.89804,-0.003 26.63618,22.22211 25.9727,23.33473 -0.38168,0.64006 -5.86173,7.17575 -12.17789,14.52375 l -11.48393,13.36001 1.04008,6.13999 c 0.93996,5.54896 0.80886,6.72424 -1.36191,12.20952 -1.32109,3.33824 -3.43664,11.08083 -4.70123,17.20575 -1.64001,7.94328 -3.097,12.2874 -5.08165,15.15124 -4.27688,6.17154 -1.69202,11.72063 5.07047,10.88513 2.7851,-0.34409 3.59478,-1.53265 9.04093,-13.27137 l 3.69289,-7.95972 10.27802,50.45972 c 5.65292,27.75285 10.29799,51.02222 10.3224,51.70972 C 167.99067,300.73704 154.957,301 106,301 69.498234,301 44,300.62639 44,300.09154 Z M 117,96.562265 c 0,-0.240755 1.79367,-3.728255 3.98593,-7.75 2.19227,-4.021746 3.99227,-6.812561 4,-6.201812 0.008,0.610749 1.1564,2.793765 2.55257,4.851145 2.91688,4.298256 2.29031,5.874753 -3.25638,8.193306 C 121.18631,96.948973 117,97.470592 117,96.562265 Z M 95,89 c 0,-0.55 1.35,-1 3,-1 1.65,0 3,0.45 3,1 0,0.55 -1.35,1 -3,1 -1.65,0 -3,-0.45 -3,-1 z"
       id="path5292"
       inkscape:connector-curvature="0" />
    <path
       style="fill:#737b83"
       d="m 44,300.09154 c 0,-0.84461 15.313512,-76.71557 16.542408,-81.95954 0.668969,-2.85464 1.204363,-2.51201 1.685189,1.07844 0.776972,5.80184 7.489936,8.92917 11.200974,5.21813 2.336008,-2.33601 1.924532,-5.78611 -1.498908,-12.56791 -2.885752,-5.71664 -3.04766,-6.63174 -2.693139,-15.22148 0.207459,-5.02655 0.04763,-10.94501 -0.355173,-13.15213 -0.444482,-2.43549 -0.197297,-6.56295 0.628821,-10.5 0.748656,-3.56788 1.052636,-6.78009 0.67551,-7.13826 C 69.808557,165.49062 62.525,159.28358 54,152.05535 45.475,144.82713 38.5,138.49279 38.5,137.97904 c 0,-1.45287 21.671348,-26.97907 22.904619,-26.97883 0.60246,1.1e-4 7.729769,5.62511 15.838466,12.5 C 85.351782,130.37509 92.418077,136 92.945962,136 c 0.527886,0 2.406311,-1.8 4.174279,-4 1.767969,-2.2 3.525819,-4 3.906329,-4 0.38052,0 2.7134,1.77944 5.18418,3.9543 l 4.49232,3.95431 12.89847,-14.95277 c 7.09415,-8.22403 13.2786,-14.95346 13.74321,-14.95431 1.89804,-0.003 26.63618,22.22211 25.9727,23.33473 -0.38168,0.64006 -5.86173,7.17575 -12.17789,14.52375 l -11.48393,13.36001 1.04008,6.13999 c 0.93996,5.54896 0.80886,6.72424 -1.36191,12.20952 -1.32109,3.33824 -3.43664,11.08083 -4.70123,17.20575 -1.64001,7.94328 -3.097,12.2874 -5.08165,15.15124 -4.27688,6.17154 -1.69202,11.72063 5.07047,10.88513 2.7851,-0.34409 3.59478,-1.53265 9.04093,-13.27137 l 3.69289,-7.95972 10.27802,50.45972 c 5.65292,27.75285 10.29799,51.02222 10.3224,51.70972 C 167.99067,300.73704 154.957,301 106,301 69.498234,301 44,300.62639 44,300.09154 Z"
       id="path5290"
       inkscape:connector-curvature="0" />
    <path
       style="fill:#495562"
       d="m 44.317402,298.75 c 0.29382,-1.2375 3.959048,-19.575 8.144951,-40.75 4.185903,-21.175 8.013832,-39.4 8.506509,-40.5 0.794575,-1.77404 0.903424,-1.68188 0.963458,0.81574 0.09434,3.92473 1.742204,6.61002 4.760563,7.75759 3.522156,1.33913 6.047426,0.32954 7.838346,-3.13372 1.888497,-3.65195 1.937146,-3.37752 -1.737255,-9.79971 l -3.066735,-5.36009 -0.111476,-18.13991 c -0.06131,-9.97694 0.221403,-19.32867 0.628255,-20.78161 0.690462,-2.46577 -0.354838,-3.5647 -15.694826,-16.5 -9.039006,-7.62206 -16.347849,-14.15362 -16.241874,-14.51457 0.400312,-1.36348 22.229757,-26.8059 23.015151,-26.82438 0.452357,-0.0106 7.698884,5.80241 16.103393,12.91789 l 15.280925,12.93724 4.303062,-4.38451 4.303061,-4.3845 4.49978,3.96087 c 5.37322,4.72969 3.56266,5.90494 19.18731,-12.45463 6.325,-7.43212 11.88156,-13.53517 12.34792,-13.56233 0.68112,-0.0397 16.95,13.61814 24.91332,20.91485 1.65863,1.51979 1.04463,2.44599 -10.53972,15.8986 l -12.30094,14.28479 0.95234,5.75845 c 0.84699,5.12136 0.6589,6.5791 -1.70013,13.17619 -1.45887,4.07976 -2.90531,8.99275 -3.21431,10.91775 -1.57513,9.81267 -3.92756,17.8291 -6.06953,20.68328 -3.00925,4.00982 -3.0726,7.72447 -0.16644,9.76002 3.22437,2.25844 10.17704,1.69376 9.87028,-0.80164 -0.12231,-0.99497 7.95832,-17.92545 8.35784,-17.51129 0.1961,0.2033 4.70813,22.19463 10.02674,48.86963 5.3186,26.675 9.91077,49.5125 10.20482,50.75 L 168.21682,301 106,301 l -62.216816,0 0.534218,-2.25 z"
       id="path5288"
       inkscape:connector-curvature="0" />
    <path
       style="fill:#3a444e"
       d="m 60.44257,279.75 c 0.357672,-11.6875 0.893968,-22.9375 1.191769,-25 l 0.541457,-3.75 -4.087898,0 C 55.120878,251 54,250.58871 54,249.5 c 0,-1.3141 6.444444,-1.5 52,-1.5 45.55556,0 52,0.1859 52,1.5 0,0.85438 -0.89866,1.5 -2.0879,1.5 -1.84273,0 -2.02401,0.44033 -1.54384,3.75 0.29923,2.0625 0.83828,13.0875 1.1979,24.5 L 156.22002,300 152,300 l -4.22002,0 0.65386,-20.75 c 0.35962,-11.4125 0.89867,-22.4375 1.1979,-24.5 L 150.1758,251 140,251 l -10.1758,0 0.54146,3.75 c 0.2978,2.0625 0.8341,13.3125 1.19177,25 L 132.20774,301 128,301 l -4.20774,0 0.65031,-21.25 c 0.35767,-11.6875 0.89397,-22.9375 1.19177,-25 l 0.54146,-3.75 -10.21703,0 -10.21702,0 0.60242,7.75 c 0.33134,4.2625 0.8996,15.2875 1.26282,24.5 l 0.66039,16.75 -4.76738,0 -4.767376,0 0.660389,-16.75 c 0.363215,-9.2125 0.931477,-20.2375 1.262817,-24.5 l 0.60242,-7.75 -7.247401,0 -7.247403,0 0.602587,8.25 c 0.331422,4.5375 0.894806,15.7875 1.251965,25 L 89.267376,301 84.5,301 l -4.767376,0 0.649378,-16.75 c 0.357159,-9.2125 0.920543,-20.4625 1.251965,-25 l 0.602587,-8.25 -8.206175,0 -8.206175,0 0.541457,3.75 c 0.297801,2.0625 0.834097,13.3125 1.191769,25 L 68.207744,301 64,301 59.792256,301 60.44257,279.75 Z M 74.246076,167.46554 c 0.410342,-0.43506 3.785342,-2.11297 7.5,-3.72868 6.123471,-2.66344 8.330871,-3.02846 23.647454,-3.91036 l 16.89354,-0.97271 8.60646,2.74816 c 4.73356,1.51149 7.93147,2.86931 7.10647,3.01739 -0.825,0.14808 -12.075,0.7543 -25,1.34715 -12.925,0.59285 -27.1,1.35064 -31.5,1.68399 -4.4,0.33335 -7.664266,0.25013 -7.253924,-0.18494 z"
       id="path5286"
       inkscape:connector-curvature="0" />
    <path
       style="fill:#313a42"
       d="m 60.370579,293.25 c 0.318307,-4.2625 0.86234,-15.70932 1.208962,-25.43738 l 0.630223,-17.68737 -4.354882,-0.38792 C 55.459697,249.52398 77.125,249.33208 106,249.31089 c 28.875,-0.0212 51.43758,0.16303 50.13907,0.40938 l -2.36093,0.4479 0.63289,17.16592 c 0.34809,9.44125 0.89485,20.65341 1.21501,24.91591 l 0.58212,7.75 -4.20816,0 -4.20816,0 0.58212,-7.75 c 0.32016,-4.2625 0.86854,-15.5125 1.21861,-25 l 0.6365,-17.25 -10.22203,0 -10.22202,0 0.63283,17.75 c 0.34806,9.7625 0.89326,21.2375 1.21157,25.5 l 0.57874,7.75 -4.20816,0 -4.20816,0 0.57874,-7.75 c 0.31831,-4.2625 0.86351,-15.7375 1.21157,-25.5 l 0.63283,-17.75 -10.24509,0 -10.24509,0 0.67485,19.25 c 0.37117,10.5875 0.94121,21.8375 1.26676,25 l 0.59192,5.75 -4.75833,0 -4.758333,0 0.591919,-5.75 c 0.325555,-3.1625 0.895594,-14.4125 1.266764,-25 L 101.2752,250 94,250 l -7.275195,0 0.659161,19.25 c 0.362538,10.5875 0.926881,22.0625 1.254094,25.5 L 89.232994,301 84.5,301 l -4.732994,0 0.594934,-6.25 c 0.327213,-3.4375 0.891556,-14.9125 1.254094,-25.5 l 0.659161,-19.25 -8.245088,0 -8.245089,0 0.632832,17.75 c 0.348057,9.7625 0.893264,21.2375 1.211571,25.5 L 68.208162,301 64,301 l -4.208162,0 0.578741,-7.75 z M 82.349084,164.02445 c 6.21933,-2.65283 8.380092,-3.0004 23.499996,-3.78006 15.63496,-0.80623 17.07803,-0.72598 23.65092,1.31521 l 7,2.17383 -4.5,0.5994 c -4.94851,0.65914 -44.827403,2.68411 -52,2.64045 l -4.5,-0.0274 6.849084,-2.92144 z"
       id="path5284"
       inkscape:connector-curvature="0" />
    <path
       style="fill:#2c343c"
       d="m 60.364223,299.25 c 0.274449,-0.9625 0.80897,-12.40898 1.187823,-25.43662 l 0.688825,-23.68661 -4.370436,-0.38868 C 55.466696,249.52432 77.125,249.33208 106,249.31089 c 28.875,-0.0212 51.43599,0.16324 50.13554,0.40984 l -2.36445,0.44837 0.68569,23.16545 c 0.37713,12.741 0.90896,23.95295 1.18184,24.91545 0.41521,1.4645 -0.17839,1.75 -3.63862,1.75 -3.46023,0 -4.05383,-0.2855 -3.63862,-1.75 0.27288,-0.9625 0.80593,-12.2125 1.18454,-25 l 0.68839,-23.25 -10.23957,0 -10.23957,0 0.6908,23.75 c 0.37995,13.0625 0.91536,24.5375 1.18981,25.5 0.41772,1.46496 -0.17447,1.75 -3.63578,1.75 -3.46131,0 -4.0535,-0.28504 -3.63578,-1.75 0.27445,-0.9625 0.80986,-12.4375 1.18981,-25.5 l 0.6908,-23.75 -10.71031,0 -10.71032,0 0.55408,3.75 c 0.30474,2.0625 0.82918,12.525 1.16542,23.25 0.33624,10.725 0.83178,20.2875 1.10121,21.25 0.4158,1.48541 -0.21089,1.75 -4.14491,1.75 -3.93402,0 -4.56071,-0.26459 -4.14491,-1.75 0.269426,-0.9625 0.76497,-10.525 1.10121,-21.25 0.33624,-10.725 0.86068,-21.1875 1.16542,-23.25 L 102.1758,250 94,250 l -8.175796,0 0.550317,3.75 c 0.302674,2.0625 0.825725,12.75 1.162336,23.75 0.336611,11 0.833847,20.7875 1.104969,21.75 0.418543,1.48585 -0.206631,1.75 -4.141826,1.75 -3.935195,0 -4.560369,-0.26415 -4.141826,-1.75 0.271122,-0.9625 0.768358,-10.75 1.104969,-21.75 0.336611,-11 0.859662,-21.6875 1.162336,-23.75 l 0.550317,-3.75 -8.710314,0 -8.710314,0 0.690805,23.75 c 0.379943,13.0625 0.915355,24.5375 1.189804,25.5 C 68.053499,300.71496 67.461309,301 64,301 c -3.461309,0 -4.053499,-0.28504 -3.635777,-1.75 z m 16.71911,-132.65003 c 0.229167,-0.22002 3.20571,-1.52896 6.614539,-2.90877 5.349994,-2.16553 8.428028,-2.60634 22.499998,-3.22229 14.00152,-0.61287 17.18799,-0.46494 22.57938,1.04818 3.45248,0.96896 6.10139,1.9376 5.88646,2.15254 -0.34249,0.34248 -49.224162,3.25263 -55.580377,3.30896 -1.329166,0.0118 -2.229166,-0.1586 -2,-0.37862 z"
       id="path5282"
       inkscape:connector-curvature="0" />
  </g>
</svg>
