<?xml version="1.0" encoding="UTF-8" standalone="no"?>
<!-- Created with Inkscape (http://www.inkscape.org/) -->

<svg
   xmlns:dc="http://purl.org/dc/elements/1.1/"
   xmlns:cc="http://creativecommons.org/ns#"
   xmlns:rdf="http://www.w3.org/1999/02/22-rdf-syntax-ns#"
   xmlns:svg="http://www.w3.org/2000/svg"
   xmlns="http://www.w3.org/2000/svg"
   xmlns:sodipodi="http://sodipodi.sourceforge.net/DTD/sodipodi-0.dtd"
   xmlns:inkscape="http://www.inkscape.org/namespaces/inkscape"
   id="svg4136"
   version="1.1"
   inkscape:version="0.91 r13725"
   width="130.15891"
   height="350.76205"
   viewBox="0 0 130.15891 350.76205"
   sodipodi:docname="p_m.svg">
  <metadata
     id="metadata4142">
    <rdf:RDF>
      <cc:Work
         rdf:about="">
        <dc:format>image/svg+xml</dc:format>
        <dc:type
           rdf:resource="http://purl.org/dc/dcmitype/StillImage" />
        <dc:title></dc:title>
      </cc:Work>
    </rdf:RDF>
  </metadata>
  <defs
     id="defs4140" />
  <sodipodi:namedview
     pagecolor="#ffffff"
     bordercolor="#666666"
     borderopacity="1"
     objecttolerance="10"
     gridtolerance="10"
     guidetolerance="10"
     inkscape:pageopacity="0"
     inkscape:pageshadow="2"
     inkscape:window-width="2560"
     inkscape:window-height="1061"
     id="namedview4138"
     showgrid="false"
     fit-margin-top="0"
     fit-margin-left="0"
     fit-margin-right="0"
     fit-margin-bottom="0"
     inkscape:zoom="2.5441595"
     inkscape:cx="61"
     inkscape:cy="175.42482"
     inkscape:window-x="-4"
     inkscape:window-y="-4"
     inkscape:window-maximized="1"
     inkscape:current-layer="svg4136" />
  <g
     id="g4146"
     transform="translate(-38,-0.16276315)">
    <path
       style="fill:#e5e7db"
       d="M 75.463832,348.72255 C 72.335278,346.03148 72.403947,346.95074 73.411633,321.25 L 74.205605,301 59.102802,301 C 47.477934,301 44,300.70447 44,299.71665 c 0,-0.70584 3.816752,-20.33715 8.48167,-43.62515 4.664919,-23.28799 8.192773,-42.84798 7.839675,-43.46665 -0.353098,-0.61867 -0.247991,-0.76549 0.233569,-0.32628 0.766529,0.69913 6.26993,-22.04475 6.397475,-26.43881 0.03288,-1.13287 -1.968613,-2.35202 -6.470571,-3.94135 -9.868553,-3.48389 -10.015699,-3.77354 -9.793397,-19.27747 L 50.876841,149.5 44.438421,144.13881 C 40.897289,141.19016 38,138.36108 38,137.85197 c 0,-0.50911 5.131562,-6.90731 11.403472,-14.21822 l 11.403472,-13.29256 11.219419,0.2055 c 10.993004,0.20136 11.282362,0.14927 14.338445,-2.58134 l 3.119027,-2.78685 -7.227811,-6.932922 C 70.538699,87.006309 66.655045,75.564941 67.067597,53.5 67.223216,45.176877 66.85309,38.978233 66.038781,36.270047 63.655,28.342194 65.144506,24.152808 73.858358,14.276695 82.777537,4.1678695 87.722416,1.0147896 95.793178,0.29005617 105.56537,-0.58746093 114.3868,3.1231058 118.5,9.841246 c 1.1,1.796643 3.9669,5.604853 6.37089,8.462689 8.07061,9.594257 10.86973,18.754406 8.8168,28.853052 -0.67613,3.325985 -0.37494,4.082729 3.32763,8.360713 l 4.07105,4.703727 -0.66958,8.252155 c -0.46267,5.702172 -0.32151,8.46727 0.45682,8.948303 1.37878,0.852136 1.47117,5.065367 0.16461,7.506706 -0.52898,0.98841 -2.28277,2.344279 -3.89731,3.013043 -2.43341,1.00795 -3.509,0.937424 -6.28822,-0.412313 L 127.5,85.901073 l 2.36355,2.051699 c 2.20586,1.914827 2.26089,2.208358 0.82488,4.399985 -0.84626,1.291557 -3.10286,3.090551 -5.01467,3.997764 C 121.8688,98.156093 115,98.583714 115,97.015023 c 0,-0.541738 1.33988,-3.162557 2.97751,-5.824044 1.63763,-2.661486 3.66867,-6.493246 4.51342,-8.515023 1.88385,-4.508696 3.06128,-4.66491 3.89101,-0.516234 0.34757,1.737847 0.83894,2.952727 1.09194,2.699733 C 128.43432,83.899011 126.29212,78.5 124.9506,78.5 c -0.77303,0 -3.08891,3.079691 -5.1464,6.843759 -2.05749,3.764067 -5.35732,8.632954 -7.33295,10.819748 -6.56994,7.272133 -3.93943,10.009153 11.41374,11.875913 8.84757,1.07576 9.41214,1.03007 11.49923,-0.93065 l 2.19486,-2.06196 13.1441,11.2266 c 7.22925,6.17462 13.16614,11.67659 13.19308,12.22659 0.0269,0.55 -2.66723,4.0909 -5.98703,7.86867 -4.93121,5.61147 -5.94235,7.35029 -5.52431,9.5 0.28143,1.44723 1.02814,6.23133 1.65934,10.63133 0.6312,4.4 1.34263,8.9 1.58096,10 1.72839,7.97747 2.64346,39.87149 1.46431,51.0372 -0.0602,0.57045 -1.06039,1.10882 -2.22256,1.19636 -1.16217,0.0875 -2.24625,0.29581 -2.40906,0.46281 -0.16282,0.16699 3.26305,18.06475 7.61303,39.77278 C 164.44092,280.67718 168,299.01468 168,299.71915 168,300.70139 164.61962,301 153.5,301 l -14.5,0 -0.125,15.5 c -0.15468,19.18006 0.11307,17.41976 -3.00353,19.74664 -2.52573,1.88573 -2.77015,1.89527 -6.25,0.24398 C 127.33355,335.40493 126,334.07261 126,332.87249 c 0,-1.0448 -0.4464,-2.68102 -0.99199,-3.63606 -0.54559,-0.95504 -1.79204,-7.58643 -2.76988,-14.73643 l -1.7779,-13 -12.55273,-0.27855 -12.552731,-0.27855 -2.151555,10.27855 c -1.183356,5.6532 -3.035722,15.54433 -4.116368,21.98028 -2.107019,12.54867 -3.053153,15.17469 -6.044023,16.77535 -2.887721,1.54546 -4.666013,1.25111 -7.578991,-1.25453 z M 69.885723,165.92937 c -1.604761,-0.99179 -2.33522,-0.46569 -1.41676,1.02041 0.368078,0.59556 1.136183,0.79425 1.706898,0.44153 0.67187,-0.41524 0.569592,-0.93059 -0.290138,-1.46194 z M 62.019708,84.715551 c -4.529562,-2.291845 -6.303698,-8.803394 -3.859916,-14.166912 0.988122,-2.16869 0.778524,-3.248789 -1.416027,-7.297053 -5.227377,-9.642888 -4.47653,-17.942152 2.309526,-25.527647 5.750216,-6.427627 6.273618,-5.168861 7.091118,17.053903 0.435097,11.827606 1.254974,20.717948 2.226376,24.141725 0.845709,2.980762 1.306696,5.793262 1.024417,6.25 -0.753014,1.218402 -4.529622,0.985924 -7.375494,-0.454016 z"
       id="path4160"
       inkscape:connector-curvature="0" />
    <path
       style="fill:#859588"
       d="m 44,299.72099 c 0,-2.31732 22.957878,-113.71722 23.613459,-114.581 0.338754,-0.44634 19.684128,5.51271 24.170468,7.44535 4.704815,2.02675 8.933633,1.81093 10.180893,-0.5196 2.75106,-5.1404 0.29647,-7.78302 -8.351599,-8.99138 -4.990797,-0.69735 -7.606219,-1.62656 -9.5,-3.37518 -1.437272,-1.32711 -5.227015,-4.31095 -8.421651,-6.63076 -3.194637,-2.31981 -5.634196,-4.74054 -5.421244,-5.3794 0.212953,-0.63886 -6.960753,-7.40843 -15.941569,-15.04349 C 45.347941,145.01047 38,138.35021 38,137.84496 c 0,-0.50526 5.215707,-6.99838 11.590459,-14.42917 10.167451,-11.85179 11.791759,-13.35125 13.230054,-12.21316 0.901778,0.71355 7.905663,6.58487 15.564189,13.04737 7.658527,6.4625 14.229689,11.75 14.602582,11.75 0.372893,0 2.124506,-1.8 3.892475,-4 1.767968,-2.2 3.738751,-4 4.379511,-4 0.64077,0 2.98206,1.78193 5.20288,3.95985 l 4.03785,3.95985 13.32494,-15.47368 13.32494,-15.47368 2.84063,2.26383 c 8.93359,7.1196 23.87828,20.40853 23.91323,21.26383 0.0225,0.55 -5.34667,7.20894 -11.93144,14.79765 -6.58476,7.5887 -11.96467,14.5637 -11.95535,15.5 0.009,0.93629 2.04518,11.60235 4.52413,23.70235 C 154.84208,232.78024 168,298.52806 168,299.72016 168,300.74619 155.7043,301 106,301 56.316763,301 44,300.74592 44,299.72099 Z M 116,96.621154 c 0,-0.758365 1.56861,-3.983786 3.48581,-7.167602 1.91719,-3.183816 3.74752,-6.613335 4.06738,-7.621154 C 124.28468,79.527683 126,79.432237 126,81.696249 c 0,0.932938 1.18342,3.403932 2.62983,5.491099 2.28331,3.294812 2.44802,4.014555 1.25,5.462229 C 126.69673,96.496015 116,99.556779 116,96.621154 Z M 91,89 c 0,-0.571429 3,-1 7,-1 4,0 7,0.428571 7,1 0,0.571429 -3,1 -7,1 -4,0 -7,-0.428571 -7,-1 z m 42,-0.793244 c -2.71725,-0.847294 -4.87616,-3.366431 -5.56229,-6.490381 -0.37162,-1.691932 -2.41656,-5.278646 -4.54433,-7.970476 l -3.86867,-4.894235 -1.12263,2.463896 c -2.845,6.244102 -12.32846,5.897701 -14.99829,-0.54784 -0.96977,-2.341231 -0.97296,-3.687529 -0.015,-6.336715 1.17965,-3.262282 1.08645,-3.493241 -3.0862,-7.647439 -2.366424,-2.355961 -5.080432,-5.765706 -6.031129,-7.577211 l -1.728538,-3.293646 -7.518998,0.681354 C 77.349668,47.244177 76.81587,47.1444 72.881462,44.417853 67.132344,40.433712 65.799683,37.977264 65.736292,31.247404 65.670125,24.222946 66.328352,22.922669 74.601258,13.735338 82.998352,4.410092 87.652448,1.3122781 94.562514,0.44892243 105.38446,-0.90319051 114.63403,3.4150931 120.1258,12.383473 c 1.7232,2.81409 4.70054,6.861445 6.61631,8.994122 6.02573,6.707955 7.61567,11.669478 6.9638,21.731118 -0.5052,7.797919 -0.35896,8.895295 1.3972,10.484601 1.0788,0.976304 2.88243,3.265257 4.00806,5.086561 1.84998,2.993334 1.94717,3.950125 1.01161,9.959415 -0.84651,5.437275 -0.76982,7.026545 0.42111,8.726838 1.96876,2.810799 1.83178,4.886573 -0.51977,7.876073 -2.10729,2.678996 -4.58555,3.724952 -7.02412,2.964555 z M 64.5,85.284169 c -2.990004,-0.723325 -6.318462,-4.181147 -6.996555,-7.268482 -0.344027,-1.566346 0.08512,-4.446195 1.005255,-6.745827 1.569245,-3.921928 1.547151,-4.098741 -0.976919,-7.818165 -3.304359,-4.869245 -3.876219,-7.284681 -3.318088,-14.015005 0.335353,-4.043918 1.252427,-6.575027 3.515894,-9.703814 3.589022,-4.961098 5.782483,-5.769385 6.892157,-2.539746 0.43594,1.268778 0.827357,9.50687 0.869814,18.30687 0.05788,11.99716 0.515593,17.572633 1.829543,22.28607 1.621648,5.817216 1.580387,8.385086 -0.130118,8.097929 C 66.810942,85.820198 65.6,85.550274 64.5,85.284169 Z M 79.364082,74.83041 C 77.204427,73.784687 75,70.08188 75,67.5 75,60.400557 84.396686,56.539543 89.428571,61.571429 96.164284,68.307141 88.028193,79.025645 79.364082,74.83041 Z"
       id="path4158"
       inkscape:connector-curvature="0" />
    <path
       style="fill:#a46097"
       d="M 44,300.15054 C 44,298.70937 60.790736,217.42291 64.480787,201 c 1.915476,-8.525 3.490903,-15.58509 3.500948,-15.68909 0.01005,-0.104 3.055765,0.86947 6.768265,2.16327 3.7125,1.2938 8.55,2.6669 10.75,3.05133 2.2,0.38444 4.977447,1.31087 6.172105,2.05875 1.194658,0.74787 3.587939,1.6092 5.318401,1.91407 3.938244,0.69382 6.834114,-2.33321 6.221994,-6.50381 -0.48331,-3.29301 -3.06178,-4.76821 -9.34328,-5.34551 -5.453615,-0.50122 -7.226322,-1.40383 -16.648812,-8.47711 -4.068476,-3.05413 -6.890202,-5.86883 -6.611521,-6.59506 0.267397,-0.69682 -0.997713,-2.40814 -2.811355,-3.80293 C 59.870999,157.67799 38.5,138.79463 38.5,137.88669 38.5,136.38355 60.193145,111 61.477748,111 c 0.612634,0 7.760175,5.625 15.883425,12.5 8.12325,6.875 15.152321,12.5 15.620157,12.5 0.467836,0 2.276238,-1.8 4.01867,-4 1.742432,-2.2 3.67571,-4 4.29618,-4 0.62046,0 2.96526,1.80302 5.21065,4.0067 l 4.08253,4.00671 12.9021,-15.04213 c 7.09616,-8.27318 13.46434,-14.91369 14.15152,-14.75671 2.61449,0.59728 26.35257,21.98415 25.66828,23.12588 -0.38224,0.63775 -5.85408,7.18758 -12.15965,14.55517 l -11.46467,13.39561 1.27697,8.10439 C 141.66625,169.85303 143.32313,178.675 144.64587,185 149.70374,209.1853 168,299.43508 168,300.19864 168,300.63939 140.1,301 106,301 71.9,301 44,300.61775 44,300.15054 Z M 117.04238,96.25 c 0.0233,-0.4125 1.80116,-3.882041 3.95077,-7.71009 3.2243,-5.741863 4.033,-6.617015 4.62034,-5 0.39158,1.078049 1.58067,3.213451 2.64243,4.745337 2.20314,3.178663 1.46107,4.775501 -3.38343,7.28069 -2.93181,1.516097 -7.90166,1.95028 -7.83011,0.684063 z M 95,89 c 0,-0.55 1.35,-1 3,-1 1.65,0 3,0.45 3,1 0,0.55 -1.35,1 -3,1 -1.65,0 -3,-0.45 -3,-1 z M 79.364082,74.83041 C 77.010748,73.690906 75,70.025928 75,66.876024 75,63.932162 80.322912,59 83.5,59 c 3.177088,0 8.5,4.932162 8.5,7.876024 0,6.807127 -6.523824,10.913913 -12.635918,7.954386 z m 26.999998,0 c -4.02218,-1.947573 -5.47955,-7.792837 -2.87137,-11.51654 1.26352,-1.803926 1.99284,-1.998071 4.75,-1.264453 1.79151,0.47668 4.41764,1.099777 5.83585,1.38466 1.4696,0.295206 3.07314,1.603458 3.72856,3.041946 2.77969,6.100752 -4.74765,11.596348 -11.44304,8.354387 z"
       id="path4156"
       inkscape:connector-curvature="0" />
    <path
       style="fill:#758677"
       d="M 44,300.15054 C 44,298.70937 60.790736,217.42291 64.480787,201 c 1.915476,-8.525 3.490903,-15.58509 3.500948,-15.68909 0.01005,-0.104 3.055765,0.86947 6.768265,2.16327 3.7125,1.2938 8.55,2.6669 10.75,3.05133 2.2,0.38444 4.977447,1.31087 6.172105,2.05875 1.194658,0.74787 3.587939,1.6092 5.318401,1.91407 3.938244,0.69382 6.834114,-2.33321 6.221994,-6.50381 -0.48331,-3.29301 -3.06178,-4.76821 -9.34328,-5.34551 -5.453615,-0.50122 -7.226322,-1.40383 -16.648812,-8.47711 -4.068476,-3.05413 -6.890202,-5.86883 -6.611521,-6.59506 0.267397,-0.69682 -0.997713,-2.40814 -2.811355,-3.80293 C 59.870999,157.67799 38.5,138.79463 38.5,137.88669 38.5,136.38355 60.193145,111 61.477748,111 c 0.612634,0 7.760175,5.625 15.883425,12.5 8.12325,6.875 15.152321,12.5 15.620157,12.5 0.467836,0 2.276238,-1.8 4.01867,-4 1.742432,-2.2 3.67571,-4 4.29618,-4 0.62046,0 2.96526,1.80302 5.21065,4.0067 l 4.08253,4.00671 12.9021,-15.04213 c 7.09616,-8.27318 13.46434,-14.91369 14.15152,-14.75671 2.61449,0.59728 26.35257,21.98415 25.66828,23.12588 -0.38224,0.63775 -5.85408,7.18758 -12.15965,14.55517 l -11.46467,13.39561 1.27697,8.10439 C 141.66625,169.85303 143.32313,178.675 144.64587,185 149.70374,209.1853 168,299.43508 168,300.19864 168,300.63939 140.1,301 106,301 71.9,301 44,300.61775 44,300.15054 Z M 117.04238,96.25 c 0.0233,-0.4125 1.80116,-3.882041 3.95077,-7.71009 3.2243,-5.741863 4.033,-6.617015 4.62034,-5 0.39158,1.078049 1.58067,3.213451 2.64243,4.745337 2.20314,3.178663 1.46107,4.775501 -3.38343,7.28069 -2.93181,1.516097 -7.90166,1.95028 -7.83011,0.684063 z M 95,89 c 0,-0.55 1.35,-1 3,-1 1.65,0 3,0.45 3,1 0,0.55 -1.35,1 -3,1 -1.65,0 -3,-0.45 -3,-1 z"
       id="path4154"
       inkscape:connector-curvature="0" />
    <path
       style="fill:#495562"
       d="m 44.429668,298.25 c 0.323718,-1.5125 4.164468,-20.3 8.535,-41.75 4.370532,-21.45 8.869613,-43.05 9.997959,-48 1.128346,-4.95 2.738499,-12.19262 3.578118,-16.09471 l 1.526579,-7.09471 7.841589,2.77491 c 4.312874,1.52621 9.135226,2.96184 10.716338,3.1903 1.581112,0.22846 4.547796,1.15986 6.59263,2.06979 2.044835,0.90993 4.580581,1.65442 5.63499,1.65442 2.003779,0 4.859989,-3.59599 4.567099,-5.75 -0.0935,-0.6875 -0.22622,-1.81675 -0.29497,-2.50945 -0.20049,-2.02005 -3.425828,-3.51703 -9.140881,-4.24257 C 87.884534,181.72363 84,180.43579 84,179.18795 c 0,-0.47385 -3.116546,-3.01036 -6.925658,-5.63669 -3.862332,-2.66303 -6.71821,-5.31575 -6.456654,-5.99736 0.259697,-0.67675 -6.80243,-7.3908 -15.824341,-15.04438 C 45.832006,144.90733 38.5,138.36002 38.5,137.95996 c 0,-1.24989 21.945425,-26.92211 23,-26.90589 0.55,0.008 7.75,5.81201 16,12.89678 l 15,12.8814 4.631713,-4.51203 c 2.614624,-2.54705 4.907017,-4.06657 5.263877,-3.48916 0.34769,0.56257 2.38055,2.40761 4.51746,4.10008 l 3.8853,3.07721 12.85083,-14.94156 c 7.06795,-8.21785 13.23238,-14.96973 13.69874,-15.00417 0.68097,-0.0503 16.89773,13.55562 24.91794,20.90623 1.66487,1.52587 1.05843,2.44109 -10.6037,16.0028 -12.11374,14.08686 -12.35314,14.45824 -11.57508,17.95636 0.43697,1.96459 1.03538,5.59699 1.32981,8.07199 0.29443,2.475 1.69658,9.9 3.11588,16.5 1.41931,6.6 7.05067,34.05 12.51414,61 5.46347,26.95 10.19873,50.2375 10.52279,51.75 L 168.15891,301 106,301 l -62.158911,0 0.588579,-2.75 z"
       id="path4152"
       inkscape:connector-curvature="0" />
    <path
       style="fill:#3a444e"
       d="m 60.44257,279.75 c 0.357672,-11.6875 0.893968,-22.9375 1.191769,-25 l 0.541457,-3.75 -4.087898,0 C 55.120878,251 54,250.58871 54,249.5 c 0,-1.3141 6.444444,-1.5 52,-1.5 45.55556,0 52,0.1859 52,1.5 0,0.85438 -0.89866,1.5 -2.0879,1.5 -1.84273,0 -2.02401,0.44033 -1.54384,3.75 0.29923,2.0625 0.83828,13.0875 1.1979,24.5 L 156.22002,300 152,300 l -4.22002,0 0.65386,-20.75 c 0.35962,-11.4125 0.89867,-22.4375 1.1979,-24.5 L 150.1758,251 140,251 l -10.1758,0 0.54146,3.75 c 0.2978,2.0625 0.8341,13.3125 1.19177,25 L 132.20774,301 128,301 l -4.20774,0 0.65031,-21.25 c 0.35767,-11.6875 0.89397,-22.9375 1.19177,-25 l 0.54146,-3.75 -10.21703,0 -10.21702,0 0.60242,7.75 c 0.33134,4.2625 0.8996,15.2875 1.26282,24.5 l 0.66039,16.75 -4.76738,0 -4.767376,0 0.660389,-16.75 c 0.363215,-9.2125 0.931477,-20.2375 1.262817,-24.5 l 0.60242,-7.75 -7.247401,0 -7.247403,0 0.602587,8.25 c 0.331422,4.5375 0.894806,15.7875 1.251965,25 L 89.267376,301 84.5,301 l -4.767376,0 0.649378,-16.75 c 0.357159,-9.2125 0.920543,-20.4625 1.251965,-25 l 0.602587,-8.25 -8.206175,0 -8.206175,0 0.541457,3.75 c 0.297801,2.0625 0.834097,13.3125 1.191769,25 L 68.207744,301 64,301 59.792256,301 60.44257,279.75 Z M 74.329409,167.33726 c 0.364509,-0.36451 3.702009,-1.98469 7.416667,-3.6004 6.117207,-2.66071 8.337141,-3.02886 23.547784,-3.90507 15.98094,-0.92058 17.15662,-0.85972 24.28798,1.25735 4.12177,1.22362 7.72859,2.60413 8.01516,3.06781 0.28657,0.46368 -1.64302,0.853 -4.28798,0.86516 -2.64496,0.0122 -16.50902,0.67506 -30.80902,1.47311 -30.892842,1.72405 -28.995903,1.66735 -28.170591,0.84204 z"
       id="path4150"
       inkscape:connector-curvature="0" />
    <path
       style="fill:#2c343c"
       d="m 60.377638,293.25 c 0.32219,-4.2625 0.872545,-15.70901 1.223011,-25.43669 l 0.637211,-17.68669 -4.36893,-0.3886 C 55.466018,249.52429 77.125,249.33208 106,249.31089 c 28.875,-0.0212 51.43725,0.16308 50.13833,0.40948 l -2.36167,0.448 0.63651,18.16581 c 0.35009,9.9912 0.89601,21.20332 1.21317,24.91582 l 0.57664,6.75 -4.20298,0 -4.20298,0 0.57664,-6.75 c 0.31716,-3.7125 0.86462,-14.9625 1.21658,-25 l 0.63993,-18.25 -10.23665,0 -10.23665,0 0.63984,17.75 c 0.35192,9.7625 0.90346,21.2375 1.22565,25.5 l 0.5858,7.75 -4.20816,0 -4.20816,0 0.5858,-7.75 c 0.32219,-4.2625 0.87373,-15.7375 1.22565,-25.5 l 0.63984,-17.75 -10.25916,0 -10.25917,0 0.67485,19.25 c 0.37117,10.5875 0.94121,21.8375 1.26676,25 l 0.59192,5.75 -4.75833,0 -4.758333,0 0.591919,-5.75 c 0.325555,-3.1625 0.895594,-14.4125 1.266764,-25 l 0.67485,-19.25 -7.279182,0 -7.279178,0 0.674995,19.75 c 0.371247,10.8625 0.943083,22.3375 1.270746,25.5 L 89.258333,301 84.5,301 l -4.758333,0 0.595752,-5.75 c 0.327663,-3.1625 0.899499,-14.6375 1.270746,-25.5 L 82.28316,250 l -8.263147,0 -8.263148,0 0.639849,17.75 c 0.351916,9.7625 0.903458,21.2375 1.225648,25.5 L 68.208162,301 64,301 l -4.208162,0 0.5858,-7.75 z M 82,164.28865 c 9.684974,-4.48587 37.89698,-5.91699 48.5,-2.46026 l 6,1.95608 -5.5,0.58561 c -6.56642,0.69917 -46.012767,2.67236 -51,2.55113 l -3.5,-0.0851 5.5,-2.54748 z"
       id="path4148"
       inkscape:connector-curvature="0" />
  </g>
</svg>
