<?xml version="1.0" encoding="UTF-8" standalone="no"?>
<!-- Created with Inkscape (http://www.inkscape.org/) -->

<svg
   xmlns:dc="http://purl.org/dc/elements/1.1/"
   xmlns:cc="http://creativecommons.org/ns#"
   xmlns:rdf="http://www.w3.org/1999/02/22-rdf-syntax-ns#"
   xmlns:svg="http://www.w3.org/2000/svg"
   xmlns="http://www.w3.org/2000/svg"
   xmlns:sodipodi="http://sodipodi.sourceforge.net/DTD/sodipodi-0.dtd"
   xmlns:inkscape="http://www.inkscape.org/namespaces/inkscape"
   id="svg4162"
   version="1.1"
   inkscape:version="0.91 r13725"
   width="130.15891"
   height="350.73679"
   viewBox="0 0 130.15891 350.73679"
   sodipodi:docname="p_m_s.svg">
  <metadata
     id="metadata4168">
    <rdf:RDF>
      <cc:Work
         rdf:about="">
        <dc:format>image/svg+xml</dc:format>
        <dc:type
           rdf:resource="http://purl.org/dc/dcmitype/StillImage" />
        <dc:title></dc:title>
      </cc:Work>
    </rdf:RDF>
  </metadata>
  <defs
     id="defs4166" />
  <sodipodi:namedview
     pagecolor="#ffffff"
     bordercolor="#666666"
     borderopacity="1"
     objecttolerance="10"
     gridtolerance="10"
     guidetolerance="10"
     inkscape:pageopacity="0"
     inkscape:pageshadow="2"
     inkscape:window-width="2560"
     inkscape:window-height="1061"
     id="namedview4164"
     showgrid="false"
     fit-margin-top="0"
     fit-margin-left="0"
     fit-margin-right="0"
     fit-margin-bottom="0"
     inkscape:zoom="1.3447293"
     inkscape:cx="-54.883734"
     inkscape:cy="169.89289"
     inkscape:window-x="-4"
     inkscape:window-y="-4"
     inkscape:window-maximized="1"
     inkscape:current-layer="svg4162" />
  <g
     id="g4712"
     transform="translate(-29.841089,-0.16276315)">
    <path
       style="fill:#e5e7db"
       d="m 114.76226,349.92676 c -2.8194,-1.6426 -3.77586,-4.37751 -5.84911,-16.72503 -1.08064,-6.43595 -2.93301,-16.32708 -4.11636,-21.98028 l -2.15156,-10.27855 -12.552731,0.27855 -12.552732,0.27855 -1.777894,13 c -0.977841,7.15 -2.224289,13.78139 -2.769883,14.73643 C 72.446395,330.19147 72,331.82769 72,332.87249 c 0,1.20012 -1.333551,2.53244 -3.621472,3.61813 -3.479846,1.65129 -3.724265,1.64175 -6.25,-0.24398 C 59.011932,333.91976 59.279678,335.68006 59.125,316.5 L 59,301 44.5,301 C 33.380382,301 30,300.70139 30,299.71915 c 0,-0.70447 3.559077,-19.04197 7.909059,-40.75 4.349983,-21.70803 7.775847,-39.60579 7.613032,-39.77278 -0.162814,-0.167 -1.246891,-0.37527 -2.409059,-0.46281 -1.162167,-0.0875 -2.162322,-0.62591 -2.222564,-1.19636 -1.179149,-11.16571 -0.264074,-43.05973 1.464313,-51.0372 0.238325,-1.1 0.949757,-5.6 1.58096,-10 0.631203,-4.4 1.377907,-9.1841 1.659342,-10.63133 0.418041,-2.14971 -0.593098,-3.88853 -5.52431,-9.5 C 36.750969,132.5909 34.056805,129.05 34.083744,128.5 c 0.02694,-0.55 5.963824,-6.05197 13.19308,-12.22659 l 13.144101,-11.2266 2.214814,2.08071 c 1.921314,1.80498 2.920429,1.98301 7.539538,1.34342 2.928597,-0.40552 7.878626,-0.70328 11.000062,-0.6617 9.277873,0.1236 9.445332,-1.54028 0.972925,-9.667025 C 70.548266,87.015485 66.65636,75.494557 67.067597,53.5 67.223216,45.176877 66.85309,38.978233 66.038781,36.270047 63.655,28.342194 65.144506,24.152808 73.858358,14.276695 82.777537,4.1678695 87.722416,1.0147896 95.793178,0.29005617 105.56537,-0.58746093 114.3868,3.1231058 118.5,9.841246 c 1.1,1.796643 3.9669,5.604853 6.37089,8.462689 8.07061,9.594257 10.86973,18.754406 8.8168,28.853052 -0.67613,3.325985 -0.37494,4.082729 3.32763,8.360713 l 4.07105,4.703727 -0.66958,8.252155 c -0.46267,5.702172 -0.32151,8.46727 0.45682,8.948303 1.37878,0.852136 1.47117,5.065367 0.16461,7.506706 -0.52898,0.98841 -2.28277,2.344279 -3.89731,3.013043 -2.43341,1.00795 -3.509,0.937424 -6.28822,-0.412313 L 127.5,85.901073 l 2.36355,2.051699 c 2.20586,1.914827 2.26089,2.208358 0.82488,4.399985 -0.84626,1.291557 -3.10286,3.090551 -5.01467,3.997764 C 121.8688,98.156093 115,98.583714 115,97.015023 c 0,-0.541738 1.33988,-3.162557 2.97751,-5.824044 1.63763,-2.661486 3.66867,-6.493246 4.51342,-8.515023 1.88385,-4.508696 3.06128,-4.66491 3.89101,-0.516234 0.34757,1.737847 0.83894,2.952727 1.09194,2.699733 C 128.43432,83.899011 126.29212,78.5 124.9506,78.5 c -0.77303,0 -3.08891,3.079691 -5.1464,6.843759 -2.05749,3.764067 -5.33013,8.602863 -7.27254,10.75288 -4.10516,4.543921 -4.40126,6.762681 -1.28166,9.604081 3.86053,3.51626 5.96364,4.09569 16.16131,4.45263 l 9.90399,0.34665 11.34235,13.21316 C 154.89594,130.98039 160,137.34286 160,137.85197 c 0,0.50911 -2.89729,3.33819 -6.43842,6.28684 l -6.43842,5.36119 0.18842,13.14094 c 0.2223,15.50393 0.0752,15.79358 -9.7934,19.27747 -4.50196,1.58933 -6.50345,2.80848 -6.47057,3.94135 0.12755,4.39406 5.63095,27.13794 6.39748,26.43881 0.48156,-0.43921 0.58666,-0.29239 0.23356,0.32628 -0.35309,0.61867 3.17476,20.17866 7.83968,43.46665 C 150.18325,279.3795 154,299.01081 154,299.71665 154,300.70447 150.52207,301 138.8972,301 l -15.1028,0 0.79397,20.25 c 1.00768,25.70074 1.07635,24.78148 -2.0522,27.47255 -2.85942,2.45956 -5.03954,2.79728 -7.77391,1.20421 z M 130,165.97237 c 0,-0.50028 -0.67242,-0.65157 -1.49426,-0.3362 -0.82184,0.31537 -1.24074,0.98359 -0.9309,1.48493 C 128.2229,168.16968 130,167.32792 130,165.97237 Z M 62.019708,84.715551 c -4.529562,-2.291845 -6.303698,-8.803394 -3.859916,-14.166912 0.988122,-2.16869 0.778524,-3.248789 -1.416027,-7.297053 -5.227377,-9.642888 -4.47653,-17.942152 2.309526,-25.527647 5.750216,-6.427627 6.273618,-5.168861 7.091118,17.053903 0.435097,11.827606 1.254974,20.717948 2.226376,24.141725 0.845709,2.980762 1.306696,5.793262 1.024417,6.25 -0.753014,1.218402 -4.529622,0.985924 -7.375494,-0.454016 z"
       id="path4726"
       inkscape:connector-curvature="0" />
    <path
       style="fill:#859588"
       d="m 30,299.72016 c 0,-1.1921 13.157917,-66.93992 23.458923,-117.22016 2.478949,-12.1 4.514807,-22.76606 4.524129,-23.70235 0.0093,-0.9363 -5.370589,-7.9113 -11.955356,-15.5 C 39.442929,135.70894 34.073783,129.05 34.09626,128.5 c 0.03495,-0.8553 14.979641,-14.14423 23.913234,-21.26383 l 2.840627,-2.26383 13.32494,15.47368 L 87.5,135.9197 91.537852,131.95985 C 93.75867,129.78193 96.099964,128 96.740728,128 c 0.640764,0 2.611545,1.8 4.379512,4 1.76797,2.2 3.51958,4 3.89248,4 0.37289,0 6.94405,-5.2875 14.60258,-11.75 7.65852,-6.4625 14.66241,-12.33382 15.56419,-13.04737 1.43829,-1.13809 3.0626,0.36137 13.23005,12.21316 C 154.78429,130.84658 160,137.3397 160,137.84496 c 0,0.50525 -7.34794,7.16551 -16.32876,14.80057 -8.98081,7.63506 -16.15452,14.40463 -15.94157,15.04349 0.21296,0.63886 -2.2266,3.05959 -5.42124,5.3794 -3.19464,2.31981 -6.98438,5.30365 -8.42165,6.63076 -1.89378,1.74862 -4.5092,2.67783 -9.5,3.37518 -8.648071,1.20836 -11.102656,3.85098 -8.351596,8.99138 1.247261,2.33053 5.476076,2.54635 10.180886,0.5196 4.48634,-1.93264 23.83172,-7.89169 24.17047,-7.44535 C 131.04212,186.00377 154,297.40367 154,299.72099 154,300.74592 141.68324,301 92,301 42.295695,301 30,300.74619 30,299.72016 Z M 116,96.621154 c 0,-0.758365 1.56861,-3.983786 3.48581,-7.167602 1.91719,-3.183816 3.74752,-6.613335 4.06738,-7.621154 C 124.28468,79.527683 126,79.432237 126,81.696249 c 0,0.932938 1.18342,3.403932 2.62983,5.491099 2.28331,3.294812 2.44802,4.014555 1.25,5.462229 C 126.69673,96.496015 116,99.556779 116,96.621154 Z M 91,89 c 0,-0.571429 3,-1 7,-1 4,0 7,0.428571 7,1 0,0.571429 -3,1 -7,1 -4,0 -7,-0.428571 -7,-1 z m 42,-0.793244 c -2.71725,-0.847294 -4.87616,-3.366431 -5.56229,-6.490381 -0.37162,-1.691932 -2.41656,-5.278646 -4.54433,-7.970476 l -3.86867,-4.894235 -1.12263,2.463896 c -2.845,6.244102 -12.32846,5.897701 -14.99829,-0.54784 -0.96977,-2.341231 -0.97296,-3.687529 -0.015,-6.336715 1.17965,-3.262282 1.08645,-3.493241 -3.0862,-7.647439 -2.366424,-2.355961 -5.080432,-5.765706 -6.031129,-7.577211 l -1.728538,-3.293646 -7.518998,0.681354 C 77.349668,47.244177 76.81587,47.1444 72.881462,44.417853 67.132344,40.433712 65.799683,37.977264 65.736292,31.247404 65.670125,24.222946 66.328352,22.922669 74.601258,13.735338 82.998352,4.410092 87.652448,1.3122781 94.562514,0.44892243 105.38446,-0.90319051 114.63403,3.4150931 120.1258,12.383473 c 1.7232,2.81409 4.70054,6.861445 6.61631,8.994122 6.02573,6.707955 7.61567,11.669478 6.9638,21.731118 -0.5052,7.797919 -0.35896,8.895295 1.3972,10.484601 1.0788,0.976304 2.88243,3.265257 4.00806,5.086561 1.84998,2.993334 1.94717,3.950125 1.01161,9.959415 -0.84651,5.437275 -0.76982,7.026545 0.42111,8.726838 1.96876,2.810799 1.83178,4.886573 -0.51977,7.876073 -2.10729,2.678996 -4.58555,3.724952 -7.02412,2.964555 z M 64.5,85.284169 c -2.990004,-0.723325 -6.318462,-4.181147 -6.996555,-7.268482 -0.344027,-1.566346 0.08512,-4.446195 1.005255,-6.745827 1.569245,-3.921928 1.547151,-4.098741 -0.976919,-7.818165 -3.304359,-4.869245 -3.876219,-7.284681 -3.318088,-14.015005 0.335353,-4.043918 1.252427,-6.575027 3.515894,-9.703814 3.589022,-4.961098 5.782483,-5.769385 6.892157,-2.539746 0.43594,1.268778 0.827357,9.50687 0.869814,18.30687 0.05788,11.99716 0.515593,17.572633 1.829543,22.28607 1.621648,5.817216 1.580387,8.385086 -0.130118,8.097929 C 66.810942,85.820198 65.6,85.550274 64.5,85.284169 Z M 79.364082,74.83041 C 77.204427,73.784687 75,70.08188 75,67.5 75,60.400557 84.396686,56.539543 89.428571,61.571429 96.164284,68.307141 88.028193,79.025645 79.364082,74.83041 Z"
       id="path4724"
       inkscape:connector-curvature="0" />
    <path
       style="fill:#a46097"
       d="M 30,300.19864 C 30,299.43508 48.296264,209.1853 53.354125,185 c 1.322745,-6.325 2.979628,-15.14697 3.681962,-19.60438 l 1.276971,-8.10439 -11.464667,-13.39561 c -6.305566,-7.36759 -11.777408,-13.91742 -12.159647,-14.55517 -0.684298,-1.14173 23.053788,-22.5286 25.668274,-23.12588 0.687179,-0.15698 7.055362,6.48353 14.151518,14.75671 l 12.902102,15.04213 4.082532,-4.00671 C 93.738563,129.80302 96.083357,128 96.703822,128 c 0.620466,0 2.553746,1.8 4.296178,4 1.74243,2.2 3.55083,4 4.01867,4 0.46784,0 7.49691,-5.625 15.62016,-12.5 8.12325,-6.875 15.27079,-12.5 15.88342,-12.5 1.28461,0 22.97775,25.38355 22.97775,26.88669 0,0.90794 -21.371,19.7913 -29.29753,25.88722 -1.81364,1.39479 -3.07875,3.10611 -2.81136,3.80293 0.27868,0.72623 -2.54304,3.54093 -6.61152,6.59506 -9.42249,7.07328 -11.1952,7.97589 -16.64881,8.47711 -6.281505,0.5773 -8.859972,2.0525 -9.343283,5.34551 -0.612115,4.1706 2.28375,7.19763 6.221993,6.50381 1.73047,-0.30487 4.12375,-1.1662 5.3184,-1.91407 1.19466,-0.74788 3.97211,-1.67431 6.17211,-2.05875 2.2,-0.38443 7.0375,-1.75753 10.75,-3.05133 3.7125,-1.2938 6.75822,-2.26727 6.76826,-2.16327 0.0101,0.104 1.58548,7.16409 3.50095,15.68909 C 137.20926,217.42291 154,298.70937 154,300.15054 154,300.61775 126.1,301 92,301 57.9,301 30,300.63939 30,300.19864 Z M 117.04238,96.25 c 0.0233,-0.4125 1.80116,-3.882041 3.95077,-7.71009 3.2243,-5.741863 4.033,-6.617015 4.62034,-5 0.39158,1.078049 1.58067,3.213451 2.64243,4.745337 2.20314,3.178663 1.46107,4.775501 -3.38343,7.28069 -2.93181,1.516097 -7.90166,1.95028 -7.83011,0.684063 z M 95,89 c 0,-0.55 1.35,-1 3,-1 1.65,0 3,0.45 3,1 0,0.55 -1.35,1 -3,1 -1.65,0 -3,-0.45 -3,-1 z M 79.364082,74.83041 C 77.010748,73.690906 75,70.025928 75,66.876024 75,63.932162 80.322912,59 83.5,59 c 3.177088,0 8.5,4.932162 8.5,7.876024 0,6.807127 -6.523824,10.913913 -12.635918,7.954386 z m 26.999998,0 c -4.02218,-1.947573 -5.47955,-7.792837 -2.87137,-11.51654 1.26352,-1.803926 1.99284,-1.998071 4.75,-1.264453 1.79151,0.47668 4.41764,1.099777 5.83585,1.38466 1.4696,0.295206 3.07314,1.603458 3.72856,3.041946 2.77969,6.100752 -4.74765,11.596348 -11.44304,8.354387 z"
       id="path4722"
       inkscape:connector-curvature="0" />
    <path
       style="fill:#758677"
       d="M 30,300.19864 C 30,299.43508 48.296264,209.1853 53.354125,185 c 1.322745,-6.325 2.979628,-15.14697 3.681962,-19.60438 l 1.276971,-8.10439 -11.464667,-13.39561 c -6.305566,-7.36759 -11.777408,-13.91742 -12.159647,-14.55517 -0.684298,-1.14173 23.053788,-22.5286 25.668274,-23.12588 0.687179,-0.15698 7.055362,6.48353 14.151518,14.75671 l 12.902102,15.04213 4.082532,-4.00671 C 93.738563,129.80302 96.083357,128 96.703822,128 c 0.620466,0 2.553746,1.8 4.296178,4 1.74243,2.2 3.55083,4 4.01867,4 0.46784,0 7.49691,-5.625 15.62016,-12.5 8.12325,-6.875 15.27079,-12.5 15.88342,-12.5 1.28461,0 22.97775,25.38355 22.97775,26.88669 0,0.90794 -21.371,19.7913 -29.29753,25.88722 -1.81364,1.39479 -3.07875,3.10611 -2.81136,3.80293 0.27868,0.72623 -2.54304,3.54093 -6.61152,6.59506 -9.42249,7.07328 -11.1952,7.97589 -16.64881,8.47711 -6.281505,0.5773 -8.859972,2.0525 -9.343283,5.34551 -0.612115,4.1706 2.28375,7.19763 6.221993,6.50381 1.73047,-0.30487 4.12375,-1.1662 5.3184,-1.91407 1.19466,-0.74788 3.97211,-1.67431 6.17211,-2.05875 2.2,-0.38443 7.0375,-1.75753 10.75,-3.05133 3.7125,-1.2938 6.75822,-2.26727 6.76826,-2.16327 0.0101,0.104 1.58548,7.16409 3.50095,15.68909 C 137.20926,217.42291 154,298.70937 154,300.15054 154,300.61775 126.1,301 92,301 57.9,301 30,300.63939 30,300.19864 Z M 117.04238,96.25 c 0.0233,-0.4125 1.80116,-3.882041 3.95077,-7.71009 3.2243,-5.741863 4.033,-6.617015 4.62034,-5 0.39158,1.078049 1.58067,3.213451 2.64243,4.745337 2.20314,3.178663 1.46107,4.775501 -3.38343,7.28069 -2.93181,1.516097 -7.90166,1.95028 -7.83011,0.684063 z M 95,89 c 0,-0.55 1.35,-1 3,-1 1.65,0 3,0.45 3,1 0,0.55 -1.35,1 -3,1 -1.65,0 -3,-0.45 -3,-1 z"
       id="path4720"
       inkscape:connector-curvature="0" />
    <path
       style="fill:#495562"
       d="m 30.430299,298.25 c 0.324065,-1.5125 5.059321,-24.8 10.522791,-51.75 5.463469,-26.95 11.094832,-54.4 12.514138,-61 1.419307,-6.6 2.821453,-14.025 3.115881,-16.5 0.294428,-2.475 0.892845,-6.1074 1.329815,-8.07199 0.778059,-3.49812 0.538658,-3.8695 -11.575079,-17.95636 -11.66214,-13.56171 -12.268579,-14.47693 -10.603708,-16.0028 8.020213,-7.35061 24.236978,-20.95652 24.917948,-20.90623 0.466353,0.0344 6.630786,6.78632 13.69874,15.00417 l 12.850825,14.94156 3.885299,-3.07721 c 2.136914,-1.69247 4.169772,-3.53751 4.517461,-4.10008 0.356859,-0.57741 2.649253,0.94211 5.26388,3.48916 l 4.63171,4.51203 15,-12.8814 c 8.25,-7.08477 15.45,-12.88833 16,-12.89678 1.05457,-0.0162 23,25.656 23,26.90589 0,0.40006 -7.33201,6.94737 -16.29335,14.54956 -9.02191,7.65358 -16.08403,14.36763 -15.82434,15.04438 0.26156,0.68161 -2.59432,3.33433 -6.45665,5.99736 -3.80911,2.62633 -6.92566,5.16284 -6.92566,5.63669 0,1.24784 -3.88453,2.53568 -9.98412,3.31003 -5.715052,0.72554 -8.940392,2.22252 -9.14088,4.24257 -0.06875,0.6927 -0.201487,1.82195 -0.29497,2.50945 -0.292894,2.15401 2.563318,5.75 4.567099,5.75 1.054411,0 3.590151,-0.74449 5.634991,-1.65442 2.04483,-0.90993 5.01152,-1.84133 6.59263,-2.06979 1.58111,-0.22846 6.40346,-1.66409 10.71634,-3.1903 l 7.84159,-2.77491 1.52658,7.09471 c 0.83961,3.90209 2.44977,11.14471 3.57811,16.09471 1.12835,4.95 5.62743,26.55 9.99796,48 4.37053,21.45 8.21128,40.2375 8.535,41.75 L 154.15891,301 92,301 l -62.158911,0 0.58921,-2.75 z"
       id="path4718"
       inkscape:connector-curvature="0" />
    <path
       style="fill:#3a444e"
       d="m 66.44257,279.75 c 0.357672,-11.6875 0.893968,-22.9375 1.191769,-25 L 68.175796,251 58,251 l -10.175796,0 0.544053,3.75 c 0.299228,2.0625 0.838286,13.0875 1.197906,24.5 L 50.220016,300 46,300 l -4.220016,0 0.653853,-20.75 c 0.35962,-11.4125 0.898678,-22.4375 1.197906,-24.5 0.48017,-3.30967 0.29889,-3.75 -1.543845,-3.75 C 40.898655,251 40,250.35438 40,249.5 c 0,-1.3141 6.444444,-1.5 52,-1.5 45.55556,0 52,0.1859 52,1.5 0,1.08871 -1.12088,1.5 -4.0879,1.5 l -4.0879,0 0.54146,3.75 c 0.2978,2.0625 0.8341,13.3125 1.19177,25 L 138.20774,301 134,301 l -4.20774,0 0.65031,-21.25 c 0.35767,-11.6875 0.89397,-22.9375 1.19177,-25 l 0.54146,-3.75 -8.20618,0 -8.20617,0 0.60258,8.25 c 0.33143,4.5375 0.89481,15.7875 1.25197,25 l 0.64938,16.75 -4.76738,0 -4.76738,0 0.64938,-16.75 c 0.35716,-9.2125 0.92054,-20.4625 1.25197,-25 l 0.60258,-8.25 -7.2474,0 -7.247401,0 0.602424,7.75 c 0.331333,4.2625 0.899599,15.2875 1.262814,24.5 L 99.267376,300 94.5,300 l -4.767376,0 0.660389,-16.75 c 0.363215,-9.2125 0.931481,-20.2375 1.262814,-24.5 l 0.602424,-7.75 -10.217023,0 -10.217024,0 0.541457,3.75 c 0.297801,2.0625 0.834097,13.3125 1.191769,25 L 74.207744,301 70,301 65.792256,301 66.44257,279.75 Z M 94,166.44315 c -11.825,-0.69126 -24.339058,-1.29876 -27.809017,-1.34999 -3.469959,-0.0512 -6.074552,-0.47253 -5.787983,-0.93621 0.286569,-0.46368 3.89339,-1.84419 8.015159,-3.06781 7.131366,-2.11707 8.307045,-2.17793 24.287983,-1.25735 15.210638,0.87621 17.430578,1.24436 23.547778,3.90507 11.26636,4.90036 12.56894,4.74196 -22.25392,2.70629 z"
       id="path4716"
       inkscape:connector-curvature="0" />
    <path
       style="fill:#2c343c"
       d="m 66.377638,293.25 c 0.32219,-4.2625 0.873732,-15.7375 1.225648,-25.5 l 0.639849,-17.75 -10.236654,0 -10.236654,0 0.639931,18.25 c 0.351962,10.0375 0.899422,21.2875 1.216578,25 L 50.202983,300 46,300 l -4.202983,0 0.576647,-6.75 c 0.317156,-3.7125 0.863079,-14.92462 1.213163,-24.91582 l 0.636517,-18.16581 -2.361672,-0.448 C 40.562752,249.47397 63.125,249.2897 92,249.31089 c 28.875,0.0212 50.53398,0.2134 48.13107,0.42713 l -4.36893,0.3886 0.63721,17.68669 c 0.35047,9.72768 0.90082,21.17419 1.22301,25.43669 l 0.5858,7.75 -4.20816,0 -4.20816,0 0.5858,-7.75 c 0.32219,-4.2625 0.87373,-15.7375 1.22565,-25.5 l 0.63984,-17.75 -8.26314,0 -8.26315,0 0.67499,19.75 c 0.37125,10.8625 0.94309,22.3375 1.27075,25.5 l 0.59575,5.75 -4.75833,0 -4.75833,0 0.59575,-5.75 c 0.32766,-3.1625 0.8995,-14.6375 1.27075,-25.5 l 0.67499,-19.75 -7.27918,0 -7.279175,0 0.674845,19.25 c 0.371165,10.5875 0.941209,21.8375 1.266764,25 L 99.258333,300 94.5,300 l -4.758333,0 0.591919,-5.75 c 0.325555,-3.1625 0.895599,-14.4125 1.266764,-25 l 0.674845,-19.25 -10.259165,0 -10.259165,0 0.639849,17.75 c 0.351916,9.7625 0.903458,21.2375 1.225648,25.5 L 74.208162,301 70,301 l -4.208162,0 0.5858,-7.75 z M 85,165.45452 c -11.825,-0.69242 -21.95,-1.32714 -22.5,-1.41051 -0.55,-0.0834 1.7,-1.0561 5,-2.16163 10.502185,-3.51836 38.73272,-2.11773 48.5,2.40627 l 5.5,2.54748 -7.5,-0.0613 c -4.125,-0.0337 -17.175,-0.62786 -29,-1.32027 z"
       id="path4714"
       inkscape:connector-curvature="0" />
  </g>
</svg>
