<?xml version="1.0" encoding="UTF-8" standalone="no"?>
<!-- Created with Inkscape (http://www.inkscape.org/) -->

<svg
   xmlns:dc="http://purl.org/dc/elements/1.1/"
   xmlns:cc="http://creativecommons.org/ns#"
   xmlns:rdf="http://www.w3.org/1999/02/22-rdf-syntax-ns#"
   xmlns:svg="http://www.w3.org/2000/svg"
   xmlns="http://www.w3.org/2000/svg"
   xmlns:sodipodi="http://sodipodi.sourceforge.net/DTD/sodipodi-0.dtd"
   xmlns:inkscape="http://www.inkscape.org/namespaces/inkscape"
   id="svg4136"
   version="1.1"
   inkscape:version="0.91 r13725"
   width="33.75"
   height="93.637589"
   viewBox="0 0 33.75 93.637589"
   sodipodi:docname="z.svg">
  <metadata
     id="metadata4142">
    <rdf:RDF>
      <cc:Work
         rdf:about="">
        <dc:format>image/svg+xml</dc:format>
        <dc:type
           rdf:resource="http://purl.org/dc/dcmitype/StillImage" />
        <dc:title></dc:title>
      </cc:Work>
    </rdf:RDF>
  </metadata>
  <defs
     id="defs4140" />
  <sodipodi:namedview
     pagecolor="#ffffff"
     bordercolor="#666666"
     borderopacity="1"
     objecttolerance="10"
     gridtolerance="10"
     guidetolerance="10"
     inkscape:pageopacity="0"
     inkscape:pageshadow="2"
     inkscape:window-width="2560"
     inkscape:window-height="1061"
     id="namedview4138"
     showgrid="false"
     fit-margin-top="0"
     fit-margin-left="0"
     fit-margin-right="0"
     fit-margin-bottom="0"
     inkscape:zoom="4.7626667"
     inkscape:cx="-19.825424"
     inkscape:cy="43.393644"
     inkscape:window-x="-4"
     inkscape:window-y="-4"
     inkscape:window-maximized="1"
     inkscape:current-layer="svg4136" />
  <g
     id="g4256"
     transform="translate(-30,-0.1841997)">
    <path
       style="fill:#819da5"
       d="M 35.256552,92.267075 C 34.943573,91.451465 34.6875,85.334277 34.6875,78.673325 l 0,-12.110825 -2.34375,0 -2.34375,0 0,-15.43646 0,-15.436459 4.6875,-0.62182 c 5.374513,-0.712954 6.122889,-2.402342 2.007051,-4.530725 C 33.247642,28.75457 32.148875,25.708623 31.512329,16.171138 31.005797,8.5816598 31.049361,8.375341 33.826149,5.2127533 39.0408,-0.72640618 47.760017,-1.4690692 55.946669,3.3286285 c 5.492481,3.2188077 7.477879,6.3011203 6.061316,9.4101375 -0.588767,1.292202 -1.070485,4.459933 -1.070485,7.039402 0,5.598932 -1.789899,9.454938 -5.085941,10.956716 -3.076276,1.401645 -3.197284,3.952616 -0.187497,3.952616 1.22461,0 3.544922,0.263672 5.15625,0.585937 l 2.929688,0.585938 0,15.351562 0,15.351563 -2.34375,0 -2.34375,0 0,12.110825 c 0,6.660952 -0.256073,12.77814 -0.569052,13.59375 -0.795465,2.07295 -8.378931,2.07295 -9.174396,0 C 49.006073,91.451465 48.75,86.178027 48.75,80.548325 48.75,70.9375 48.635512,70.3125 46.875,70.3125 c -1.760512,0 -1.875,0.625 -1.875,10.235825 0,5.629702 -0.256073,10.90314 -0.569052,11.71875 -0.396423,1.03306 -1.78801,1.482925 -4.587198,1.482925 -2.799188,0 -4.190775,-0.449865 -4.587198,-1.482925 z"
       id="path4262"
       inkscape:connector-curvature="0" />
    <path
       style="fill:#819c69"
       d="M 35.256552,92.267075 C 34.943573,91.451465 34.6875,85.334277 34.6875,78.673325 l 0,-12.110825 -2.34375,0 -2.34375,0 0,-15.46875 C 30,36.25 30.075757,35.625 31.875,35.625 c 1.794354,0 1.875,0.625 1.875,14.53125 l 0,14.53125 13.125,0 13.125,0 0,-14.53125 C 60,36.25 60.080646,35.625 61.875,35.625 c 1.799242,0 1.875,0.625 1.875,15.46875 l 0,15.46875 -2.34375,0 -2.34375,0 0,12.110825 c 0,6.660952 -0.256073,12.77814 -0.569052,13.59375 -0.795465,2.07295 -8.378931,2.07295 -9.174396,0 C 49.006073,91.451465 48.75,86.178027 48.75,80.548325 48.75,70.9375 48.635512,70.3125 46.875,70.3125 c -1.760512,0 -1.875,0.625 -1.875,10.235825 0,5.629702 -0.256073,10.90314 -0.569052,11.71875 -0.396423,1.03306 -1.78801,1.482925 -4.587198,1.482925 -2.799188,0 -4.190775,-0.449865 -4.587198,-1.482925 z M 41.77191,38.228901 c -0.802675,-1.145981 -1.45941,-3.05486 -1.45941,-4.241954 0,-1.439515 -0.780443,-2.455079 -2.343319,-3.049283 -4.280268,-1.627355 -6.086762,-6.091372 -6.090677,-15.050632 -0.0035,-7.9310173 0.03247,-8.0540878 3.267318,-11.1894245 2.809946,-2.7235073 4.057526,-3.2271103 8.854045,-3.5740592 6.157813,-0.44541595 12.026441,1.6778999 15.83116,5.7278383 1.899023,2.0214179 1.970511,2.65421 1.219421,10.7939624 -0.8395,9.097873 -2.100426,11.716508 -6.441073,13.376537 C 53.006597,31.63485 52.5,32.577173 52.5,34.945546 c 0,4.032983 -1.4315,5.366954 -5.75934,5.366954 -2.563686,0 -3.902604,-0.561463 -4.96875,-2.083599 z"
       id="path4260"
       inkscape:connector-curvature="0" />
    <path
       style="fill:#476a6a"
       d="M 34.815171,78.515625 34.6875,64.6875 l 12.1875,0 12.1875,0 -0.127671,13.828125 c -0.07022,7.605469 -0.310498,12.878906 -0.533954,11.71875 C 58.053618,88.431453 57.400632,88.125 53.90625,88.125 c -3.494382,0 -4.147368,0.306453 -4.494625,2.109375 -0.223456,1.160156 -0.463736,-2.847656 -0.533954,-8.90625 C 48.757737,70.980057 48.636373,70.3125 46.875,70.3125 c -1.761373,0 -1.882737,0.667557 -2.002671,11.015625 -0.07022,6.058594 -0.310498,10.066406 -0.533954,8.90625 C 43.991118,88.431453 43.338132,88.125 39.84375,88.125 c -3.494382,0 -4.147368,0.306453 -4.494625,2.109375 -0.223456,1.160156 -0.463736,-4.113281 -0.533954,-11.71875 z M 49.249582,15.987386 C 48.390324,14.597079 40.349187,9.375 39.067602,9.375 c -0.632995,0 -1.873341,0.84375 -2.756326,1.875 C 33.955918,14.000858 31.875,13.64737 31.875,10.496407 31.875,8.7246695 32.941207,6.8344039 35.145822,4.6976075 37.933268,1.9959079 39.21929,1.469344 43.847858,1.1345437 49.971847,0.69157429 54.087972,2.0380776 58.828125,6.0350209 64.474193,10.795841 61.74499,16.875 53.961578,16.875 c -2.289882,0 -4.41028,-0.399427 -4.711996,-0.887614 z"
       id="path4258"
       inkscape:connector-curvature="0" />
  </g>
</svg>
