<?xml version="1.0" encoding="UTF-8" standalone="no"?>
<!-- Created with Inkscape (http://www.inkscape.org/) -->

<svg
   xmlns:dc="http://purl.org/dc/elements/1.1/"
   xmlns:cc="http://creativecommons.org/ns#"
   xmlns:rdf="http://www.w3.org/1999/02/22-rdf-syntax-ns#"
   xmlns:svg="http://www.w3.org/2000/svg"
   xmlns="http://www.w3.org/2000/svg"
   xmlns:sodipodi="http://sodipodi.sourceforge.net/DTD/sodipodi-0.dtd"
   xmlns:inkscape="http://www.inkscape.org/namespaces/inkscape"
   id="svg4136"
   version="1.1"
   inkscape:version="0.91 r13725"
   width="31.875"
   height="88.125"
   viewBox="0 0 31.875 88.125"
   sodipodi:docname="z_d.svg">
  <metadata
     id="metadata4142">
    <rdf:RDF>
      <cc:Work
         rdf:about="">
        <dc:format>image/svg+xml</dc:format>
        <dc:type
           rdf:resource="http://purl.org/dc/dcmitype/StillImage" />
        <dc:title></dc:title>
      </cc:Work>
    </rdf:RDF>
  </metadata>
  <defs
     id="defs4140" />
  <sodipodi:namedview
     pagecolor="#ffffff"
     bordercolor="#666666"
     borderopacity="1"
     objecttolerance="10"
     gridtolerance="10"
     guidetolerance="10"
     inkscape:pageopacity="0"
     inkscape:pageshadow="2"
     inkscape:window-width="2560"
     inkscape:window-height="1061"
     id="namedview4138"
     showgrid="false"
     inkscape:zoom="10.133333"
     inkscape:cx="15.9375"
     inkscape:cy="44.0625"
     inkscape:window-x="-4"
     inkscape:window-y="-4"
     inkscape:window-maximized="1"
     inkscape:current-layer="svg4136" />
  <g
     id="g4146">
    <path
       style="fill:#839da1"
       d="M 5.8588707,87.351879 C 5.1321183,86.890423 4.2533598,82.085181 3.5469849,74.709985 2.7358194,66.240679 2.0606291,62.8125 1.2037392,62.8125 0.2739094,62.8125 0,59.399268 0,47.8125 l 0,-15 3.046875,-0.01436 C 4.7226562,32.790248 6.7265625,32.358401 7.5,31.838484 8.6923906,31.036939 8.5324746,30.57576 6.448459,28.805964 2.9379897,25.82479 2.1823936,23.863417 1.4910329,15.9375 0.96901978,9.9530212 1.1448239,8.4763712 2.6719248,6.0187168 7.2411175,-1.3347573 19.08746,-1.8871016 26.809874,4.8932673 l 3.321122,2.9159836 -0.644751,7.1110001 c -0.773381,8.529676 -2.360992,12.800603 -5.078977,13.663258 -3.592821,1.140317 -1.900367,3.706955 2.788617,4.228991 l 4.210365,0.46875 0.258181,14.765625 0.258181,14.765625 -2.367556,0 -2.367556,0 0,11.53125 c 0,7.71875 -0.371951,11.903201 -1.125,12.65625 -1.244267,1.244267 -5.307948,1.481671 -6.975557,0.407519 C 18.473061,87.0121 17.726614,82.42642 17.334333,76.640625 16.958516,71.097656 16.324684,66.5625 15.925817,66.5625 c -1.366099,0 -1.863317,2.972444 -1.863317,11.139175 0,5.107031 -0.422054,8.595379 -1.125,9.298325 -1.272341,1.272341 -5.3126697,1.473186 -7.0786293,0.351879 z"
       id="path4160"
       inkscape:connector-curvature="0" />
    <path
       style="fill:#76928a"
       d="M 5.3233587,86.484375 C 5.0965947,86.097656 4.622431,81.140625 4.2696616,75.46875 3.5266134,63.521923 3.1720488,61.875 1.343074,61.875 0.23671045,61.875 0,59.384436 0,47.743759 0,34.791087 0.13683101,33.638646 1.640625,33.9258 c 1.364319,0.260522 1.6866971,1.532897 1.9141878,7.554997 0.2556994,6.768836 0.4087444,7.240403 2.34375,7.221641 6.2484302,-0.06058 6.7420742,0.276378 7.0366412,4.803234 l 0.278954,4.286923 7.455421,-0.0623 7.455421,-0.06229 0,-11.959006 C 28.125,36.18697 28.387681,33.75 29.414062,33.75 c 1.840623,0 2.460938,4.283127 2.460938,16.992187 l 0,11.132813 -2.34375,0 -2.34375,0 -0.01436,11.484375 c -0.0079,6.316406 -0.367242,12.040913 -0.798549,12.721126 -0.491371,0.774942 -2.148831,1.125009 -4.438769,0.9375 L 18.28125,86.71875 17.8125,76.717592 C 17.554687,71.216955 17.055412,66.428617 16.702998,66.07684 c -1.739054,-1.735911 -2.641507,1.238175 -2.6533,8.744113 -0.01805,11.492055 -0.352442,12.366547 -4.7287115,12.366547 -1.9719313,0 -3.7708638,-0.316406 -3.9976278,-0.703125 z M 20.523942,43.86441 C 18.298521,39.502224 16.306996,37.576345 13.973426,37.529815 11.902762,37.488528 9.375,34.480206 9.375,32.057167 9.375,30.915685 8.3042536,29.341644 6.9033451,28.423733 3.3780217,26.113853 1.875,21.719055 1.875,13.720979 1.875,6.9225426 1.9538978,6.6874622 5.1888714,3.8471177 8.1086187,1.2835457 9.1722956,0.9375 14.132469,0.9375 c 6.323402,0 12.114611,2.3807051 14.44577,5.9385046 1.173871,1.7915531 1.26041,3.4086044 0.502377,9.3873604 -1.044407,8.237451 -1.798956,10.032522 -5.136297,12.219231 -2.644289,1.732605 -3.118103,5.17098 -1.331095,9.659498 1.497289,3.760819 1.950145,8.50583 0.875187,9.170192 -0.504085,0.311541 -1.838096,-1.240003 -2.964469,-3.447876 z"
       id="path4158"
       inkscape:connector-curvature="0" />
    <path
       style="fill:#809969"
       d="M 5.3233587,86.484375 C 5.0965947,86.097656 4.622431,81.140625 4.2696616,75.46875 3.5266134,63.521923 3.1720488,61.875 1.343074,61.875 0.23931154,61.875 0,59.462698 0,48.336578 0,39.759209 0.36639592,34.571712 0.999873,34.180201 c 1.6314505,-1.008292 1.9547184,-0.006 2.4835313,7.70035 l 0.5035516,7.338199 4.3346471,0.03132 4.334647,0.03132 0.287396,4.462327 0.287397,4.462326 4.868853,-0.217159 c 2.67787,-0.119439 6.02901,0.119 7.446979,0.529864 l 2.578125,0.747023 0,-12.233804 c 0,-11.368474 0.697047,-14.772413 2.629354,-12.840108 0.346283,0.346285 0.787005,6.716654 0.979379,14.156378 l 0.349773,13.526769 -2.448003,0 -2.448003,0 -0.01436,11.484375 c -0.0079,6.316406 -0.367242,12.040913 -0.798549,12.721126 -0.491371,0.774942 -2.148831,1.125009 -4.438769,0.9375 L 18.28125,86.71875 17.8125,76.714375 c -0.257813,-5.502406 -0.757088,-10.290744 -1.109502,-10.640751 -1.74042,-1.728538 -2.641508,1.242145 -2.6533,8.747329 -0.01805,11.492055 -0.352442,12.366547 -4.7287115,12.366547 -1.9719313,0 -3.7708638,-0.316406 -3.9976278,-0.703125 z M 20.85677,43.422983 C 18.579792,39.130867 17.779354,38.426452 13.59375,37.03125 11.614094,36.371364 10.483172,35.171551 9.7746469,32.9795 9.2210148,31.266662 7.6326318,28.946349 6.2449066,27.82325 4.8571815,26.70015 3.3062468,24.307473 2.798385,22.506189 1.3578056,17.396744 1.654415,8.2321285 3.3381603,5.8282453 6.9096147,0.72927987 15.934073,-0.59292903 23.190109,2.919658 c 6.294806,3.0472634 7.025094,4.7515189 5.816293,13.573346 -1.093067,7.977203 -2.542676,11.140259 -5.541747,12.092128 -2.709403,0.85993 -3.272653,4.437142 -1.450081,9.209478 0.86555,2.266412 1.427128,5.342138 1.24795,6.834945 L 22.936747,47.34375 20.85677,43.422983 Z"
       id="path4156"
       inkscape:connector-curvature="0" />
    <path
       style="fill:#718e6b"
       d="M 4.2333719,74.367571 C 3.855117,68.785719 2.9588052,63.079544 2.2415678,61.687181 0.55284747,58.408892 0.58775965,55.796169 2.34375,54.040178 3.1171875,53.266741 3.75,51.99588 3.75,51.216043 3.75,49.317953 5.5504769,48.300477 6.7632245,49.513224 7.3675297,50.117529 8.54706,50.1805 9.8663916,49.678892 12.772767,48.57389 13.125,49.183275 13.125,55.316482 l 0,5.316483 7.03125,-0.360523 7.03125,-0.360524 0,12.419041 c 0,9.659254 -0.25,12.169041 -1.125,11.294041 -1.450236,-1.450236 -5.674764,-1.450236 -7.125,0 C 18.0625,84.5 17.80931,82.885417 17.798144,76.359375 17.78361,67.864399 16.999745,64.85784 15.104815,66.028971 14.456682,66.429539 14.0625,70.091297 14.0625,75.711578 14.0625,82.741462 13.8125,84.5 12.9375,83.625 11.539318,82.226818 7.281644,82.155856 5.9293041,83.508196 5.2100427,84.227457 4.7240126,81.607883 4.2333719,74.367571 Z M 28.554108,49.281176 C 27.772029,44.065903 28.736875,38.172709 30.28815,38.6898 c 1.528461,0.509487 1.539703,13.982166 0.01209,14.49137 -0.687352,0.229116 -1.348316,-1.247148 -1.746134,-3.899994 z M 9.4553297,32.221774 C 8.9012745,30.22636 8.4456039,27.907125 8.4427283,27.067917 8.4398528,26.228708 7.8046875,25.016896 7.03125,24.375 6.2578125,23.733104 5.625,22.004782 5.625,20.534283 c 0,-2.036397 0.6863845,-3.028576 2.8798449,-4.162858 3.8656981,-1.999031 6.0014071,-0.433544 5.0906831,3.731498 -0.344651,1.576205 -0.837996,5.397077 -1.096321,8.490827 -0.58457,7.0009 -1.7287,8.364599 -3.0438773,3.628024 z M 21.269531,28.457032 C 20.915039,28.102539 20.625,26.589453 20.625,25.094618 c 0,-1.494836 -0.460958,-3.579191 -1.024351,-4.6319 -0.731659,-1.367117 -0.735878,-2.202489 -0.01477,-2.923601 0.721111,-0.72111 -0.526481,-2.030877 -4.366275,-4.583866 C 9.3716277,9.0670642 7.4154971,8.623833 5.625,10.78125 2.4914656,14.556928 0.39888076,10.024655 3.3381603,5.8282453 8.3687202,-1.3538851 24.579457,-0.15972393 29.018376,7.7199739 c 1.896741,3.3669801 0.150799,7.1180661 -3.668654,7.8819561 -2.410351,0.482071 -2.663496,0.806802 -1.835301,2.354298 2.028451,3.790195 0.09386,12.839548 -2.24489,10.500804 z"
       id="path4154"
       inkscape:connector-curvature="0" />
    <path
       style="fill:#896a53"
       d="M 4.1934217,73.59375 C 3.8299556,68.4375 2.9486825,63.079544 2.2350371,61.687181 0.5527201,58.404885 0.58983619,55.794093 2.34375,54.040178 3.1171875,53.266741 3.75,51.99588 3.75,51.216043 c 0,-1.89809 1.8004769,-2.915566 3.0132245,-1.702819 0.6281579,0.628158 1.7779371,0.669519 3.2330108,0.116301 2.8492327,-1.083277 3.4297477,0.199559 2.9863387,6.599291 l -0.326324,4.709849 7.265625,-5.82e-4 7.265625,-5.83e-4 0,10.690769 0,10.690768 -4.656148,0.324857 -4.656149,0.324856 -0.265726,-8.4375 c -0.212799,-6.756899 -0.545827,-8.4375 -1.671977,-8.4375 -1.12093,0 -1.460948,1.646486 -1.675839,8.115019 l -0.26959,8.115018 -4.5689013,0.322482 -4.5689005,0.322481 -0.6608475,-9.375 z M 28.554108,49.281176 C 27.772029,44.065903 28.736875,38.172709 30.28815,38.6898 c 1.528461,0.509487 1.539703,13.982166 0.01209,14.49137 -0.687352,0.229116 -1.348316,-1.247148 -1.746134,-3.899994 z M 9.9333366,33.894954 C 9.6639356,33.459053 9.164517,31.357643 8.823518,29.225152 8.482519,27.092662 7.6233529,24.866402 6.9142599,24.277907 6.205167,23.689412 5.625,22.004782 5.625,20.534283 c 0,-2.036397 0.6863845,-3.028576 2.8798449,-4.162858 3.8678701,-2.000154 6.0034671,-0.433318 5.0860301,3.731498 -0.347212,1.576205 -0.841009,5.502546 -1.097328,8.725202 -0.427071,5.369485 -1.302453,7.101924 -2.5602104,5.066829 z M 21.269531,28.457032 C 20.915039,28.102539 20.625,26.589453 20.625,25.094618 c 0,-1.494836 -0.4555,-3.568993 -1.012223,-4.609239 -0.793559,-1.482778 -0.66091,-2.279552 0.614051,-3.688367 C 21.780428,15.080303 21.765293,15 19.88813,15 18.807395,15 17.665518,14.58313 17.350625,14.073623 17.035732,13.564117 14.908357,12.051508 12.623123,10.712273 L 8.4681549,8.2772991 5.9988862,10.219626 C 1.9821989,13.379153 0.37784403,10.65648 3.4728783,5.9328608 5.4257597,2.952387 9.9829734,0.9375 14.771243,0.9375 c 4.404681,0 11.20846,3.3546755 13.676231,6.7432124 1.72162,2.3639846 1.741476,2.6725266 0.312353,4.8536446 -0.839376,1.28105 -2.48575,2.475371 -3.658608,2.654045 -1.374927,0.209458 -1.978173,0.816515 -1.69813,1.708855 0.238886,0.761196 0.449824,3.66668 0.46875,6.456631 0.03165,4.665481 -1.005707,6.699744 -2.602308,5.103144 z"
       id="path4152"
       inkscape:connector-curvature="0" />
    <path
       style="fill:#486867"
       d="M 3.9274759,72.65625 C 3.3700672,66.984375 2.6271841,60.702706 2.2766247,58.696986 1.7784456,55.84666 1.9721078,54.863941 3.163372,54.197276 4.0016424,53.728156 4.6875,52.521544 4.6875,51.515916 c 0,-1.843568 1.010586,-2.38033 2.2146353,-1.176281 1.0132607,1.013261 3.4103647,1.155534 3.4103647,0.202411 0,-0.47 0.421875,-0.854546 0.9375,-0.854546 0.515625,0 0.9375,2.365448 0.9375,5.256552 0,4.287325 -0.259291,5.157053 -1.40625,4.716924 C 10.007813,59.364179 9.375,59.529981 9.375,60.029423 c 0,0.522044 3.786135,0.908077 8.90625,0.908077 l 8.90625,0 0,10.690769 0,10.690768 -4.656148,0.324857 -4.656149,0.324856 -0.265726,-8.4375 c -0.212799,-6.756899 -0.545827,-8.4375 -1.671977,-8.4375 -1.12093,0 -1.460948,1.646486 -1.675839,8.115019 l -0.26959,8.115018 -4.5255626,0.322482 -4.5255621,0.322481 -1.0134704,-10.3125 z m 2.3472029,4.470967 C 6.0369818,76.21506 5.8268704,76.734375 5.8077644,78.28125 c -0.019106,1.546875 0.1753734,2.293185 0.4321763,1.658467 0.2568029,-0.634718 0.272435,-1.900343 0.034738,-2.8125 z M 9.0779194,62.636719 c -0.2992747,-0.747875 -0.5214213,-0.525728 -0.5664062,0.566406 -0.040707,0.988281 0.1808696,1.541992 0.4923931,1.230469 0.3115234,-0.311524 0.3448293,-1.120117 0.074013,-1.796875 z M 29.342016,51.907985 c 0.325607,-0.325609 0.161542,-1.396361 -0.36459,-2.379448 C 27.901834,47.518776 28.807381,39.375 30.106447,39.375 c 0.45708,0 0.831053,2.953125 0.831053,6.5625 0,4.375 -0.364583,6.5625 -1.09375,6.5625 -0.601562,0 -0.827343,-0.266407 -0.501734,-0.592015 z M 9.9389438,33.191263 C 9.6254288,32.374256 9.588105,31.351143 9.8560031,30.917677 10.123898,30.484212 9.9143344,29.864573 9.3902944,29.540701 8.8662566,29.216829 8.4375,27.711116 8.4375,26.194672 8.4375,24.678227 8.015625,23.4375 7.5,23.4375 c -0.515625,0 -0.9375,-1.197908 -0.9375,-2.662017 0,-1.970434 0.64595,-2.956331 2.4863678,-3.794882 3.8189672,-1.740039 4.5373172,-0.27856 3.3588132,6.833487 -0.554621,3.347028 -0.794298,6.904235 -0.532618,7.904904 0.583005,2.229414 -1.142166,3.541277 -1.9361192,1.472271 z M 21.5625,24.899078 c 0,-1.774257 -0.421875,-3.486654 -0.9375,-3.805328 -1.680571,-1.03865 -1.098423,-4.386858 0.703125,-4.044006 1.294163,0.246293 1.7,1.448678 1.921785,5.693742 0.173023,3.311735 -0.0974,5.381514 -0.703125,5.381514 -0.541357,0 -0.984285,-1.451664 -0.984285,-3.225922 z M 20.186378,15.228311 C 19.1717,14.983857 17.062325,13.830732 15.498878,12.665812 9.8581509,8.4629195 8.6277766,8.1517406 5.9570347,10.252547 1.9778848,13.382546 0.39506745,10.630193 3.4728783,5.9328608 8.0089335,-0.99003441 22.150779,-0.35080694 27.964312,7.0399013 c 2.459302,3.1264967 2.483653,3.4890727 0.395063,5.8823087 -1.777404,2.036661 -5.238169,3.013153 -8.172997,2.306101 z"
       id="path4150"
       inkscape:connector-curvature="0" />
    <path
       style="fill:#961b1d"
       d="M 3.9634685,72.1875 C 3.3746639,66.773437 2.6108388,60.702706 2.2660793,58.696986 1.7773312,55.853575 1.9749979,54.862324 3.163372,54.197276 4.0016424,53.728156 4.6875,52.521544 4.6875,51.515916 c 0,-1.843568 1.010586,-2.38033 2.2146353,-1.176281 1.0132607,1.013261 3.4103647,1.155534 3.4103647,0.202411 0,-0.47 0.421875,-0.854546 0.9375,-0.854546 0.515625,0 0.9375,2.365448 0.9375,5.256552 0,4.123066 -0.283314,5.147834 -1.313872,4.752371 -1.5412584,-0.591436 -2.4047127,1.960484 -2.4233267,7.162084 -0.00704,1.967492 -0.460027,4.412907 -1.0066361,5.434255 -0.5466091,1.02135 -1.3123917,3.630333 -1.7017389,5.797743 C 5.1018465,81.653688 4.9314528,81.088122 3.9634685,72.1875 Z M 29.342016,51.907985 c 0.325607,-0.325609 0.161542,-1.396361 -0.36459,-2.379448 C 27.901834,47.518776 28.807381,39.375 30.106447,39.375 c 0.45708,0 0.831053,2.953125 0.831053,6.5625 0,4.375 -0.364583,6.5625 -1.09375,6.5625 -0.601562,0 -0.827343,-0.266407 -0.501734,-0.592015 z M 9.9389438,33.191263 C 9.6254288,32.374256 9.588105,31.351143 9.8560031,30.917677 10.123898,30.484212 9.9143344,29.864573 9.3902944,29.540701 8.8662566,29.216829 8.4375,27.711116 8.4375,26.194672 8.4375,24.678227 8.015625,23.4375 7.5,23.4375 c -0.515625,0 -0.9375,-1.197908 -0.9375,-2.662017 0,-1.970434 0.64595,-2.956331 2.4863678,-3.794882 3.8189672,-1.740039 4.5373172,-0.27856 3.3588132,6.833487 -0.554621,3.347028 -0.794298,6.904235 -0.532618,7.904904 0.583005,2.229414 -1.142166,3.541277 -1.9361192,1.472271 z M 21.5625,24.899078 c 0,-1.774257 -0.421875,-3.486654 -0.9375,-3.805328 -1.680571,-1.03865 -1.098423,-4.386858 0.703125,-4.044006 1.294163,0.246293 1.7,1.448678 1.921785,5.693742 0.173023,3.311735 -0.0974,5.381514 -0.703125,5.381514 -0.541357,0 -0.984285,-1.451664 -0.984285,-3.225922 z"
       id="path4148"
       inkscape:connector-curvature="0" />
  </g>
</svg>
